%TF.GenerationSoftware,KiCad,Pcbnew,8.0.4*%
%TF.CreationDate,2024-08-16T15:48:25+02:00*%
%TF.ProjectId,picoSPI,7069636f-5350-4492-9e6b-696361645f70,rev?*%
%TF.SameCoordinates,Original*%
%TF.FileFunction,Copper,L1,Top*%
%TF.FilePolarity,Positive*%
%FSLAX46Y46*%
G04 Gerber Fmt 4.6, Leading zero omitted, Abs format (unit mm)*
G04 Created by KiCad (PCBNEW 8.0.4) date 2024-08-16 15:48:25*
%MOMM*%
%LPD*%
G01*
G04 APERTURE LIST*
G04 Aperture macros list*
%AMRoundRect*
0 Rectangle with rounded corners*
0 $1 Rounding radius*
0 $2 $3 $4 $5 $6 $7 $8 $9 X,Y pos of 4 corners*
0 Add a 4 corners polygon primitive as box body*
4,1,4,$2,$3,$4,$5,$6,$7,$8,$9,$2,$3,0*
0 Add four circle primitives for the rounded corners*
1,1,$1+$1,$2,$3*
1,1,$1+$1,$4,$5*
1,1,$1+$1,$6,$7*
1,1,$1+$1,$8,$9*
0 Add four rect primitives between the rounded corners*
20,1,$1+$1,$2,$3,$4,$5,0*
20,1,$1+$1,$4,$5,$6,$7,0*
20,1,$1+$1,$6,$7,$8,$9,0*
20,1,$1+$1,$8,$9,$2,$3,0*%
G04 Aperture macros list end*
%TA.AperFunction,ComponentPad*%
%ADD10RoundRect,0.250000X0.600000X0.600000X-0.600000X0.600000X-0.600000X-0.600000X0.600000X-0.600000X0*%
%TD*%
%TA.AperFunction,ComponentPad*%
%ADD11C,1.700000*%
%TD*%
%TA.AperFunction,ComponentPad*%
%ADD12O,1.700000X1.700000*%
%TD*%
%TA.AperFunction,SMDPad,CuDef*%
%ADD13R,1.700000X3.500000*%
%TD*%
%TA.AperFunction,ComponentPad*%
%ADD14R,1.700000X1.700000*%
%TD*%
%TA.AperFunction,SMDPad,CuDef*%
%ADD15R,3.500000X1.700000*%
%TD*%
%TA.AperFunction,SMDPad,CuDef*%
%ADD16RoundRect,0.150000X-0.587500X-0.150000X0.587500X-0.150000X0.587500X0.150000X-0.587500X0.150000X0*%
%TD*%
%TA.AperFunction,ViaPad*%
%ADD17C,0.600000*%
%TD*%
%TA.AperFunction,Conductor*%
%ADD18C,0.200000*%
%TD*%
G04 APERTURE END LIST*
D10*
%TO.P,J1,1,Pin_1*%
%TO.N,Net-(J1-Pin_1)*%
X199500000Y-126500000D03*
D11*
%TO.P,J1,2,Pin_2*%
%TO.N,VCC*%
X196960000Y-126500000D03*
%TO.P,J1,3,Pin_3*%
%TO.N,Net-(J1-Pin_3)*%
X199500000Y-123960000D03*
%TO.P,J1,4,Pin_4*%
%TO.N,unconnected-(J1-Pin_4-Pad4)*%
X196960000Y-123960000D03*
%TO.P,J1,5,Pin_5*%
%TO.N,unconnected-(J1-Pin_5-Pad5)*%
X199500000Y-121420000D03*
%TO.P,J1,6,Pin_6*%
%TO.N,Net-(J1-Pin_6)*%
X196960000Y-121420000D03*
%TO.P,J1,7,Pin_7*%
%TO.N,GND*%
X199500000Y-118880000D03*
%TO.P,J1,8,Pin_8*%
%TO.N,Net-(J1-Pin_8)*%
X196960000Y-118880000D03*
%TD*%
D12*
%TO.P,U1,1,GPIO0*%
%TO.N,Net-(J2-Pin_3)*%
X135870000Y-131390000D03*
D13*
X135870000Y-132290000D03*
D12*
%TO.P,U1,2,GPIO1*%
%TO.N,Net-(J2-Pin_2)*%
X138410000Y-131390000D03*
D13*
X138410000Y-132290000D03*
D14*
%TO.P,U1,3,GND*%
%TO.N,Net-(J4-Pin_18)*%
X140950000Y-131390000D03*
D13*
X140950000Y-132290000D03*
D12*
%TO.P,U1,4,GPIO2*%
%TO.N,Net-(J1-Pin_6)*%
X143490000Y-131390000D03*
D13*
X143490000Y-132290000D03*
D12*
%TO.P,U1,5,GPIO3*%
%TO.N,Net-(J1-Pin_8)*%
X146030000Y-131390000D03*
D13*
X146030000Y-132290000D03*
D12*
%TO.P,U1,6,GPIO4*%
%TO.N,Net-(J1-Pin_3)*%
X148570000Y-131390000D03*
D13*
X148570000Y-132290000D03*
D12*
%TO.P,U1,7,GPIO5*%
%TO.N,Net-(J1-Pin_1)*%
X151110000Y-131390000D03*
D13*
X151110000Y-132290000D03*
D14*
%TO.P,U1,8,GND*%
%TO.N,Net-(J4-Pin_13)*%
X153650000Y-131390000D03*
D13*
X153650000Y-132290000D03*
D12*
%TO.P,U1,9,GPIO6*%
%TO.N,Net-(J4-Pin_12)*%
X156190000Y-131390000D03*
D13*
X156190000Y-132290000D03*
D12*
%TO.P,U1,10,GPIO7*%
%TO.N,Net-(J4-Pin_11)*%
X158730000Y-131390000D03*
D13*
X158730000Y-132290000D03*
D12*
%TO.P,U1,11,GPIO8*%
%TO.N,Net-(J4-Pin_10)*%
X161270000Y-131390000D03*
D13*
X161270000Y-132290000D03*
D12*
%TO.P,U1,12,GPIO9*%
%TO.N,Net-(J4-Pin_9)*%
X163810000Y-131390000D03*
D13*
X163810000Y-132290000D03*
D14*
%TO.P,U1,13,GND*%
%TO.N,Net-(J4-Pin_8)*%
X166350000Y-131390000D03*
D13*
X166350000Y-132290000D03*
D12*
%TO.P,U1,14,GPIO10*%
%TO.N,Net-(J4-Pin_7)*%
X168890000Y-131390000D03*
D13*
X168890000Y-132290000D03*
D12*
%TO.P,U1,15,GPIO11*%
%TO.N,Net-(J4-Pin_6)*%
X171430000Y-131390000D03*
D13*
X171430000Y-132290000D03*
D12*
%TO.P,U1,16,GPIO12*%
%TO.N,Net-(J4-Pin_5)*%
X173970000Y-131390000D03*
D13*
X173970000Y-132290000D03*
D12*
%TO.P,U1,17,GPIO13*%
%TO.N,Net-(J4-Pin_4)*%
X176510000Y-131390000D03*
D13*
X176510000Y-132290000D03*
D14*
%TO.P,U1,18,GND*%
%TO.N,Net-(J4-Pin_3)*%
X179050000Y-131390000D03*
D13*
X179050000Y-132290000D03*
D12*
%TO.P,U1,19,GPIO14*%
%TO.N,Net-(J4-Pin_2)*%
X181590000Y-131390000D03*
D13*
X181590000Y-132290000D03*
D12*
%TO.P,U1,20,GPIO15*%
%TO.N,Net-(J4-Pin_1)*%
X184130000Y-131390000D03*
D13*
X184130000Y-132290000D03*
D12*
%TO.P,U1,21,GPIO16*%
%TO.N,Net-(J3-Pin_20)*%
X184130000Y-113610000D03*
D13*
X184130000Y-112710000D03*
D12*
%TO.P,U1,22,GPIO17*%
%TO.N,Net-(J3-Pin_19)*%
X181590000Y-113610000D03*
D13*
X181590000Y-112710000D03*
D14*
%TO.P,U1,23,GND*%
%TO.N,Net-(J3-Pin_18)*%
X179050000Y-113610000D03*
D13*
X179050000Y-112710000D03*
D12*
%TO.P,U1,24,GPIO18*%
%TO.N,Net-(J3-Pin_17)*%
X176510000Y-113610000D03*
D13*
X176510000Y-112710000D03*
D12*
%TO.P,U1,25,GPIO19*%
%TO.N,Net-(J3-Pin_16)*%
X173970000Y-113610000D03*
D13*
X173970000Y-112710000D03*
D12*
%TO.P,U1,26,GPIO20*%
%TO.N,Net-(J3-Pin_15)*%
X171430000Y-113610000D03*
D13*
X171430000Y-112710000D03*
D12*
%TO.P,U1,27,GPIO21*%
%TO.N,Net-(J3-Pin_14)*%
X168890000Y-113610000D03*
D13*
X168890000Y-112710000D03*
D14*
%TO.P,U1,28,GND*%
%TO.N,Net-(J3-Pin_13)*%
X166350000Y-113610000D03*
D13*
X166350000Y-112710000D03*
D12*
%TO.P,U1,29,GPIO22*%
%TO.N,Net-(J3-Pin_12)*%
X163810000Y-113610000D03*
D13*
X163810000Y-112710000D03*
D12*
%TO.P,U1,30,RUN*%
%TO.N,Net-(J3-Pin_11)*%
X161270000Y-113610000D03*
D13*
X161270000Y-112710000D03*
D12*
%TO.P,U1,31,GPIO26_ADC0*%
%TO.N,Net-(J3-Pin_10)*%
X158730000Y-113610000D03*
D13*
X158730000Y-112710000D03*
D12*
%TO.P,U1,32,GPIO27_ADC1*%
%TO.N,Net-(J3-Pin_9)*%
X156190000Y-113610000D03*
D13*
X156190000Y-112710000D03*
D14*
%TO.P,U1,33,AGND*%
%TO.N,Net-(J3-Pin_8)*%
X153650000Y-113610000D03*
D13*
X153650000Y-112710000D03*
D12*
%TO.P,U1,34,GPIO28_ADC2*%
%TO.N,Net-(J3-Pin_7)*%
X151110000Y-113610000D03*
D13*
X151110000Y-112710000D03*
D12*
%TO.P,U1,35,ADC_VREF*%
%TO.N,Net-(J3-Pin_6)*%
X148570000Y-113610000D03*
D13*
X148570000Y-112710000D03*
D12*
%TO.P,U1,36,3V3*%
%TO.N,+3.3V*%
X146030000Y-113610000D03*
D13*
X146030000Y-112710000D03*
D12*
%TO.P,U1,37,3V3_EN*%
%TO.N,Net-(J3-Pin_4)*%
X143490000Y-113610000D03*
D13*
X143490000Y-112710000D03*
D14*
%TO.P,U1,38,GND*%
%TO.N,GND*%
X140950000Y-113610000D03*
D13*
X140950000Y-112710000D03*
D12*
%TO.P,U1,39,VSYS*%
%TO.N,Net-(J3-Pin_2)*%
X138410000Y-113610000D03*
D13*
X138410000Y-112710000D03*
D12*
%TO.P,U1,40,VBUS*%
%TO.N,Net-(J3-Pin_1)*%
X135870000Y-113610000D03*
D13*
X135870000Y-112710000D03*
D12*
%TO.P,U1,41,SWCLK*%
%TO.N,unconnected-(U1-SWCLK-Pad41)*%
X183900000Y-125040000D03*
D15*
X184800000Y-125040000D03*
D14*
%TO.P,U1,42,GND*%
%TO.N,unconnected-(U1-GND-Pad42)*%
X183900000Y-122500000D03*
D15*
X184800000Y-122500000D03*
D12*
%TO.P,U1,43,SWDIO*%
%TO.N,unconnected-(U1-SWDIO-Pad43)*%
X183900000Y-119960000D03*
D15*
X184800000Y-119960000D03*
%TD*%
D14*
%TO.P,J2,1,Pin_1*%
%TO.N,VCC*%
X208500000Y-126540000D03*
D12*
%TO.P,J2,2,Pin_2*%
%TO.N,Net-(J2-Pin_2)*%
X208500000Y-124000000D03*
%TO.P,J2,3,Pin_3*%
%TO.N,Net-(J2-Pin_3)*%
X208500000Y-121460000D03*
%TO.P,J2,4,Pin_4*%
%TO.N,GND*%
X208500000Y-118920000D03*
%TD*%
D14*
%TO.P,J4,1,Pin_1*%
%TO.N,Net-(J4-Pin_1)*%
X184125000Y-136400000D03*
D12*
%TO.P,J4,2,Pin_2*%
%TO.N,Net-(J4-Pin_2)*%
X181585000Y-136400000D03*
%TO.P,J4,3,Pin_3*%
%TO.N,Net-(J4-Pin_3)*%
X179045000Y-136400000D03*
%TO.P,J4,4,Pin_4*%
%TO.N,Net-(J4-Pin_4)*%
X176505000Y-136400000D03*
%TO.P,J4,5,Pin_5*%
%TO.N,Net-(J4-Pin_5)*%
X173965000Y-136400000D03*
%TO.P,J4,6,Pin_6*%
%TO.N,Net-(J4-Pin_6)*%
X171425000Y-136400000D03*
%TO.P,J4,7,Pin_7*%
%TO.N,Net-(J4-Pin_7)*%
X168885000Y-136400000D03*
%TO.P,J4,8,Pin_8*%
%TO.N,Net-(J4-Pin_8)*%
X166345000Y-136400000D03*
%TO.P,J4,9,Pin_9*%
%TO.N,Net-(J4-Pin_9)*%
X163805000Y-136400000D03*
%TO.P,J4,10,Pin_10*%
%TO.N,Net-(J4-Pin_10)*%
X161265000Y-136400000D03*
%TO.P,J4,11,Pin_11*%
%TO.N,Net-(J4-Pin_11)*%
X158725000Y-136400000D03*
%TO.P,J4,12,Pin_12*%
%TO.N,Net-(J4-Pin_12)*%
X156185000Y-136400000D03*
%TO.P,J4,13,Pin_13*%
%TO.N,Net-(J4-Pin_13)*%
X153645000Y-136400000D03*
%TO.P,J4,14,Pin_14*%
%TO.N,Net-(J1-Pin_1)*%
X151105000Y-136400000D03*
%TO.P,J4,15,Pin_15*%
%TO.N,Net-(J1-Pin_3)*%
X148565000Y-136400000D03*
%TO.P,J4,16,Pin_16*%
%TO.N,Net-(J1-Pin_8)*%
X146025000Y-136400000D03*
%TO.P,J4,17,Pin_17*%
%TO.N,Net-(J1-Pin_6)*%
X143485000Y-136400000D03*
%TO.P,J4,18,Pin_18*%
%TO.N,Net-(J4-Pin_18)*%
X140945000Y-136400000D03*
%TO.P,J4,19,Pin_19*%
%TO.N,Net-(J2-Pin_2)*%
X138405000Y-136400000D03*
%TO.P,J4,20,Pin_20*%
%TO.N,Net-(J2-Pin_3)*%
X135865000Y-136400000D03*
%TD*%
D16*
%TO.P,D1,1,A*%
%TO.N,+3.3V*%
X189062500Y-115050000D03*
%TO.P,D1,2,A*%
%TO.N,unconnected-(D1-A-Pad2)*%
X189062500Y-116950000D03*
%TO.P,D1,3,K*%
%TO.N,VCC*%
X190937500Y-116000000D03*
%TD*%
D14*
%TO.P,J3,1,Pin_1*%
%TO.N,Net-(J3-Pin_1)*%
X135870000Y-108600000D03*
D12*
%TO.P,J3,2,Pin_2*%
%TO.N,Net-(J3-Pin_2)*%
X138410000Y-108600000D03*
%TO.P,J3,3,Pin_3*%
%TO.N,GND*%
X140950000Y-108600000D03*
%TO.P,J3,4,Pin_4*%
%TO.N,Net-(J3-Pin_4)*%
X143490000Y-108600000D03*
%TO.P,J3,5,Pin_5*%
%TO.N,+3.3V*%
X146030000Y-108600000D03*
%TO.P,J3,6,Pin_6*%
%TO.N,Net-(J3-Pin_6)*%
X148570000Y-108600000D03*
%TO.P,J3,7,Pin_7*%
%TO.N,Net-(J3-Pin_7)*%
X151110000Y-108600000D03*
%TO.P,J3,8,Pin_8*%
%TO.N,Net-(J3-Pin_8)*%
X153650000Y-108600000D03*
%TO.P,J3,9,Pin_9*%
%TO.N,Net-(J3-Pin_9)*%
X156190000Y-108600000D03*
%TO.P,J3,10,Pin_10*%
%TO.N,Net-(J3-Pin_10)*%
X158730000Y-108600000D03*
%TO.P,J3,11,Pin_11*%
%TO.N,Net-(J3-Pin_11)*%
X161270000Y-108600000D03*
%TO.P,J3,12,Pin_12*%
%TO.N,Net-(J3-Pin_12)*%
X163810000Y-108600000D03*
%TO.P,J3,13,Pin_13*%
%TO.N,Net-(J3-Pin_13)*%
X166350000Y-108600000D03*
%TO.P,J3,14,Pin_14*%
%TO.N,Net-(J3-Pin_14)*%
X168890000Y-108600000D03*
%TO.P,J3,15,Pin_15*%
%TO.N,Net-(J3-Pin_15)*%
X171430000Y-108600000D03*
%TO.P,J3,16,Pin_16*%
%TO.N,Net-(J3-Pin_16)*%
X173970000Y-108600000D03*
%TO.P,J3,17,Pin_17*%
%TO.N,Net-(J3-Pin_17)*%
X176510000Y-108600000D03*
%TO.P,J3,18,Pin_18*%
%TO.N,Net-(J3-Pin_18)*%
X179050000Y-108600000D03*
%TO.P,J3,19,Pin_19*%
%TO.N,Net-(J3-Pin_19)*%
X181590000Y-108600000D03*
%TO.P,J3,20,Pin_20*%
%TO.N,Net-(J3-Pin_20)*%
X184130000Y-108600000D03*
%TD*%
D17*
%TO.N,Net-(J2-Pin_2)*%
X192000000Y-122500000D03*
%TD*%
D18*
%TO.N,GND*%
X140950000Y-113610000D02*
X140950000Y-108600000D01*
%TO.N,Net-(J2-Pin_2)*%
X138410000Y-136395000D02*
X138405000Y-136400000D01*
X207070000Y-122570000D02*
X208500000Y-124000000D01*
X138410000Y-131390000D02*
X138410000Y-136395000D01*
X192070000Y-122570000D02*
X207070000Y-122570000D01*
X192000000Y-122500000D02*
X192070000Y-122570000D01*
%TO.N,Net-(J2-Pin_3)*%
X188000000Y-126000000D02*
X185500000Y-128500000D01*
X188730000Y-120270000D02*
X188000000Y-121000000D01*
X207310000Y-120270000D02*
X188730000Y-120270000D01*
X188000000Y-121000000D02*
X188000000Y-126000000D01*
X208500000Y-121460000D02*
X207310000Y-120270000D01*
X138760000Y-128500000D02*
X135870000Y-131390000D01*
X185500000Y-128500000D02*
X138760000Y-128500000D01*
X135870000Y-136395000D02*
X135865000Y-136400000D01*
X135870000Y-131390000D02*
X135870000Y-136395000D01*
%TO.N,Net-(J1-Pin_6)*%
X189080000Y-121420000D02*
X188400000Y-122100000D01*
X188400000Y-122100000D02*
X188400000Y-126165686D01*
X196960000Y-121420000D02*
X189080000Y-121420000D01*
X185531372Y-129034314D02*
X145845686Y-129034314D01*
X143490000Y-136395000D02*
X143485000Y-136400000D01*
X143490000Y-131390000D02*
X143490000Y-136395000D01*
X188400000Y-126165686D02*
X185531372Y-129034314D01*
X145845686Y-129034314D02*
X143490000Y-131390000D01*
%TO.N,Net-(J1-Pin_1)*%
X151105000Y-132895000D02*
X151105000Y-136400000D01*
X199500000Y-128500000D02*
X197760000Y-130240000D01*
X197760000Y-130240000D02*
X152260000Y-130240000D01*
X151110000Y-131390000D02*
X151110000Y-132890000D01*
X199500000Y-126500000D02*
X199500000Y-128500000D01*
X151110000Y-132890000D02*
X151105000Y-132895000D01*
X152260000Y-130240000D02*
X151110000Y-131390000D01*
%TO.N,Net-(J1-Pin_8)*%
X146030000Y-136395000D02*
X146025000Y-136400000D01*
X146030000Y-131390000D02*
X146030000Y-136395000D01*
%TO.N,Net-(J1-Pin_3)*%
X148570000Y-131390000D02*
X148570000Y-136395000D01*
X148570000Y-136395000D02*
X148565000Y-136400000D01*
%TO.N,Net-(J3-Pin_2)*%
X138410000Y-108600000D02*
X138410000Y-113610000D01*
%TO.N,Net-(J3-Pin_10)*%
X158730000Y-108600000D02*
X158730000Y-113610000D01*
%TO.N,Net-(J3-Pin_17)*%
X176510000Y-108600000D02*
X176510000Y-113610000D01*
%TO.N,Net-(J4-Pin_12)*%
X156190000Y-131390000D02*
X156185000Y-131395000D01*
X156185000Y-131395000D02*
X156185000Y-136400000D01*
%TO.N,Net-(J4-Pin_13)*%
X153650000Y-136395000D02*
X153645000Y-136400000D01*
X153650000Y-131390000D02*
X153650000Y-136395000D01*
%TO.N,Net-(J3-Pin_6)*%
X148570000Y-108600000D02*
X148570000Y-113610000D01*
%TO.N,Net-(J4-Pin_2)*%
X181590000Y-136395000D02*
X181585000Y-136400000D01*
X181590000Y-131390000D02*
X181590000Y-136395000D01*
%TO.N,Net-(J4-Pin_11)*%
X158730000Y-136395000D02*
X158725000Y-136400000D01*
X158730000Y-131390000D02*
X158730000Y-136395000D01*
%TO.N,Net-(J3-Pin_1)*%
X135870000Y-113610000D02*
X135870000Y-108600000D01*
%TO.N,Net-(J3-Pin_9)*%
X156190000Y-108600000D02*
X156190000Y-113610000D01*
%TO.N,Net-(J3-Pin_18)*%
X179050000Y-108600000D02*
X179050000Y-113610000D01*
%TO.N,Net-(J4-Pin_5)*%
X173965000Y-131395000D02*
X173965000Y-136400000D01*
X173970000Y-131390000D02*
X173965000Y-131395000D01*
%TO.N,Net-(J4-Pin_9)*%
X163810000Y-134190000D02*
X163805000Y-134195000D01*
X163810000Y-131390000D02*
X163810000Y-134190000D01*
X163805000Y-134195000D02*
X163805000Y-136400000D01*
%TO.N,Net-(J3-Pin_16)*%
X173970000Y-108600000D02*
X173970000Y-113610000D01*
%TO.N,+3.3V*%
X146030000Y-108600000D02*
X146030000Y-113610000D01*
X189062500Y-115050000D02*
X147470000Y-115050000D01*
X147470000Y-115050000D02*
X146030000Y-113610000D01*
%TO.N,Net-(J4-Pin_18)*%
X140950000Y-131390000D02*
X140945000Y-131395000D01*
X140945000Y-131395000D02*
X140945000Y-136400000D01*
%TO.N,Net-(J3-Pin_20)*%
X184130000Y-108600000D02*
X184130000Y-113610000D01*
%TO.N,Net-(J3-Pin_8)*%
X153650000Y-108600000D02*
X153650000Y-113610000D01*
%TO.N,Net-(J3-Pin_19)*%
X181590000Y-108600000D02*
X181590000Y-113610000D01*
%TO.N,Net-(J3-Pin_7)*%
X151110000Y-108600000D02*
X151110000Y-113610000D01*
%TO.N,Net-(J3-Pin_12)*%
X163810000Y-108600000D02*
X163810000Y-113610000D01*
%TO.N,Net-(J4-Pin_6)*%
X171430000Y-131390000D02*
X171430000Y-136395000D01*
X171430000Y-136395000D02*
X171425000Y-136400000D01*
%TO.N,Net-(J3-Pin_4)*%
X143490000Y-108600000D02*
X143490000Y-113610000D01*
%TO.N,Net-(J4-Pin_7)*%
X168890000Y-131390000D02*
X168885000Y-131395000D01*
X168885000Y-131395000D02*
X168885000Y-136400000D01*
%TO.N,Net-(J4-Pin_10)*%
X161265000Y-131775000D02*
X161265000Y-136400000D01*
X161270000Y-131390000D02*
X161270000Y-131770000D01*
X161270000Y-131770000D02*
X161265000Y-131775000D01*
%TO.N,Net-(J4-Pin_1)*%
X184130000Y-131390000D02*
X184125000Y-131395000D01*
X184125000Y-131395000D02*
X184125000Y-136400000D01*
%TO.N,Net-(J4-Pin_4)*%
X176510000Y-131390000D02*
X176505000Y-131395000D01*
X176505000Y-131395000D02*
X176505000Y-136400000D01*
%TO.N,Net-(J3-Pin_11)*%
X161270000Y-108600000D02*
X161270000Y-113610000D01*
%TO.N,Net-(J4-Pin_8)*%
X166350000Y-136395000D02*
X166345000Y-136400000D01*
X166350000Y-131390000D02*
X166350000Y-136395000D01*
%TO.N,Net-(J3-Pin_15)*%
X171430000Y-108600000D02*
X171430000Y-113610000D01*
%TO.N,Net-(J3-Pin_14)*%
X168890000Y-108600000D02*
X168890000Y-113610000D01*
%TO.N,Net-(J4-Pin_3)*%
X179050000Y-131390000D02*
X179045000Y-131395000D01*
X179045000Y-131395000D02*
X179045000Y-136400000D01*
%TO.N,Net-(J3-Pin_13)*%
X166350000Y-108600000D02*
X166350000Y-113610000D01*
%TO.N,VCC*%
X190937500Y-116000000D02*
X201000000Y-116000000D01*
X209650000Y-125390000D02*
X208500000Y-126540000D01*
X202500000Y-117500000D02*
X208706346Y-117500000D01*
X209650000Y-118443654D02*
X209650000Y-125390000D01*
X201000000Y-116000000D02*
X202500000Y-117500000D01*
X208706346Y-117500000D02*
X209650000Y-118443654D01*
%TD*%
M02*
