%TF.GenerationSoftware,KiCad,Pcbnew,8.0.4*%
%TF.CreationDate,2024-08-16T15:48:25+02:00*%
%TF.ProjectId,picoSPI,7069636f-5350-4492-9e6b-696361645f70,rev?*%
%TF.SameCoordinates,Original*%
%TF.FileFunction,Copper,L2,Bot*%
%TF.FilePolarity,Positive*%
%FSLAX46Y46*%
G04 Gerber Fmt 4.6, Leading zero omitted, Abs format (unit mm)*
G04 Created by KiCad (PCBNEW 8.0.4) date 2024-08-16 15:48:25*
%MOMM*%
%LPD*%
G01*
G04 APERTURE LIST*
G04 Aperture macros list*
%AMRoundRect*
0 Rectangle with rounded corners*
0 $1 Rounding radius*
0 $2 $3 $4 $5 $6 $7 $8 $9 X,Y pos of 4 corners*
0 Add a 4 corners polygon primitive as box body*
4,1,4,$2,$3,$4,$5,$6,$7,$8,$9,$2,$3,0*
0 Add four circle primitives for the rounded corners*
1,1,$1+$1,$2,$3*
1,1,$1+$1,$4,$5*
1,1,$1+$1,$6,$7*
1,1,$1+$1,$8,$9*
0 Add four rect primitives between the rounded corners*
20,1,$1+$1,$2,$3,$4,$5,0*
20,1,$1+$1,$4,$5,$6,$7,0*
20,1,$1+$1,$6,$7,$8,$9,0*
20,1,$1+$1,$8,$9,$2,$3,0*%
G04 Aperture macros list end*
%TA.AperFunction,ComponentPad*%
%ADD10RoundRect,0.250000X0.600000X0.600000X-0.600000X0.600000X-0.600000X-0.600000X0.600000X-0.600000X0*%
%TD*%
%TA.AperFunction,ComponentPad*%
%ADD11C,1.700000*%
%TD*%
%TA.AperFunction,ComponentPad*%
%ADD12O,1.700000X1.700000*%
%TD*%
%TA.AperFunction,ComponentPad*%
%ADD13R,1.700000X1.700000*%
%TD*%
%TA.AperFunction,ViaPad*%
%ADD14C,0.600000*%
%TD*%
%TA.AperFunction,Conductor*%
%ADD15C,0.200000*%
%TD*%
G04 APERTURE END LIST*
D10*
%TO.P,J1,1,Pin_1*%
%TO.N,Net-(J1-Pin_1)*%
X199500000Y-126500000D03*
D11*
%TO.P,J1,2,Pin_2*%
%TO.N,VCC*%
X196960000Y-126500000D03*
%TO.P,J1,3,Pin_3*%
%TO.N,Net-(J1-Pin_3)*%
X199500000Y-123960000D03*
%TO.P,J1,4,Pin_4*%
%TO.N,unconnected-(J1-Pin_4-Pad4)*%
X196960000Y-123960000D03*
%TO.P,J1,5,Pin_5*%
%TO.N,unconnected-(J1-Pin_5-Pad5)*%
X199500000Y-121420000D03*
%TO.P,J1,6,Pin_6*%
%TO.N,Net-(J1-Pin_6)*%
X196960000Y-121420000D03*
%TO.P,J1,7,Pin_7*%
%TO.N,GND*%
X199500000Y-118880000D03*
%TO.P,J1,8,Pin_8*%
%TO.N,Net-(J1-Pin_8)*%
X196960000Y-118880000D03*
%TD*%
D12*
%TO.P,U1,1,GPIO0*%
%TO.N,Net-(J2-Pin_3)*%
X135870000Y-131390000D03*
%TO.P,U1,2,GPIO1*%
%TO.N,Net-(J2-Pin_2)*%
X138410000Y-131390000D03*
D13*
%TO.P,U1,3,GND*%
%TO.N,Net-(J4-Pin_18)*%
X140950000Y-131390000D03*
D12*
%TO.P,U1,4,GPIO2*%
%TO.N,Net-(J1-Pin_6)*%
X143490000Y-131390000D03*
%TO.P,U1,5,GPIO3*%
%TO.N,Net-(J1-Pin_8)*%
X146030000Y-131390000D03*
%TO.P,U1,6,GPIO4*%
%TO.N,Net-(J1-Pin_3)*%
X148570000Y-131390000D03*
%TO.P,U1,7,GPIO5*%
%TO.N,Net-(J1-Pin_1)*%
X151110000Y-131390000D03*
D13*
%TO.P,U1,8,GND*%
%TO.N,Net-(J4-Pin_13)*%
X153650000Y-131390000D03*
D12*
%TO.P,U1,9,GPIO6*%
%TO.N,Net-(J4-Pin_12)*%
X156190000Y-131390000D03*
%TO.P,U1,10,GPIO7*%
%TO.N,Net-(J4-Pin_11)*%
X158730000Y-131390000D03*
%TO.P,U1,11,GPIO8*%
%TO.N,Net-(J4-Pin_10)*%
X161270000Y-131390000D03*
%TO.P,U1,12,GPIO9*%
%TO.N,Net-(J4-Pin_9)*%
X163810000Y-131390000D03*
D13*
%TO.P,U1,13,GND*%
%TO.N,Net-(J4-Pin_8)*%
X166350000Y-131390000D03*
D12*
%TO.P,U1,14,GPIO10*%
%TO.N,Net-(J4-Pin_7)*%
X168890000Y-131390000D03*
%TO.P,U1,15,GPIO11*%
%TO.N,Net-(J4-Pin_6)*%
X171430000Y-131390000D03*
%TO.P,U1,16,GPIO12*%
%TO.N,Net-(J4-Pin_5)*%
X173970000Y-131390000D03*
%TO.P,U1,17,GPIO13*%
%TO.N,Net-(J4-Pin_4)*%
X176510000Y-131390000D03*
D13*
%TO.P,U1,18,GND*%
%TO.N,Net-(J4-Pin_3)*%
X179050000Y-131390000D03*
D12*
%TO.P,U1,19,GPIO14*%
%TO.N,Net-(J4-Pin_2)*%
X181590000Y-131390000D03*
%TO.P,U1,20,GPIO15*%
%TO.N,Net-(J4-Pin_1)*%
X184130000Y-131390000D03*
%TO.P,U1,21,GPIO16*%
%TO.N,Net-(J3-Pin_20)*%
X184130000Y-113610000D03*
%TO.P,U1,22,GPIO17*%
%TO.N,Net-(J3-Pin_19)*%
X181590000Y-113610000D03*
D13*
%TO.P,U1,23,GND*%
%TO.N,Net-(J3-Pin_18)*%
X179050000Y-113610000D03*
D12*
%TO.P,U1,24,GPIO18*%
%TO.N,Net-(J3-Pin_17)*%
X176510000Y-113610000D03*
%TO.P,U1,25,GPIO19*%
%TO.N,Net-(J3-Pin_16)*%
X173970000Y-113610000D03*
%TO.P,U1,26,GPIO20*%
%TO.N,Net-(J3-Pin_15)*%
X171430000Y-113610000D03*
%TO.P,U1,27,GPIO21*%
%TO.N,Net-(J3-Pin_14)*%
X168890000Y-113610000D03*
D13*
%TO.P,U1,28,GND*%
%TO.N,Net-(J3-Pin_13)*%
X166350000Y-113610000D03*
D12*
%TO.P,U1,29,GPIO22*%
%TO.N,Net-(J3-Pin_12)*%
X163810000Y-113610000D03*
%TO.P,U1,30,RUN*%
%TO.N,Net-(J3-Pin_11)*%
X161270000Y-113610000D03*
%TO.P,U1,31,GPIO26_ADC0*%
%TO.N,Net-(J3-Pin_10)*%
X158730000Y-113610000D03*
%TO.P,U1,32,GPIO27_ADC1*%
%TO.N,Net-(J3-Pin_9)*%
X156190000Y-113610000D03*
D13*
%TO.P,U1,33,AGND*%
%TO.N,Net-(J3-Pin_8)*%
X153650000Y-113610000D03*
D12*
%TO.P,U1,34,GPIO28_ADC2*%
%TO.N,Net-(J3-Pin_7)*%
X151110000Y-113610000D03*
%TO.P,U1,35,ADC_VREF*%
%TO.N,Net-(J3-Pin_6)*%
X148570000Y-113610000D03*
%TO.P,U1,36,3V3*%
%TO.N,+3.3V*%
X146030000Y-113610000D03*
%TO.P,U1,37,3V3_EN*%
%TO.N,Net-(J3-Pin_4)*%
X143490000Y-113610000D03*
D13*
%TO.P,U1,38,GND*%
%TO.N,GND*%
X140950000Y-113610000D03*
D12*
%TO.P,U1,39,VSYS*%
%TO.N,Net-(J3-Pin_2)*%
X138410000Y-113610000D03*
%TO.P,U1,40,VBUS*%
%TO.N,Net-(J3-Pin_1)*%
X135870000Y-113610000D03*
%TO.P,U1,41,SWCLK*%
%TO.N,unconnected-(U1-SWCLK-Pad41)*%
X183900000Y-125040000D03*
D13*
%TO.P,U1,42,GND*%
%TO.N,unconnected-(U1-GND-Pad42)*%
X183900000Y-122500000D03*
D12*
%TO.P,U1,43,SWDIO*%
%TO.N,unconnected-(U1-SWDIO-Pad43)*%
X183900000Y-119960000D03*
%TD*%
D13*
%TO.P,J2,1,Pin_1*%
%TO.N,VCC*%
X208500000Y-126540000D03*
D12*
%TO.P,J2,2,Pin_2*%
%TO.N,Net-(J2-Pin_2)*%
X208500000Y-124000000D03*
%TO.P,J2,3,Pin_3*%
%TO.N,Net-(J2-Pin_3)*%
X208500000Y-121460000D03*
%TO.P,J2,4,Pin_4*%
%TO.N,GND*%
X208500000Y-118920000D03*
%TD*%
D13*
%TO.P,J4,1,Pin_1*%
%TO.N,Net-(J4-Pin_1)*%
X184125000Y-136400000D03*
D12*
%TO.P,J4,2,Pin_2*%
%TO.N,Net-(J4-Pin_2)*%
X181585000Y-136400000D03*
%TO.P,J4,3,Pin_3*%
%TO.N,Net-(J4-Pin_3)*%
X179045000Y-136400000D03*
%TO.P,J4,4,Pin_4*%
%TO.N,Net-(J4-Pin_4)*%
X176505000Y-136400000D03*
%TO.P,J4,5,Pin_5*%
%TO.N,Net-(J4-Pin_5)*%
X173965000Y-136400000D03*
%TO.P,J4,6,Pin_6*%
%TO.N,Net-(J4-Pin_6)*%
X171425000Y-136400000D03*
%TO.P,J4,7,Pin_7*%
%TO.N,Net-(J4-Pin_7)*%
X168885000Y-136400000D03*
%TO.P,J4,8,Pin_8*%
%TO.N,Net-(J4-Pin_8)*%
X166345000Y-136400000D03*
%TO.P,J4,9,Pin_9*%
%TO.N,Net-(J4-Pin_9)*%
X163805000Y-136400000D03*
%TO.P,J4,10,Pin_10*%
%TO.N,Net-(J4-Pin_10)*%
X161265000Y-136400000D03*
%TO.P,J4,11,Pin_11*%
%TO.N,Net-(J4-Pin_11)*%
X158725000Y-136400000D03*
%TO.P,J4,12,Pin_12*%
%TO.N,Net-(J4-Pin_12)*%
X156185000Y-136400000D03*
%TO.P,J4,13,Pin_13*%
%TO.N,Net-(J4-Pin_13)*%
X153645000Y-136400000D03*
%TO.P,J4,14,Pin_14*%
%TO.N,Net-(J1-Pin_1)*%
X151105000Y-136400000D03*
%TO.P,J4,15,Pin_15*%
%TO.N,Net-(J1-Pin_3)*%
X148565000Y-136400000D03*
%TO.P,J4,16,Pin_16*%
%TO.N,Net-(J1-Pin_8)*%
X146025000Y-136400000D03*
%TO.P,J4,17,Pin_17*%
%TO.N,Net-(J1-Pin_6)*%
X143485000Y-136400000D03*
%TO.P,J4,18,Pin_18*%
%TO.N,Net-(J4-Pin_18)*%
X140945000Y-136400000D03*
%TO.P,J4,19,Pin_19*%
%TO.N,Net-(J2-Pin_2)*%
X138405000Y-136400000D03*
%TO.P,J4,20,Pin_20*%
%TO.N,Net-(J2-Pin_3)*%
X135865000Y-136400000D03*
%TD*%
D13*
%TO.P,J3,1,Pin_1*%
%TO.N,Net-(J3-Pin_1)*%
X135870000Y-108600000D03*
D12*
%TO.P,J3,2,Pin_2*%
%TO.N,Net-(J3-Pin_2)*%
X138410000Y-108600000D03*
%TO.P,J3,3,Pin_3*%
%TO.N,GND*%
X140950000Y-108600000D03*
%TO.P,J3,4,Pin_4*%
%TO.N,Net-(J3-Pin_4)*%
X143490000Y-108600000D03*
%TO.P,J3,5,Pin_5*%
%TO.N,+3.3V*%
X146030000Y-108600000D03*
%TO.P,J3,6,Pin_6*%
%TO.N,Net-(J3-Pin_6)*%
X148570000Y-108600000D03*
%TO.P,J3,7,Pin_7*%
%TO.N,Net-(J3-Pin_7)*%
X151110000Y-108600000D03*
%TO.P,J3,8,Pin_8*%
%TO.N,Net-(J3-Pin_8)*%
X153650000Y-108600000D03*
%TO.P,J3,9,Pin_9*%
%TO.N,Net-(J3-Pin_9)*%
X156190000Y-108600000D03*
%TO.P,J3,10,Pin_10*%
%TO.N,Net-(J3-Pin_10)*%
X158730000Y-108600000D03*
%TO.P,J3,11,Pin_11*%
%TO.N,Net-(J3-Pin_11)*%
X161270000Y-108600000D03*
%TO.P,J3,12,Pin_12*%
%TO.N,Net-(J3-Pin_12)*%
X163810000Y-108600000D03*
%TO.P,J3,13,Pin_13*%
%TO.N,Net-(J3-Pin_13)*%
X166350000Y-108600000D03*
%TO.P,J3,14,Pin_14*%
%TO.N,Net-(J3-Pin_14)*%
X168890000Y-108600000D03*
%TO.P,J3,15,Pin_15*%
%TO.N,Net-(J3-Pin_15)*%
X171430000Y-108600000D03*
%TO.P,J3,16,Pin_16*%
%TO.N,Net-(J3-Pin_16)*%
X173970000Y-108600000D03*
%TO.P,J3,17,Pin_17*%
%TO.N,Net-(J3-Pin_17)*%
X176510000Y-108600000D03*
%TO.P,J3,18,Pin_18*%
%TO.N,Net-(J3-Pin_18)*%
X179050000Y-108600000D03*
%TO.P,J3,19,Pin_19*%
%TO.N,Net-(J3-Pin_19)*%
X181590000Y-108600000D03*
%TO.P,J3,20,Pin_20*%
%TO.N,Net-(J3-Pin_20)*%
X184130000Y-108600000D03*
%TD*%
D14*
%TO.N,Net-(J2-Pin_2)*%
X192000000Y-122500000D03*
%TD*%
D15*
%TO.N,Net-(J2-Pin_2)*%
X140800000Y-129000000D02*
X185500000Y-129000000D01*
X185500000Y-129000000D02*
X192000000Y-122500000D01*
X138410000Y-131390000D02*
X140800000Y-129000000D01*
%TO.N,Net-(J1-Pin_8)*%
X194620000Y-118880000D02*
X193430000Y-120070000D01*
X196960000Y-118880000D02*
X194620000Y-118880000D01*
X147985686Y-129434314D02*
X146030000Y-131390000D01*
X186565686Y-129434314D02*
X147985686Y-129434314D01*
X193430000Y-122570000D02*
X186565686Y-129434314D01*
X193430000Y-120070000D02*
X193430000Y-122570000D01*
%TO.N,Net-(J1-Pin_3)*%
X187500000Y-130000000D02*
X149960000Y-130000000D01*
X192390000Y-125110000D02*
X187500000Y-130000000D01*
X149960000Y-130000000D02*
X148570000Y-131390000D01*
X199500000Y-123960000D02*
X198350000Y-125110000D01*
X198350000Y-125110000D02*
X192390000Y-125110000D01*
%TO.N,VCC*%
X196960000Y-126500000D02*
X198110000Y-127650000D01*
X207390000Y-127650000D02*
X208500000Y-126540000D01*
X198110000Y-127650000D02*
X207390000Y-127650000D01*
%TD*%
%TA.AperFunction,Conductor*%
%TO.N,GND*%
G36*
X209004418Y-102500816D02*
G01*
X209204561Y-102515130D01*
X209222063Y-102517647D01*
X209413797Y-102559355D01*
X209430755Y-102564334D01*
X209614609Y-102632909D01*
X209630701Y-102640259D01*
X209802904Y-102734288D01*
X209817784Y-102743849D01*
X209974867Y-102861441D01*
X209988237Y-102873027D01*
X210126972Y-103011762D01*
X210138558Y-103025132D01*
X210256146Y-103182210D01*
X210265711Y-103197095D01*
X210359740Y-103369298D01*
X210367090Y-103385390D01*
X210435662Y-103569236D01*
X210440646Y-103586212D01*
X210482351Y-103777931D01*
X210484869Y-103795442D01*
X210499184Y-103995580D01*
X210499500Y-104004427D01*
X210499500Y-138995572D01*
X210499184Y-139004419D01*
X210484869Y-139204557D01*
X210482351Y-139222068D01*
X210440646Y-139413787D01*
X210435662Y-139430763D01*
X210367090Y-139614609D01*
X210359740Y-139630701D01*
X210265711Y-139802904D01*
X210256146Y-139817789D01*
X210138558Y-139974867D01*
X210126972Y-139988237D01*
X209988237Y-140126972D01*
X209974867Y-140138558D01*
X209817789Y-140256146D01*
X209802904Y-140265711D01*
X209630701Y-140359740D01*
X209614609Y-140367090D01*
X209430763Y-140435662D01*
X209413787Y-140440646D01*
X209222068Y-140482351D01*
X209204557Y-140484869D01*
X209023779Y-140497799D01*
X209004417Y-140499184D01*
X208995572Y-140499500D01*
X136004428Y-140499500D01*
X135995582Y-140499184D01*
X135973622Y-140497613D01*
X135795442Y-140484869D01*
X135777931Y-140482351D01*
X135586212Y-140440646D01*
X135569236Y-140435662D01*
X135385390Y-140367090D01*
X135369298Y-140359740D01*
X135197095Y-140265711D01*
X135182210Y-140256146D01*
X135025132Y-140138558D01*
X135011762Y-140126972D01*
X134873027Y-139988237D01*
X134861441Y-139974867D01*
X134743849Y-139817784D01*
X134734288Y-139802904D01*
X134640259Y-139630701D01*
X134632909Y-139614609D01*
X134572091Y-139451551D01*
X134564334Y-139430755D01*
X134559355Y-139413797D01*
X134517647Y-139222063D01*
X134515130Y-139204556D01*
X134500816Y-139004418D01*
X134500500Y-138995572D01*
X134500500Y-137199095D01*
X134520185Y-137132056D01*
X134572989Y-137086301D01*
X134642147Y-137076357D01*
X134705703Y-137105382D01*
X134726074Y-137127971D01*
X134826505Y-137271401D01*
X134993599Y-137438495D01*
X135090384Y-137506265D01*
X135187165Y-137574032D01*
X135187167Y-137574033D01*
X135187170Y-137574035D01*
X135401337Y-137673903D01*
X135629592Y-137735063D01*
X135806034Y-137750500D01*
X135864999Y-137755659D01*
X135865000Y-137755659D01*
X135865001Y-137755659D01*
X135923966Y-137750500D01*
X136100408Y-137735063D01*
X136328663Y-137673903D01*
X136542830Y-137574035D01*
X136736401Y-137438495D01*
X136903495Y-137271401D01*
X137033425Y-137085842D01*
X137088002Y-137042217D01*
X137157500Y-137035023D01*
X137219855Y-137066546D01*
X137236575Y-137085842D01*
X137315875Y-137199095D01*
X137366505Y-137271401D01*
X137533599Y-137438495D01*
X137630384Y-137506265D01*
X137727165Y-137574032D01*
X137727167Y-137574033D01*
X137727170Y-137574035D01*
X137941337Y-137673903D01*
X138169592Y-137735063D01*
X138346034Y-137750500D01*
X138404999Y-137755659D01*
X138405000Y-137755659D01*
X138405001Y-137755659D01*
X138463966Y-137750500D01*
X138640408Y-137735063D01*
X138868663Y-137673903D01*
X139082830Y-137574035D01*
X139276401Y-137438495D01*
X139443495Y-137271401D01*
X139573425Y-137085842D01*
X139628002Y-137042217D01*
X139697500Y-137035023D01*
X139759855Y-137066546D01*
X139776575Y-137085842D01*
X139855875Y-137199095D01*
X139906505Y-137271401D01*
X140073599Y-137438495D01*
X140170384Y-137506265D01*
X140267165Y-137574032D01*
X140267167Y-137574033D01*
X140267170Y-137574035D01*
X140481337Y-137673903D01*
X140709592Y-137735063D01*
X140886034Y-137750500D01*
X140944999Y-137755659D01*
X140945000Y-137755659D01*
X140945001Y-137755659D01*
X141003966Y-137750500D01*
X141180408Y-137735063D01*
X141408663Y-137673903D01*
X141622830Y-137574035D01*
X141816401Y-137438495D01*
X141983495Y-137271401D01*
X142113425Y-137085842D01*
X142168002Y-137042217D01*
X142237500Y-137035023D01*
X142299855Y-137066546D01*
X142316575Y-137085842D01*
X142395875Y-137199095D01*
X142446505Y-137271401D01*
X142613599Y-137438495D01*
X142710384Y-137506265D01*
X142807165Y-137574032D01*
X142807167Y-137574033D01*
X142807170Y-137574035D01*
X143021337Y-137673903D01*
X143249592Y-137735063D01*
X143426034Y-137750500D01*
X143484999Y-137755659D01*
X143485000Y-137755659D01*
X143485001Y-137755659D01*
X143543966Y-137750500D01*
X143720408Y-137735063D01*
X143948663Y-137673903D01*
X144162830Y-137574035D01*
X144356401Y-137438495D01*
X144523495Y-137271401D01*
X144653425Y-137085842D01*
X144708002Y-137042217D01*
X144777500Y-137035023D01*
X144839855Y-137066546D01*
X144856575Y-137085842D01*
X144935875Y-137199095D01*
X144986505Y-137271401D01*
X145153599Y-137438495D01*
X145250384Y-137506265D01*
X145347165Y-137574032D01*
X145347167Y-137574033D01*
X145347170Y-137574035D01*
X145561337Y-137673903D01*
X145789592Y-137735063D01*
X145966034Y-137750500D01*
X146024999Y-137755659D01*
X146025000Y-137755659D01*
X146025001Y-137755659D01*
X146083966Y-137750500D01*
X146260408Y-137735063D01*
X146488663Y-137673903D01*
X146702830Y-137574035D01*
X146896401Y-137438495D01*
X147063495Y-137271401D01*
X147193425Y-137085842D01*
X147248002Y-137042217D01*
X147317500Y-137035023D01*
X147379855Y-137066546D01*
X147396575Y-137085842D01*
X147475875Y-137199095D01*
X147526505Y-137271401D01*
X147693599Y-137438495D01*
X147790384Y-137506265D01*
X147887165Y-137574032D01*
X147887167Y-137574033D01*
X147887170Y-137574035D01*
X148101337Y-137673903D01*
X148329592Y-137735063D01*
X148506034Y-137750500D01*
X148564999Y-137755659D01*
X148565000Y-137755659D01*
X148565001Y-137755659D01*
X148623966Y-137750500D01*
X148800408Y-137735063D01*
X149028663Y-137673903D01*
X149242830Y-137574035D01*
X149436401Y-137438495D01*
X149603495Y-137271401D01*
X149733425Y-137085842D01*
X149788002Y-137042217D01*
X149857500Y-137035023D01*
X149919855Y-137066546D01*
X149936575Y-137085842D01*
X150015875Y-137199095D01*
X150066505Y-137271401D01*
X150233599Y-137438495D01*
X150330384Y-137506265D01*
X150427165Y-137574032D01*
X150427167Y-137574033D01*
X150427170Y-137574035D01*
X150641337Y-137673903D01*
X150869592Y-137735063D01*
X151046034Y-137750500D01*
X151104999Y-137755659D01*
X151105000Y-137755659D01*
X151105001Y-137755659D01*
X151163966Y-137750500D01*
X151340408Y-137735063D01*
X151568663Y-137673903D01*
X151782830Y-137574035D01*
X151976401Y-137438495D01*
X152143495Y-137271401D01*
X152273425Y-137085842D01*
X152328002Y-137042217D01*
X152397500Y-137035023D01*
X152459855Y-137066546D01*
X152476575Y-137085842D01*
X152555875Y-137199095D01*
X152606505Y-137271401D01*
X152773599Y-137438495D01*
X152870384Y-137506265D01*
X152967165Y-137574032D01*
X152967167Y-137574033D01*
X152967170Y-137574035D01*
X153181337Y-137673903D01*
X153409592Y-137735063D01*
X153586034Y-137750500D01*
X153644999Y-137755659D01*
X153645000Y-137755659D01*
X153645001Y-137755659D01*
X153703966Y-137750500D01*
X153880408Y-137735063D01*
X154108663Y-137673903D01*
X154322830Y-137574035D01*
X154516401Y-137438495D01*
X154683495Y-137271401D01*
X154813425Y-137085842D01*
X154868002Y-137042217D01*
X154937500Y-137035023D01*
X154999855Y-137066546D01*
X155016575Y-137085842D01*
X155095875Y-137199095D01*
X155146505Y-137271401D01*
X155313599Y-137438495D01*
X155410384Y-137506265D01*
X155507165Y-137574032D01*
X155507167Y-137574033D01*
X155507170Y-137574035D01*
X155721337Y-137673903D01*
X155949592Y-137735063D01*
X156126034Y-137750500D01*
X156184999Y-137755659D01*
X156185000Y-137755659D01*
X156185001Y-137755659D01*
X156243966Y-137750500D01*
X156420408Y-137735063D01*
X156648663Y-137673903D01*
X156862830Y-137574035D01*
X157056401Y-137438495D01*
X157223495Y-137271401D01*
X157353425Y-137085842D01*
X157408002Y-137042217D01*
X157477500Y-137035023D01*
X157539855Y-137066546D01*
X157556575Y-137085842D01*
X157635875Y-137199095D01*
X157686505Y-137271401D01*
X157853599Y-137438495D01*
X157950384Y-137506265D01*
X158047165Y-137574032D01*
X158047167Y-137574033D01*
X158047170Y-137574035D01*
X158261337Y-137673903D01*
X158489592Y-137735063D01*
X158666034Y-137750500D01*
X158724999Y-137755659D01*
X158725000Y-137755659D01*
X158725001Y-137755659D01*
X158783966Y-137750500D01*
X158960408Y-137735063D01*
X159188663Y-137673903D01*
X159402830Y-137574035D01*
X159596401Y-137438495D01*
X159763495Y-137271401D01*
X159893425Y-137085842D01*
X159948002Y-137042217D01*
X160017500Y-137035023D01*
X160079855Y-137066546D01*
X160096575Y-137085842D01*
X160175875Y-137199095D01*
X160226505Y-137271401D01*
X160393599Y-137438495D01*
X160490384Y-137506265D01*
X160587165Y-137574032D01*
X160587167Y-137574033D01*
X160587170Y-137574035D01*
X160801337Y-137673903D01*
X161029592Y-137735063D01*
X161206034Y-137750500D01*
X161264999Y-137755659D01*
X161265000Y-137755659D01*
X161265001Y-137755659D01*
X161323966Y-137750500D01*
X161500408Y-137735063D01*
X161728663Y-137673903D01*
X161942830Y-137574035D01*
X162136401Y-137438495D01*
X162303495Y-137271401D01*
X162433425Y-137085842D01*
X162488002Y-137042217D01*
X162557500Y-137035023D01*
X162619855Y-137066546D01*
X162636575Y-137085842D01*
X162715875Y-137199095D01*
X162766505Y-137271401D01*
X162933599Y-137438495D01*
X163030384Y-137506265D01*
X163127165Y-137574032D01*
X163127167Y-137574033D01*
X163127170Y-137574035D01*
X163341337Y-137673903D01*
X163569592Y-137735063D01*
X163746034Y-137750500D01*
X163804999Y-137755659D01*
X163805000Y-137755659D01*
X163805001Y-137755659D01*
X163863966Y-137750500D01*
X164040408Y-137735063D01*
X164268663Y-137673903D01*
X164482830Y-137574035D01*
X164676401Y-137438495D01*
X164843495Y-137271401D01*
X164973425Y-137085842D01*
X165028002Y-137042217D01*
X165097500Y-137035023D01*
X165159855Y-137066546D01*
X165176575Y-137085842D01*
X165255875Y-137199095D01*
X165306505Y-137271401D01*
X165473599Y-137438495D01*
X165570384Y-137506265D01*
X165667165Y-137574032D01*
X165667167Y-137574033D01*
X165667170Y-137574035D01*
X165881337Y-137673903D01*
X166109592Y-137735063D01*
X166286034Y-137750500D01*
X166344999Y-137755659D01*
X166345000Y-137755659D01*
X166345001Y-137755659D01*
X166403966Y-137750500D01*
X166580408Y-137735063D01*
X166808663Y-137673903D01*
X167022830Y-137574035D01*
X167216401Y-137438495D01*
X167383495Y-137271401D01*
X167513425Y-137085842D01*
X167568002Y-137042217D01*
X167637500Y-137035023D01*
X167699855Y-137066546D01*
X167716575Y-137085842D01*
X167795875Y-137199095D01*
X167846505Y-137271401D01*
X168013599Y-137438495D01*
X168110384Y-137506265D01*
X168207165Y-137574032D01*
X168207167Y-137574033D01*
X168207170Y-137574035D01*
X168421337Y-137673903D01*
X168649592Y-137735063D01*
X168826034Y-137750500D01*
X168884999Y-137755659D01*
X168885000Y-137755659D01*
X168885001Y-137755659D01*
X168943966Y-137750500D01*
X169120408Y-137735063D01*
X169348663Y-137673903D01*
X169562830Y-137574035D01*
X169756401Y-137438495D01*
X169923495Y-137271401D01*
X170053425Y-137085842D01*
X170108002Y-137042217D01*
X170177500Y-137035023D01*
X170239855Y-137066546D01*
X170256575Y-137085842D01*
X170335875Y-137199095D01*
X170386505Y-137271401D01*
X170553599Y-137438495D01*
X170650384Y-137506265D01*
X170747165Y-137574032D01*
X170747167Y-137574033D01*
X170747170Y-137574035D01*
X170961337Y-137673903D01*
X171189592Y-137735063D01*
X171366034Y-137750500D01*
X171424999Y-137755659D01*
X171425000Y-137755659D01*
X171425001Y-137755659D01*
X171483966Y-137750500D01*
X171660408Y-137735063D01*
X171888663Y-137673903D01*
X172102830Y-137574035D01*
X172296401Y-137438495D01*
X172463495Y-137271401D01*
X172593425Y-137085842D01*
X172648002Y-137042217D01*
X172717500Y-137035023D01*
X172779855Y-137066546D01*
X172796575Y-137085842D01*
X172875875Y-137199095D01*
X172926505Y-137271401D01*
X173093599Y-137438495D01*
X173190384Y-137506265D01*
X173287165Y-137574032D01*
X173287167Y-137574033D01*
X173287170Y-137574035D01*
X173501337Y-137673903D01*
X173729592Y-137735063D01*
X173906034Y-137750500D01*
X173964999Y-137755659D01*
X173965000Y-137755659D01*
X173965001Y-137755659D01*
X174023966Y-137750500D01*
X174200408Y-137735063D01*
X174428663Y-137673903D01*
X174642830Y-137574035D01*
X174836401Y-137438495D01*
X175003495Y-137271401D01*
X175133425Y-137085842D01*
X175188002Y-137042217D01*
X175257500Y-137035023D01*
X175319855Y-137066546D01*
X175336575Y-137085842D01*
X175415875Y-137199095D01*
X175466505Y-137271401D01*
X175633599Y-137438495D01*
X175730384Y-137506265D01*
X175827165Y-137574032D01*
X175827167Y-137574033D01*
X175827170Y-137574035D01*
X176041337Y-137673903D01*
X176269592Y-137735063D01*
X176446034Y-137750500D01*
X176504999Y-137755659D01*
X176505000Y-137755659D01*
X176505001Y-137755659D01*
X176563966Y-137750500D01*
X176740408Y-137735063D01*
X176968663Y-137673903D01*
X177182830Y-137574035D01*
X177376401Y-137438495D01*
X177543495Y-137271401D01*
X177673425Y-137085842D01*
X177728002Y-137042217D01*
X177797500Y-137035023D01*
X177859855Y-137066546D01*
X177876575Y-137085842D01*
X177955875Y-137199095D01*
X178006505Y-137271401D01*
X178173599Y-137438495D01*
X178270384Y-137506265D01*
X178367165Y-137574032D01*
X178367167Y-137574033D01*
X178367170Y-137574035D01*
X178581337Y-137673903D01*
X178809592Y-137735063D01*
X178986034Y-137750500D01*
X179044999Y-137755659D01*
X179045000Y-137755659D01*
X179045001Y-137755659D01*
X179103966Y-137750500D01*
X179280408Y-137735063D01*
X179508663Y-137673903D01*
X179722830Y-137574035D01*
X179916401Y-137438495D01*
X180083495Y-137271401D01*
X180213425Y-137085842D01*
X180268002Y-137042217D01*
X180337500Y-137035023D01*
X180399855Y-137066546D01*
X180416575Y-137085842D01*
X180495875Y-137199095D01*
X180546505Y-137271401D01*
X180713599Y-137438495D01*
X180810384Y-137506265D01*
X180907165Y-137574032D01*
X180907167Y-137574033D01*
X180907170Y-137574035D01*
X181121337Y-137673903D01*
X181349592Y-137735063D01*
X181526034Y-137750500D01*
X181584999Y-137755659D01*
X181585000Y-137755659D01*
X181585001Y-137755659D01*
X181643966Y-137750500D01*
X181820408Y-137735063D01*
X182048663Y-137673903D01*
X182262830Y-137574035D01*
X182456401Y-137438495D01*
X182578329Y-137316566D01*
X182639648Y-137283084D01*
X182709340Y-137288068D01*
X182765274Y-137329939D01*
X182782189Y-137360917D01*
X182831202Y-137492328D01*
X182831206Y-137492335D01*
X182917452Y-137607544D01*
X182917455Y-137607547D01*
X183032664Y-137693793D01*
X183032671Y-137693797D01*
X183167517Y-137744091D01*
X183167516Y-137744091D01*
X183174444Y-137744835D01*
X183227127Y-137750500D01*
X185022872Y-137750499D01*
X185082483Y-137744091D01*
X185217331Y-137693796D01*
X185332546Y-137607546D01*
X185418796Y-137492331D01*
X185469091Y-137357483D01*
X185475500Y-137297873D01*
X185475499Y-135502128D01*
X185469091Y-135442517D01*
X185467810Y-135439083D01*
X185418797Y-135307671D01*
X185418793Y-135307664D01*
X185332547Y-135192455D01*
X185332544Y-135192452D01*
X185217335Y-135106206D01*
X185217328Y-135106202D01*
X185082482Y-135055908D01*
X185082483Y-135055908D01*
X185022883Y-135049501D01*
X185022881Y-135049500D01*
X185022873Y-135049500D01*
X185022864Y-135049500D01*
X183227129Y-135049500D01*
X183227123Y-135049501D01*
X183167516Y-135055908D01*
X183032671Y-135106202D01*
X183032664Y-135106206D01*
X182917455Y-135192452D01*
X182917452Y-135192455D01*
X182831206Y-135307664D01*
X182831203Y-135307669D01*
X182782189Y-135439083D01*
X182740317Y-135495016D01*
X182674853Y-135519433D01*
X182606580Y-135504581D01*
X182578326Y-135483430D01*
X182456402Y-135361506D01*
X182456395Y-135361501D01*
X182262834Y-135225967D01*
X182262830Y-135225965D01*
X182262828Y-135225964D01*
X182048663Y-135126097D01*
X182048659Y-135126096D01*
X182048655Y-135126094D01*
X181820413Y-135064938D01*
X181820403Y-135064936D01*
X181585001Y-135044341D01*
X181584999Y-135044341D01*
X181349596Y-135064936D01*
X181349586Y-135064938D01*
X181121344Y-135126094D01*
X181121335Y-135126098D01*
X180907171Y-135225964D01*
X180907169Y-135225965D01*
X180713597Y-135361505D01*
X180546505Y-135528597D01*
X180416575Y-135714158D01*
X180361998Y-135757783D01*
X180292500Y-135764977D01*
X180230145Y-135733454D01*
X180213425Y-135714158D01*
X180083494Y-135528597D01*
X179916402Y-135361506D01*
X179916395Y-135361501D01*
X179722834Y-135225967D01*
X179722830Y-135225965D01*
X179722828Y-135225964D01*
X179508663Y-135126097D01*
X179508659Y-135126096D01*
X179508655Y-135126094D01*
X179280413Y-135064938D01*
X179280403Y-135064936D01*
X179045001Y-135044341D01*
X179044999Y-135044341D01*
X178809596Y-135064936D01*
X178809586Y-135064938D01*
X178581344Y-135126094D01*
X178581335Y-135126098D01*
X178367171Y-135225964D01*
X178367169Y-135225965D01*
X178173597Y-135361505D01*
X178006505Y-135528597D01*
X177876575Y-135714158D01*
X177821998Y-135757783D01*
X177752500Y-135764977D01*
X177690145Y-135733454D01*
X177673425Y-135714158D01*
X177543494Y-135528597D01*
X177376402Y-135361506D01*
X177376395Y-135361501D01*
X177182834Y-135225967D01*
X177182830Y-135225965D01*
X177182828Y-135225964D01*
X176968663Y-135126097D01*
X176968659Y-135126096D01*
X176968655Y-135126094D01*
X176740413Y-135064938D01*
X176740403Y-135064936D01*
X176505001Y-135044341D01*
X176504999Y-135044341D01*
X176269596Y-135064936D01*
X176269586Y-135064938D01*
X176041344Y-135126094D01*
X176041335Y-135126098D01*
X175827171Y-135225964D01*
X175827169Y-135225965D01*
X175633597Y-135361505D01*
X175466505Y-135528597D01*
X175336575Y-135714158D01*
X175281998Y-135757783D01*
X175212500Y-135764977D01*
X175150145Y-135733454D01*
X175133425Y-135714158D01*
X175003494Y-135528597D01*
X174836402Y-135361506D01*
X174836395Y-135361501D01*
X174642834Y-135225967D01*
X174642830Y-135225965D01*
X174642828Y-135225964D01*
X174428663Y-135126097D01*
X174428659Y-135126096D01*
X174428655Y-135126094D01*
X174200413Y-135064938D01*
X174200403Y-135064936D01*
X173965001Y-135044341D01*
X173964999Y-135044341D01*
X173729596Y-135064936D01*
X173729586Y-135064938D01*
X173501344Y-135126094D01*
X173501335Y-135126098D01*
X173287171Y-135225964D01*
X173287169Y-135225965D01*
X173093597Y-135361505D01*
X172926505Y-135528597D01*
X172796575Y-135714158D01*
X172741998Y-135757783D01*
X172672500Y-135764977D01*
X172610145Y-135733454D01*
X172593425Y-135714158D01*
X172463494Y-135528597D01*
X172296402Y-135361506D01*
X172296395Y-135361501D01*
X172102834Y-135225967D01*
X172102830Y-135225965D01*
X172102828Y-135225964D01*
X171888663Y-135126097D01*
X171888659Y-135126096D01*
X171888655Y-135126094D01*
X171660413Y-135064938D01*
X171660403Y-135064936D01*
X171425001Y-135044341D01*
X171424999Y-135044341D01*
X171189596Y-135064936D01*
X171189586Y-135064938D01*
X170961344Y-135126094D01*
X170961335Y-135126098D01*
X170747171Y-135225964D01*
X170747169Y-135225965D01*
X170553597Y-135361505D01*
X170386505Y-135528597D01*
X170256575Y-135714158D01*
X170201998Y-135757783D01*
X170132500Y-135764977D01*
X170070145Y-135733454D01*
X170053425Y-135714158D01*
X169923494Y-135528597D01*
X169756402Y-135361506D01*
X169756395Y-135361501D01*
X169562834Y-135225967D01*
X169562830Y-135225965D01*
X169562828Y-135225964D01*
X169348663Y-135126097D01*
X169348659Y-135126096D01*
X169348655Y-135126094D01*
X169120413Y-135064938D01*
X169120403Y-135064936D01*
X168885001Y-135044341D01*
X168884999Y-135044341D01*
X168649596Y-135064936D01*
X168649586Y-135064938D01*
X168421344Y-135126094D01*
X168421335Y-135126098D01*
X168207171Y-135225964D01*
X168207169Y-135225965D01*
X168013597Y-135361505D01*
X167846505Y-135528597D01*
X167716575Y-135714158D01*
X167661998Y-135757783D01*
X167592500Y-135764977D01*
X167530145Y-135733454D01*
X167513425Y-135714158D01*
X167383494Y-135528597D01*
X167216402Y-135361506D01*
X167216395Y-135361501D01*
X167022834Y-135225967D01*
X167022830Y-135225965D01*
X167022828Y-135225964D01*
X166808663Y-135126097D01*
X166808659Y-135126096D01*
X166808655Y-135126094D01*
X166580413Y-135064938D01*
X166580403Y-135064936D01*
X166345001Y-135044341D01*
X166344999Y-135044341D01*
X166109596Y-135064936D01*
X166109586Y-135064938D01*
X165881344Y-135126094D01*
X165881335Y-135126098D01*
X165667171Y-135225964D01*
X165667169Y-135225965D01*
X165473597Y-135361505D01*
X165306505Y-135528597D01*
X165176575Y-135714158D01*
X165121998Y-135757783D01*
X165052500Y-135764977D01*
X164990145Y-135733454D01*
X164973425Y-135714158D01*
X164843494Y-135528597D01*
X164676402Y-135361506D01*
X164676395Y-135361501D01*
X164482834Y-135225967D01*
X164482830Y-135225965D01*
X164482828Y-135225964D01*
X164268663Y-135126097D01*
X164268659Y-135126096D01*
X164268655Y-135126094D01*
X164040413Y-135064938D01*
X164040403Y-135064936D01*
X163805001Y-135044341D01*
X163804999Y-135044341D01*
X163569596Y-135064936D01*
X163569586Y-135064938D01*
X163341344Y-135126094D01*
X163341335Y-135126098D01*
X163127171Y-135225964D01*
X163127169Y-135225965D01*
X162933597Y-135361505D01*
X162766505Y-135528597D01*
X162636575Y-135714158D01*
X162581998Y-135757783D01*
X162512500Y-135764977D01*
X162450145Y-135733454D01*
X162433425Y-135714158D01*
X162303494Y-135528597D01*
X162136402Y-135361506D01*
X162136395Y-135361501D01*
X161942834Y-135225967D01*
X161942830Y-135225965D01*
X161942828Y-135225964D01*
X161728663Y-135126097D01*
X161728659Y-135126096D01*
X161728655Y-135126094D01*
X161500413Y-135064938D01*
X161500403Y-135064936D01*
X161265001Y-135044341D01*
X161264999Y-135044341D01*
X161029596Y-135064936D01*
X161029586Y-135064938D01*
X160801344Y-135126094D01*
X160801335Y-135126098D01*
X160587171Y-135225964D01*
X160587169Y-135225965D01*
X160393597Y-135361505D01*
X160226505Y-135528597D01*
X160096575Y-135714158D01*
X160041998Y-135757783D01*
X159972500Y-135764977D01*
X159910145Y-135733454D01*
X159893425Y-135714158D01*
X159763494Y-135528597D01*
X159596402Y-135361506D01*
X159596395Y-135361501D01*
X159402834Y-135225967D01*
X159402830Y-135225965D01*
X159402828Y-135225964D01*
X159188663Y-135126097D01*
X159188659Y-135126096D01*
X159188655Y-135126094D01*
X158960413Y-135064938D01*
X158960403Y-135064936D01*
X158725001Y-135044341D01*
X158724999Y-135044341D01*
X158489596Y-135064936D01*
X158489586Y-135064938D01*
X158261344Y-135126094D01*
X158261335Y-135126098D01*
X158047171Y-135225964D01*
X158047169Y-135225965D01*
X157853597Y-135361505D01*
X157686505Y-135528597D01*
X157556575Y-135714158D01*
X157501998Y-135757783D01*
X157432500Y-135764977D01*
X157370145Y-135733454D01*
X157353425Y-135714158D01*
X157223494Y-135528597D01*
X157056402Y-135361506D01*
X157056395Y-135361501D01*
X156862834Y-135225967D01*
X156862830Y-135225965D01*
X156862828Y-135225964D01*
X156648663Y-135126097D01*
X156648659Y-135126096D01*
X156648655Y-135126094D01*
X156420413Y-135064938D01*
X156420403Y-135064936D01*
X156185001Y-135044341D01*
X156184999Y-135044341D01*
X155949596Y-135064936D01*
X155949586Y-135064938D01*
X155721344Y-135126094D01*
X155721335Y-135126098D01*
X155507171Y-135225964D01*
X155507169Y-135225965D01*
X155313597Y-135361505D01*
X155146505Y-135528597D01*
X155016575Y-135714158D01*
X154961998Y-135757783D01*
X154892500Y-135764977D01*
X154830145Y-135733454D01*
X154813425Y-135714158D01*
X154683494Y-135528597D01*
X154516402Y-135361506D01*
X154516395Y-135361501D01*
X154322834Y-135225967D01*
X154322830Y-135225965D01*
X154322828Y-135225964D01*
X154108663Y-135126097D01*
X154108659Y-135126096D01*
X154108655Y-135126094D01*
X153880413Y-135064938D01*
X153880403Y-135064936D01*
X153645001Y-135044341D01*
X153644999Y-135044341D01*
X153409596Y-135064936D01*
X153409586Y-135064938D01*
X153181344Y-135126094D01*
X153181335Y-135126098D01*
X152967171Y-135225964D01*
X152967169Y-135225965D01*
X152773597Y-135361505D01*
X152606505Y-135528597D01*
X152476575Y-135714158D01*
X152421998Y-135757783D01*
X152352500Y-135764977D01*
X152290145Y-135733454D01*
X152273425Y-135714158D01*
X152143494Y-135528597D01*
X151976402Y-135361506D01*
X151976395Y-135361501D01*
X151782834Y-135225967D01*
X151782830Y-135225965D01*
X151782828Y-135225964D01*
X151568663Y-135126097D01*
X151568659Y-135126096D01*
X151568655Y-135126094D01*
X151340413Y-135064938D01*
X151340403Y-135064936D01*
X151105001Y-135044341D01*
X151104999Y-135044341D01*
X150869596Y-135064936D01*
X150869586Y-135064938D01*
X150641344Y-135126094D01*
X150641335Y-135126098D01*
X150427171Y-135225964D01*
X150427169Y-135225965D01*
X150233597Y-135361505D01*
X150066505Y-135528597D01*
X149936575Y-135714158D01*
X149881998Y-135757783D01*
X149812500Y-135764977D01*
X149750145Y-135733454D01*
X149733425Y-135714158D01*
X149603494Y-135528597D01*
X149436402Y-135361506D01*
X149436395Y-135361501D01*
X149242834Y-135225967D01*
X149242830Y-135225965D01*
X149242828Y-135225964D01*
X149028663Y-135126097D01*
X149028659Y-135126096D01*
X149028655Y-135126094D01*
X148800413Y-135064938D01*
X148800403Y-135064936D01*
X148565001Y-135044341D01*
X148564999Y-135044341D01*
X148329596Y-135064936D01*
X148329586Y-135064938D01*
X148101344Y-135126094D01*
X148101335Y-135126098D01*
X147887171Y-135225964D01*
X147887169Y-135225965D01*
X147693597Y-135361505D01*
X147526505Y-135528597D01*
X147396575Y-135714158D01*
X147341998Y-135757783D01*
X147272500Y-135764977D01*
X147210145Y-135733454D01*
X147193425Y-135714158D01*
X147063494Y-135528597D01*
X146896402Y-135361506D01*
X146896395Y-135361501D01*
X146702834Y-135225967D01*
X146702830Y-135225965D01*
X146702828Y-135225964D01*
X146488663Y-135126097D01*
X146488659Y-135126096D01*
X146488655Y-135126094D01*
X146260413Y-135064938D01*
X146260403Y-135064936D01*
X146025001Y-135044341D01*
X146024999Y-135044341D01*
X145789596Y-135064936D01*
X145789586Y-135064938D01*
X145561344Y-135126094D01*
X145561335Y-135126098D01*
X145347171Y-135225964D01*
X145347169Y-135225965D01*
X145153597Y-135361505D01*
X144986505Y-135528597D01*
X144856575Y-135714158D01*
X144801998Y-135757783D01*
X144732500Y-135764977D01*
X144670145Y-135733454D01*
X144653425Y-135714158D01*
X144523494Y-135528597D01*
X144356402Y-135361506D01*
X144356395Y-135361501D01*
X144162834Y-135225967D01*
X144162830Y-135225965D01*
X144162828Y-135225964D01*
X143948663Y-135126097D01*
X143948659Y-135126096D01*
X143948655Y-135126094D01*
X143720413Y-135064938D01*
X143720403Y-135064936D01*
X143485001Y-135044341D01*
X143484999Y-135044341D01*
X143249596Y-135064936D01*
X143249586Y-135064938D01*
X143021344Y-135126094D01*
X143021335Y-135126098D01*
X142807171Y-135225964D01*
X142807169Y-135225965D01*
X142613597Y-135361505D01*
X142446505Y-135528597D01*
X142316575Y-135714158D01*
X142261998Y-135757783D01*
X142192500Y-135764977D01*
X142130145Y-135733454D01*
X142113425Y-135714158D01*
X141983494Y-135528597D01*
X141816402Y-135361506D01*
X141816395Y-135361501D01*
X141622834Y-135225967D01*
X141622830Y-135225965D01*
X141622828Y-135225964D01*
X141408663Y-135126097D01*
X141408659Y-135126096D01*
X141408655Y-135126094D01*
X141180413Y-135064938D01*
X141180403Y-135064936D01*
X140945001Y-135044341D01*
X140944999Y-135044341D01*
X140709596Y-135064936D01*
X140709586Y-135064938D01*
X140481344Y-135126094D01*
X140481335Y-135126098D01*
X140267171Y-135225964D01*
X140267169Y-135225965D01*
X140073597Y-135361505D01*
X139906505Y-135528597D01*
X139776575Y-135714158D01*
X139721998Y-135757783D01*
X139652500Y-135764977D01*
X139590145Y-135733454D01*
X139573425Y-135714158D01*
X139443494Y-135528597D01*
X139276402Y-135361506D01*
X139276395Y-135361501D01*
X139082834Y-135225967D01*
X139082830Y-135225965D01*
X139082828Y-135225964D01*
X138868663Y-135126097D01*
X138868659Y-135126096D01*
X138868655Y-135126094D01*
X138640413Y-135064938D01*
X138640403Y-135064936D01*
X138405001Y-135044341D01*
X138404999Y-135044341D01*
X138169596Y-135064936D01*
X138169586Y-135064938D01*
X137941344Y-135126094D01*
X137941335Y-135126098D01*
X137727171Y-135225964D01*
X137727169Y-135225965D01*
X137533597Y-135361505D01*
X137366505Y-135528597D01*
X137236575Y-135714158D01*
X137181998Y-135757783D01*
X137112500Y-135764977D01*
X137050145Y-135733454D01*
X137033425Y-135714158D01*
X136903494Y-135528597D01*
X136736402Y-135361506D01*
X136736395Y-135361501D01*
X136542834Y-135225967D01*
X136542830Y-135225965D01*
X136542828Y-135225964D01*
X136328663Y-135126097D01*
X136328659Y-135126096D01*
X136328655Y-135126094D01*
X136100413Y-135064938D01*
X136100403Y-135064936D01*
X135865001Y-135044341D01*
X135864999Y-135044341D01*
X135629596Y-135064936D01*
X135629586Y-135064938D01*
X135401344Y-135126094D01*
X135401335Y-135126098D01*
X135187171Y-135225964D01*
X135187169Y-135225965D01*
X134993597Y-135361505D01*
X134826505Y-135528597D01*
X134726075Y-135672028D01*
X134671498Y-135715653D01*
X134602000Y-135722847D01*
X134539645Y-135691324D01*
X134504231Y-135631094D01*
X134500500Y-135600905D01*
X134500500Y-132181954D01*
X134520185Y-132114915D01*
X134572989Y-132069160D01*
X134642147Y-132059216D01*
X134705703Y-132088241D01*
X134726073Y-132110829D01*
X134769357Y-132172645D01*
X134831500Y-132261395D01*
X134831505Y-132261401D01*
X134998599Y-132428495D01*
X135095384Y-132496265D01*
X135192165Y-132564032D01*
X135192167Y-132564033D01*
X135192170Y-132564035D01*
X135406337Y-132663903D01*
X135634592Y-132725063D01*
X135811034Y-132740500D01*
X135869999Y-132745659D01*
X135870000Y-132745659D01*
X135870001Y-132745659D01*
X135928966Y-132740500D01*
X136105408Y-132725063D01*
X136333663Y-132663903D01*
X136547830Y-132564035D01*
X136741401Y-132428495D01*
X136908495Y-132261401D01*
X137038425Y-132075842D01*
X137093002Y-132032217D01*
X137162500Y-132025023D01*
X137224855Y-132056546D01*
X137241575Y-132075842D01*
X137371500Y-132261395D01*
X137371505Y-132261401D01*
X137538599Y-132428495D01*
X137635384Y-132496265D01*
X137732165Y-132564032D01*
X137732167Y-132564033D01*
X137732170Y-132564035D01*
X137946337Y-132663903D01*
X138174592Y-132725063D01*
X138351034Y-132740500D01*
X138409999Y-132745659D01*
X138410000Y-132745659D01*
X138410001Y-132745659D01*
X138468966Y-132740500D01*
X138645408Y-132725063D01*
X138873663Y-132663903D01*
X139087830Y-132564035D01*
X139281401Y-132428495D01*
X139403329Y-132306566D01*
X139464648Y-132273084D01*
X139534340Y-132278068D01*
X139590274Y-132319939D01*
X139607189Y-132350917D01*
X139656202Y-132482328D01*
X139656206Y-132482335D01*
X139742452Y-132597544D01*
X139742455Y-132597547D01*
X139857664Y-132683793D01*
X139857671Y-132683797D01*
X139992517Y-132734091D01*
X139992516Y-132734091D01*
X139999444Y-132734835D01*
X140052127Y-132740500D01*
X141847872Y-132740499D01*
X141907483Y-132734091D01*
X142042331Y-132683796D01*
X142157546Y-132597546D01*
X142243796Y-132482331D01*
X142292810Y-132350916D01*
X142334681Y-132294984D01*
X142400145Y-132270566D01*
X142468418Y-132285417D01*
X142496673Y-132306569D01*
X142618599Y-132428495D01*
X142715384Y-132496265D01*
X142812165Y-132564032D01*
X142812167Y-132564033D01*
X142812170Y-132564035D01*
X143026337Y-132663903D01*
X143254592Y-132725063D01*
X143431034Y-132740500D01*
X143489999Y-132745659D01*
X143490000Y-132745659D01*
X143490001Y-132745659D01*
X143548966Y-132740500D01*
X143725408Y-132725063D01*
X143953663Y-132663903D01*
X144167830Y-132564035D01*
X144361401Y-132428495D01*
X144528495Y-132261401D01*
X144658425Y-132075842D01*
X144713002Y-132032217D01*
X144782500Y-132025023D01*
X144844855Y-132056546D01*
X144861575Y-132075842D01*
X144991500Y-132261395D01*
X144991505Y-132261401D01*
X145158599Y-132428495D01*
X145255384Y-132496265D01*
X145352165Y-132564032D01*
X145352167Y-132564033D01*
X145352170Y-132564035D01*
X145566337Y-132663903D01*
X145794592Y-132725063D01*
X145971034Y-132740500D01*
X146029999Y-132745659D01*
X146030000Y-132745659D01*
X146030001Y-132745659D01*
X146088966Y-132740500D01*
X146265408Y-132725063D01*
X146493663Y-132663903D01*
X146707830Y-132564035D01*
X146901401Y-132428495D01*
X147068495Y-132261401D01*
X147198425Y-132075842D01*
X147253002Y-132032217D01*
X147322500Y-132025023D01*
X147384855Y-132056546D01*
X147401575Y-132075842D01*
X147531500Y-132261395D01*
X147531505Y-132261401D01*
X147698599Y-132428495D01*
X147795384Y-132496265D01*
X147892165Y-132564032D01*
X147892167Y-132564033D01*
X147892170Y-132564035D01*
X148106337Y-132663903D01*
X148334592Y-132725063D01*
X148511034Y-132740500D01*
X148569999Y-132745659D01*
X148570000Y-132745659D01*
X148570001Y-132745659D01*
X148628966Y-132740500D01*
X148805408Y-132725063D01*
X149033663Y-132663903D01*
X149247830Y-132564035D01*
X149441401Y-132428495D01*
X149608495Y-132261401D01*
X149738425Y-132075842D01*
X149793002Y-132032217D01*
X149862500Y-132025023D01*
X149924855Y-132056546D01*
X149941575Y-132075842D01*
X150071500Y-132261395D01*
X150071505Y-132261401D01*
X150238599Y-132428495D01*
X150335384Y-132496265D01*
X150432165Y-132564032D01*
X150432167Y-132564033D01*
X150432170Y-132564035D01*
X150646337Y-132663903D01*
X150874592Y-132725063D01*
X151051034Y-132740500D01*
X151109999Y-132745659D01*
X151110000Y-132745659D01*
X151110001Y-132745659D01*
X151168966Y-132740500D01*
X151345408Y-132725063D01*
X151573663Y-132663903D01*
X151787830Y-132564035D01*
X151981401Y-132428495D01*
X152103329Y-132306566D01*
X152164648Y-132273084D01*
X152234340Y-132278068D01*
X152290274Y-132319939D01*
X152307189Y-132350917D01*
X152356202Y-132482328D01*
X152356206Y-132482335D01*
X152442452Y-132597544D01*
X152442455Y-132597547D01*
X152557664Y-132683793D01*
X152557671Y-132683797D01*
X152692517Y-132734091D01*
X152692516Y-132734091D01*
X152699444Y-132734835D01*
X152752127Y-132740500D01*
X154547872Y-132740499D01*
X154607483Y-132734091D01*
X154742331Y-132683796D01*
X154857546Y-132597546D01*
X154943796Y-132482331D01*
X154992810Y-132350916D01*
X155034681Y-132294984D01*
X155100145Y-132270566D01*
X155168418Y-132285417D01*
X155196673Y-132306569D01*
X155318599Y-132428495D01*
X155415384Y-132496265D01*
X155512165Y-132564032D01*
X155512167Y-132564033D01*
X155512170Y-132564035D01*
X155726337Y-132663903D01*
X155954592Y-132725063D01*
X156131034Y-132740500D01*
X156189999Y-132745659D01*
X156190000Y-132745659D01*
X156190001Y-132745659D01*
X156248966Y-132740500D01*
X156425408Y-132725063D01*
X156653663Y-132663903D01*
X156867830Y-132564035D01*
X157061401Y-132428495D01*
X157228495Y-132261401D01*
X157358425Y-132075842D01*
X157413002Y-132032217D01*
X157482500Y-132025023D01*
X157544855Y-132056546D01*
X157561575Y-132075842D01*
X157691500Y-132261395D01*
X157691505Y-132261401D01*
X157858599Y-132428495D01*
X157955384Y-132496265D01*
X158052165Y-132564032D01*
X158052167Y-132564033D01*
X158052170Y-132564035D01*
X158266337Y-132663903D01*
X158494592Y-132725063D01*
X158671034Y-132740500D01*
X158729999Y-132745659D01*
X158730000Y-132745659D01*
X158730001Y-132745659D01*
X158788966Y-132740500D01*
X158965408Y-132725063D01*
X159193663Y-132663903D01*
X159407830Y-132564035D01*
X159601401Y-132428495D01*
X159768495Y-132261401D01*
X159898425Y-132075842D01*
X159953002Y-132032217D01*
X160022500Y-132025023D01*
X160084855Y-132056546D01*
X160101575Y-132075842D01*
X160231500Y-132261395D01*
X160231505Y-132261401D01*
X160398599Y-132428495D01*
X160495384Y-132496265D01*
X160592165Y-132564032D01*
X160592167Y-132564033D01*
X160592170Y-132564035D01*
X160806337Y-132663903D01*
X161034592Y-132725063D01*
X161211034Y-132740500D01*
X161269999Y-132745659D01*
X161270000Y-132745659D01*
X161270001Y-132745659D01*
X161328966Y-132740500D01*
X161505408Y-132725063D01*
X161733663Y-132663903D01*
X161947830Y-132564035D01*
X162141401Y-132428495D01*
X162308495Y-132261401D01*
X162438425Y-132075842D01*
X162493002Y-132032217D01*
X162562500Y-132025023D01*
X162624855Y-132056546D01*
X162641575Y-132075842D01*
X162771500Y-132261395D01*
X162771505Y-132261401D01*
X162938599Y-132428495D01*
X163035384Y-132496265D01*
X163132165Y-132564032D01*
X163132167Y-132564033D01*
X163132170Y-132564035D01*
X163346337Y-132663903D01*
X163574592Y-132725063D01*
X163751034Y-132740500D01*
X163809999Y-132745659D01*
X163810000Y-132745659D01*
X163810001Y-132745659D01*
X163868966Y-132740500D01*
X164045408Y-132725063D01*
X164273663Y-132663903D01*
X164487830Y-132564035D01*
X164681401Y-132428495D01*
X164803329Y-132306566D01*
X164864648Y-132273084D01*
X164934340Y-132278068D01*
X164990274Y-132319939D01*
X165007189Y-132350917D01*
X165056202Y-132482328D01*
X165056206Y-132482335D01*
X165142452Y-132597544D01*
X165142455Y-132597547D01*
X165257664Y-132683793D01*
X165257671Y-132683797D01*
X165392517Y-132734091D01*
X165392516Y-132734091D01*
X165399444Y-132734835D01*
X165452127Y-132740500D01*
X167247872Y-132740499D01*
X167307483Y-132734091D01*
X167442331Y-132683796D01*
X167557546Y-132597546D01*
X167643796Y-132482331D01*
X167692810Y-132350916D01*
X167734681Y-132294984D01*
X167800145Y-132270566D01*
X167868418Y-132285417D01*
X167896673Y-132306569D01*
X168018599Y-132428495D01*
X168115384Y-132496265D01*
X168212165Y-132564032D01*
X168212167Y-132564033D01*
X168212170Y-132564035D01*
X168426337Y-132663903D01*
X168654592Y-132725063D01*
X168831034Y-132740500D01*
X168889999Y-132745659D01*
X168890000Y-132745659D01*
X168890001Y-132745659D01*
X168948966Y-132740500D01*
X169125408Y-132725063D01*
X169353663Y-132663903D01*
X169567830Y-132564035D01*
X169761401Y-132428495D01*
X169928495Y-132261401D01*
X170058425Y-132075842D01*
X170113002Y-132032217D01*
X170182500Y-132025023D01*
X170244855Y-132056546D01*
X170261575Y-132075842D01*
X170391500Y-132261395D01*
X170391505Y-132261401D01*
X170558599Y-132428495D01*
X170655384Y-132496265D01*
X170752165Y-132564032D01*
X170752167Y-132564033D01*
X170752170Y-132564035D01*
X170966337Y-132663903D01*
X171194592Y-132725063D01*
X171371034Y-132740500D01*
X171429999Y-132745659D01*
X171430000Y-132745659D01*
X171430001Y-132745659D01*
X171488966Y-132740500D01*
X171665408Y-132725063D01*
X171893663Y-132663903D01*
X172107830Y-132564035D01*
X172301401Y-132428495D01*
X172468495Y-132261401D01*
X172598425Y-132075842D01*
X172653002Y-132032217D01*
X172722500Y-132025023D01*
X172784855Y-132056546D01*
X172801575Y-132075842D01*
X172931500Y-132261395D01*
X172931505Y-132261401D01*
X173098599Y-132428495D01*
X173195384Y-132496265D01*
X173292165Y-132564032D01*
X173292167Y-132564033D01*
X173292170Y-132564035D01*
X173506337Y-132663903D01*
X173734592Y-132725063D01*
X173911034Y-132740500D01*
X173969999Y-132745659D01*
X173970000Y-132745659D01*
X173970001Y-132745659D01*
X174028966Y-132740500D01*
X174205408Y-132725063D01*
X174433663Y-132663903D01*
X174647830Y-132564035D01*
X174841401Y-132428495D01*
X175008495Y-132261401D01*
X175138425Y-132075842D01*
X175193002Y-132032217D01*
X175262500Y-132025023D01*
X175324855Y-132056546D01*
X175341575Y-132075842D01*
X175471500Y-132261395D01*
X175471505Y-132261401D01*
X175638599Y-132428495D01*
X175735384Y-132496265D01*
X175832165Y-132564032D01*
X175832167Y-132564033D01*
X175832170Y-132564035D01*
X176046337Y-132663903D01*
X176274592Y-132725063D01*
X176451034Y-132740500D01*
X176509999Y-132745659D01*
X176510000Y-132745659D01*
X176510001Y-132745659D01*
X176568966Y-132740500D01*
X176745408Y-132725063D01*
X176973663Y-132663903D01*
X177187830Y-132564035D01*
X177381401Y-132428495D01*
X177503329Y-132306566D01*
X177564648Y-132273084D01*
X177634340Y-132278068D01*
X177690274Y-132319939D01*
X177707189Y-132350917D01*
X177756202Y-132482328D01*
X177756206Y-132482335D01*
X177842452Y-132597544D01*
X177842455Y-132597547D01*
X177957664Y-132683793D01*
X177957671Y-132683797D01*
X178092517Y-132734091D01*
X178092516Y-132734091D01*
X178099444Y-132734835D01*
X178152127Y-132740500D01*
X179947872Y-132740499D01*
X180007483Y-132734091D01*
X180142331Y-132683796D01*
X180257546Y-132597546D01*
X180343796Y-132482331D01*
X180392810Y-132350916D01*
X180434681Y-132294984D01*
X180500145Y-132270566D01*
X180568418Y-132285417D01*
X180596673Y-132306569D01*
X180718599Y-132428495D01*
X180815384Y-132496265D01*
X180912165Y-132564032D01*
X180912167Y-132564033D01*
X180912170Y-132564035D01*
X181126337Y-132663903D01*
X181354592Y-132725063D01*
X181531034Y-132740500D01*
X181589999Y-132745659D01*
X181590000Y-132745659D01*
X181590001Y-132745659D01*
X181648966Y-132740500D01*
X181825408Y-132725063D01*
X182053663Y-132663903D01*
X182267830Y-132564035D01*
X182461401Y-132428495D01*
X182628495Y-132261401D01*
X182758425Y-132075842D01*
X182813002Y-132032217D01*
X182882500Y-132025023D01*
X182944855Y-132056546D01*
X182961575Y-132075842D01*
X183091500Y-132261395D01*
X183091505Y-132261401D01*
X183258599Y-132428495D01*
X183355384Y-132496265D01*
X183452165Y-132564032D01*
X183452167Y-132564033D01*
X183452170Y-132564035D01*
X183666337Y-132663903D01*
X183894592Y-132725063D01*
X184071034Y-132740500D01*
X184129999Y-132745659D01*
X184130000Y-132745659D01*
X184130001Y-132745659D01*
X184188966Y-132740500D01*
X184365408Y-132725063D01*
X184593663Y-132663903D01*
X184807830Y-132564035D01*
X185001401Y-132428495D01*
X185168495Y-132261401D01*
X185304035Y-132067830D01*
X185403903Y-131853663D01*
X185465063Y-131625408D01*
X185485659Y-131390000D01*
X185465063Y-131154592D01*
X185403903Y-130926337D01*
X185334220Y-130776904D01*
X185323729Y-130707828D01*
X185352249Y-130644044D01*
X185410725Y-130605804D01*
X185446603Y-130600500D01*
X187413331Y-130600500D01*
X187413347Y-130600501D01*
X187420943Y-130600501D01*
X187579054Y-130600501D01*
X187579057Y-130600501D01*
X187731785Y-130559577D01*
X187781904Y-130530639D01*
X187868716Y-130480520D01*
X187980520Y-130368716D01*
X187980520Y-130368714D01*
X187990728Y-130358507D01*
X187990729Y-130358504D01*
X192602416Y-125746819D01*
X192663739Y-125713334D01*
X192690097Y-125710500D01*
X195643397Y-125710500D01*
X195710436Y-125730185D01*
X195756191Y-125782989D01*
X195766135Y-125852147D01*
X195755779Y-125886905D01*
X195686097Y-126036335D01*
X195686094Y-126036344D01*
X195624938Y-126264586D01*
X195624936Y-126264596D01*
X195604341Y-126499999D01*
X195604341Y-126500000D01*
X195624936Y-126735403D01*
X195624938Y-126735413D01*
X195686094Y-126963655D01*
X195686096Y-126963659D01*
X195686097Y-126963663D01*
X195720898Y-127038294D01*
X195785965Y-127177830D01*
X195785967Y-127177834D01*
X195894281Y-127332521D01*
X195921505Y-127371401D01*
X196088599Y-127538495D01*
X196185384Y-127606265D01*
X196282165Y-127674032D01*
X196282167Y-127674033D01*
X196282170Y-127674035D01*
X196496337Y-127773903D01*
X196724592Y-127835063D01*
X196912918Y-127851539D01*
X196959999Y-127855659D01*
X196960000Y-127855659D01*
X196960001Y-127855659D01*
X196999234Y-127852226D01*
X197195408Y-127835063D01*
X197323756Y-127800672D01*
X197393605Y-127802335D01*
X197443530Y-127832766D01*
X197741284Y-128130520D01*
X197741286Y-128130521D01*
X197741290Y-128130524D01*
X197878209Y-128209573D01*
X197878216Y-128209577D01*
X198030943Y-128250501D01*
X198030945Y-128250501D01*
X198196654Y-128250501D01*
X198196670Y-128250500D01*
X207303331Y-128250500D01*
X207303347Y-128250501D01*
X207310943Y-128250501D01*
X207469054Y-128250501D01*
X207469057Y-128250501D01*
X207621785Y-128209577D01*
X207671904Y-128180639D01*
X207758716Y-128130520D01*
X207870520Y-128018716D01*
X207870521Y-128018713D01*
X207962418Y-127926815D01*
X208023740Y-127893333D01*
X208050097Y-127890499D01*
X209397871Y-127890499D01*
X209397872Y-127890499D01*
X209457483Y-127884091D01*
X209592331Y-127833796D01*
X209707546Y-127747546D01*
X209793796Y-127632331D01*
X209844091Y-127497483D01*
X209850500Y-127437873D01*
X209850499Y-125642128D01*
X209844091Y-125582517D01*
X209843401Y-125580668D01*
X209793797Y-125447671D01*
X209793793Y-125447664D01*
X209707547Y-125332455D01*
X209707544Y-125332452D01*
X209592335Y-125246206D01*
X209592328Y-125246202D01*
X209460917Y-125197189D01*
X209404983Y-125155318D01*
X209380566Y-125089853D01*
X209395418Y-125021580D01*
X209416563Y-124993332D01*
X209538495Y-124871401D01*
X209674035Y-124677830D01*
X209773903Y-124463663D01*
X209835063Y-124235408D01*
X209855659Y-124000000D01*
X209835063Y-123764592D01*
X209773903Y-123536337D01*
X209674035Y-123322171D01*
X209653928Y-123293454D01*
X209538494Y-123128597D01*
X209371402Y-122961506D01*
X209371396Y-122961501D01*
X209185842Y-122831575D01*
X209142217Y-122776998D01*
X209135023Y-122707500D01*
X209166546Y-122645145D01*
X209185842Y-122628425D01*
X209242968Y-122588425D01*
X209371401Y-122498495D01*
X209538495Y-122331401D01*
X209674035Y-122137830D01*
X209773903Y-121923663D01*
X209835063Y-121695408D01*
X209855659Y-121460000D01*
X209835063Y-121224592D01*
X209773903Y-120996337D01*
X209674035Y-120782171D01*
X209653928Y-120753454D01*
X209538494Y-120588597D01*
X209371402Y-120421506D01*
X209371401Y-120421505D01*
X209185405Y-120291269D01*
X209141781Y-120236692D01*
X209134588Y-120167193D01*
X209166110Y-120104839D01*
X209185405Y-120088119D01*
X209371082Y-119958105D01*
X209538105Y-119791082D01*
X209673600Y-119597578D01*
X209773429Y-119383492D01*
X209773432Y-119383486D01*
X209830636Y-119170000D01*
X208933012Y-119170000D01*
X208965925Y-119112993D01*
X209000000Y-118985826D01*
X209000000Y-118854174D01*
X208965925Y-118727007D01*
X208933012Y-118670000D01*
X209830636Y-118670000D01*
X209830635Y-118669999D01*
X209773432Y-118456513D01*
X209773429Y-118456507D01*
X209673600Y-118242422D01*
X209673599Y-118242420D01*
X209538113Y-118048926D01*
X209538108Y-118048920D01*
X209371082Y-117881894D01*
X209177578Y-117746399D01*
X208963492Y-117646570D01*
X208963486Y-117646567D01*
X208750000Y-117589364D01*
X208750000Y-118486988D01*
X208692993Y-118454075D01*
X208565826Y-118420000D01*
X208434174Y-118420000D01*
X208307007Y-118454075D01*
X208250000Y-118486988D01*
X208250000Y-117589364D01*
X208249999Y-117589364D01*
X208036513Y-117646567D01*
X208036507Y-117646570D01*
X207822422Y-117746399D01*
X207822420Y-117746400D01*
X207628926Y-117881886D01*
X207628920Y-117881891D01*
X207461891Y-118048920D01*
X207461886Y-118048926D01*
X207326400Y-118242420D01*
X207326399Y-118242422D01*
X207226570Y-118456507D01*
X207226567Y-118456513D01*
X207169364Y-118669999D01*
X207169364Y-118670000D01*
X208066988Y-118670000D01*
X208034075Y-118727007D01*
X208000000Y-118854174D01*
X208000000Y-118985826D01*
X208034075Y-119112993D01*
X208066988Y-119170000D01*
X207169364Y-119170000D01*
X207226567Y-119383486D01*
X207226570Y-119383492D01*
X207326399Y-119597578D01*
X207461894Y-119791082D01*
X207628917Y-119958105D01*
X207814595Y-120088119D01*
X207858219Y-120142696D01*
X207865412Y-120212195D01*
X207833890Y-120274549D01*
X207814595Y-120291269D01*
X207628594Y-120421508D01*
X207461505Y-120588597D01*
X207325965Y-120782169D01*
X207325964Y-120782171D01*
X207226098Y-120996335D01*
X207226094Y-120996344D01*
X207164938Y-121224586D01*
X207164936Y-121224596D01*
X207144341Y-121459999D01*
X207144341Y-121460000D01*
X207164936Y-121695403D01*
X207164938Y-121695413D01*
X207226094Y-121923655D01*
X207226096Y-121923659D01*
X207226097Y-121923663D01*
X207290706Y-122062217D01*
X207325965Y-122137830D01*
X207325967Y-122137834D01*
X207461501Y-122331395D01*
X207461506Y-122331402D01*
X207628597Y-122498493D01*
X207628603Y-122498498D01*
X207814158Y-122628425D01*
X207857783Y-122683002D01*
X207864977Y-122752500D01*
X207833454Y-122814855D01*
X207814158Y-122831575D01*
X207628597Y-122961505D01*
X207461505Y-123128597D01*
X207325965Y-123322169D01*
X207325964Y-123322171D01*
X207226098Y-123536335D01*
X207226094Y-123536344D01*
X207164938Y-123764586D01*
X207164936Y-123764596D01*
X207144341Y-123999999D01*
X207144341Y-124000000D01*
X207164936Y-124235403D01*
X207164938Y-124235413D01*
X207226094Y-124463655D01*
X207226096Y-124463659D01*
X207226097Y-124463663D01*
X207269224Y-124556149D01*
X207325965Y-124677830D01*
X207325967Y-124677834D01*
X207433492Y-124831395D01*
X207461501Y-124871396D01*
X207461506Y-124871402D01*
X207583430Y-124993326D01*
X207616915Y-125054649D01*
X207611931Y-125124341D01*
X207570059Y-125180274D01*
X207539083Y-125197189D01*
X207407669Y-125246203D01*
X207407664Y-125246206D01*
X207292455Y-125332452D01*
X207292452Y-125332455D01*
X207206206Y-125447664D01*
X207206202Y-125447671D01*
X207155908Y-125582517D01*
X207149501Y-125642116D01*
X207149501Y-125642123D01*
X207149500Y-125642135D01*
X207149500Y-126925500D01*
X207129815Y-126992539D01*
X207077011Y-127038294D01*
X207025500Y-127049500D01*
X200974500Y-127049500D01*
X200907461Y-127029815D01*
X200861706Y-126977011D01*
X200850500Y-126925500D01*
X200850499Y-125849998D01*
X200850498Y-125849981D01*
X200839999Y-125747203D01*
X200839998Y-125747200D01*
X200818161Y-125681300D01*
X200784814Y-125580666D01*
X200692712Y-125431344D01*
X200568656Y-125307288D01*
X200469626Y-125246206D01*
X200419336Y-125215187D01*
X200419331Y-125215185D01*
X200419215Y-125215146D01*
X200410733Y-125212336D01*
X200353290Y-125172564D01*
X200326467Y-125108048D01*
X200338782Y-125039272D01*
X200367767Y-125002517D01*
X200367573Y-125002323D01*
X200369219Y-125000676D01*
X200370040Y-124999636D01*
X200371388Y-124998504D01*
X200371401Y-124998495D01*
X200538495Y-124831401D01*
X200674035Y-124637830D01*
X200773903Y-124423663D01*
X200835063Y-124195408D01*
X200855659Y-123960000D01*
X200835063Y-123724592D01*
X200773903Y-123496337D01*
X200674035Y-123282171D01*
X200668425Y-123274158D01*
X200538494Y-123088597D01*
X200371402Y-122921506D01*
X200371396Y-122921501D01*
X200185842Y-122791575D01*
X200142217Y-122736998D01*
X200135023Y-122667500D01*
X200166546Y-122605145D01*
X200185842Y-122588425D01*
X200208026Y-122572891D01*
X200371401Y-122458495D01*
X200538495Y-122291401D01*
X200674035Y-122097830D01*
X200773903Y-121883663D01*
X200835063Y-121655408D01*
X200855659Y-121420000D01*
X200835063Y-121184592D01*
X200773903Y-120956337D01*
X200674035Y-120742171D01*
X200668425Y-120734158D01*
X200538494Y-120548597D01*
X200371402Y-120381506D01*
X200371401Y-120381505D01*
X200185405Y-120251269D01*
X200141781Y-120196692D01*
X200134588Y-120127193D01*
X200166110Y-120064839D01*
X200185405Y-120048119D01*
X200261373Y-119994925D01*
X199629409Y-119362962D01*
X199692993Y-119345925D01*
X199807007Y-119280099D01*
X199900099Y-119187007D01*
X199965925Y-119072993D01*
X199982962Y-119009410D01*
X200614925Y-119641373D01*
X200614926Y-119641373D01*
X200673598Y-119557582D01*
X200673600Y-119557578D01*
X200773429Y-119343492D01*
X200773433Y-119343483D01*
X200834567Y-119115326D01*
X200834569Y-119115315D01*
X200855157Y-118880001D01*
X200855157Y-118879998D01*
X200834569Y-118644684D01*
X200834567Y-118644673D01*
X200773433Y-118416516D01*
X200773429Y-118416507D01*
X200673600Y-118202423D01*
X200673599Y-118202421D01*
X200614925Y-118118626D01*
X200614925Y-118118625D01*
X199982962Y-118750589D01*
X199965925Y-118687007D01*
X199900099Y-118572993D01*
X199807007Y-118479901D01*
X199692993Y-118414075D01*
X199629410Y-118397037D01*
X200261373Y-117765073D01*
X200261373Y-117765072D01*
X200177583Y-117706402D01*
X200177579Y-117706400D01*
X199963492Y-117606570D01*
X199963483Y-117606566D01*
X199735326Y-117545432D01*
X199735315Y-117545430D01*
X199500002Y-117524843D01*
X199499998Y-117524843D01*
X199264684Y-117545430D01*
X199264673Y-117545432D01*
X199036516Y-117606566D01*
X199036507Y-117606570D01*
X198822419Y-117706401D01*
X198738625Y-117765072D01*
X199370590Y-118397037D01*
X199307007Y-118414075D01*
X199192993Y-118479901D01*
X199099901Y-118572993D01*
X199034075Y-118687007D01*
X199017037Y-118750590D01*
X198385073Y-118118626D01*
X198331881Y-118194594D01*
X198277304Y-118238219D01*
X198207806Y-118245413D01*
X198145451Y-118213891D01*
X198128730Y-118194594D01*
X197998494Y-118008597D01*
X197831402Y-117841506D01*
X197831395Y-117841501D01*
X197637834Y-117705967D01*
X197637830Y-117705965D01*
X197510457Y-117646570D01*
X197423663Y-117606097D01*
X197423659Y-117606096D01*
X197423655Y-117606094D01*
X197195413Y-117544938D01*
X197195403Y-117544936D01*
X196960001Y-117524341D01*
X196959999Y-117524341D01*
X196724596Y-117544936D01*
X196724586Y-117544938D01*
X196496344Y-117606094D01*
X196496335Y-117606098D01*
X196282171Y-117705964D01*
X196282169Y-117705965D01*
X196088597Y-117841505D01*
X195921506Y-118008596D01*
X195785965Y-118202170D01*
X195785962Y-118202175D01*
X195783289Y-118207909D01*
X195737115Y-118260346D01*
X195670909Y-118279500D01*
X194699057Y-118279500D01*
X194540943Y-118279500D01*
X194388215Y-118320423D01*
X194388214Y-118320423D01*
X194388212Y-118320424D01*
X194388209Y-118320425D01*
X194338096Y-118349359D01*
X194338095Y-118349360D01*
X194294689Y-118374420D01*
X194251285Y-118399479D01*
X194251282Y-118399481D01*
X192949482Y-119701281D01*
X192949478Y-119701287D01*
X192902206Y-119783165D01*
X192870424Y-119838212D01*
X192870423Y-119838213D01*
X192865384Y-119857020D01*
X192829499Y-119990943D01*
X192829499Y-119990945D01*
X192829499Y-120159046D01*
X192829500Y-120159059D01*
X192829500Y-121898060D01*
X192809815Y-121965099D01*
X192757011Y-122010854D01*
X192687853Y-122020798D01*
X192624297Y-121991773D01*
X192617819Y-121985741D01*
X192502262Y-121870184D01*
X192349523Y-121774211D01*
X192179254Y-121714631D01*
X192179249Y-121714630D01*
X192000004Y-121694435D01*
X191999996Y-121694435D01*
X191820750Y-121714630D01*
X191820745Y-121714631D01*
X191650476Y-121774211D01*
X191497737Y-121870184D01*
X191370184Y-121997737D01*
X191274210Y-122150478D01*
X191214630Y-122320750D01*
X191204837Y-122407668D01*
X191177770Y-122472082D01*
X191169298Y-122481465D01*
X185287584Y-128363181D01*
X185226261Y-128396666D01*
X185199903Y-128399500D01*
X140720940Y-128399500D01*
X140680019Y-128410464D01*
X140680019Y-128410465D01*
X140642751Y-128420451D01*
X140568214Y-128440423D01*
X140568209Y-128440426D01*
X140431290Y-128519475D01*
X140431282Y-128519481D01*
X140319478Y-128631286D01*
X138893530Y-130057233D01*
X138832207Y-130090718D01*
X138773756Y-130089327D01*
X138645413Y-130054938D01*
X138645403Y-130054936D01*
X138410001Y-130034341D01*
X138409999Y-130034341D01*
X138174596Y-130054936D01*
X138174586Y-130054938D01*
X137946344Y-130116094D01*
X137946335Y-130116098D01*
X137732171Y-130215964D01*
X137732169Y-130215965D01*
X137538597Y-130351505D01*
X137371505Y-130518597D01*
X137241575Y-130704158D01*
X137186998Y-130747783D01*
X137117500Y-130754977D01*
X137055145Y-130723454D01*
X137038425Y-130704158D01*
X136908494Y-130518597D01*
X136741402Y-130351506D01*
X136741395Y-130351501D01*
X136547834Y-130215967D01*
X136547830Y-130215965D01*
X136547828Y-130215964D01*
X136333663Y-130116097D01*
X136333659Y-130116096D01*
X136333655Y-130116094D01*
X136105413Y-130054938D01*
X136105403Y-130054936D01*
X135870001Y-130034341D01*
X135869999Y-130034341D01*
X135634596Y-130054936D01*
X135634586Y-130054938D01*
X135406344Y-130116094D01*
X135406335Y-130116098D01*
X135192171Y-130215964D01*
X135192169Y-130215965D01*
X134998597Y-130351505D01*
X134831505Y-130518597D01*
X134726075Y-130669168D01*
X134671498Y-130712793D01*
X134602000Y-130719986D01*
X134539645Y-130688464D01*
X134504231Y-130628234D01*
X134500500Y-130598045D01*
X134500500Y-125884340D01*
X134520185Y-125817301D01*
X134572989Y-125771546D01*
X134642147Y-125761602D01*
X134705703Y-125790627D01*
X134738056Y-125834530D01*
X134764075Y-125893848D01*
X134891016Y-126088147D01*
X134891019Y-126088151D01*
X134891021Y-126088153D01*
X135048216Y-126258913D01*
X135048219Y-126258915D01*
X135048222Y-126258918D01*
X135231365Y-126401464D01*
X135231371Y-126401468D01*
X135231374Y-126401470D01*
X135435497Y-126511936D01*
X135549487Y-126551068D01*
X135655015Y-126587297D01*
X135655017Y-126587297D01*
X135655019Y-126587298D01*
X135883951Y-126625500D01*
X135883952Y-126625500D01*
X136116048Y-126625500D01*
X136116049Y-126625500D01*
X136344981Y-126587298D01*
X136564503Y-126511936D01*
X136768626Y-126401470D01*
X136802557Y-126375061D01*
X136881130Y-126313905D01*
X136951784Y-126258913D01*
X137108979Y-126088153D01*
X137235924Y-125893849D01*
X137329157Y-125681300D01*
X137386134Y-125456305D01*
X137386135Y-125456297D01*
X137405300Y-125225006D01*
X137405300Y-125224993D01*
X137386135Y-124993702D01*
X137386133Y-124993691D01*
X137368737Y-124924997D01*
X137774723Y-124924997D01*
X137774723Y-124925002D01*
X137793793Y-125142975D01*
X137793793Y-125142979D01*
X137850422Y-125354322D01*
X137850424Y-125354326D01*
X137850425Y-125354330D01*
X137886336Y-125431342D01*
X137942897Y-125552638D01*
X137942898Y-125552639D01*
X138068402Y-125731877D01*
X138223123Y-125886598D01*
X138402361Y-126012102D01*
X138600670Y-126104575D01*
X138812023Y-126161207D01*
X138994926Y-126177208D01*
X139029998Y-126180277D01*
X139030000Y-126180277D01*
X139030002Y-126180277D01*
X139058254Y-126177805D01*
X139247977Y-126161207D01*
X139459330Y-126104575D01*
X139657639Y-126012102D01*
X139836877Y-125886598D01*
X139991598Y-125731877D01*
X140117102Y-125552639D01*
X140209575Y-125354330D01*
X140266207Y-125142977D01*
X140285277Y-124925000D01*
X140266207Y-124707023D01*
X140209575Y-124495670D01*
X140117102Y-124297362D01*
X140117100Y-124297359D01*
X140117099Y-124297357D01*
X139991599Y-124118124D01*
X139920148Y-124046673D01*
X139836877Y-123963402D01*
X139688811Y-123859725D01*
X139657638Y-123837897D01*
X139500442Y-123764596D01*
X139459330Y-123745425D01*
X139459326Y-123745424D01*
X139459322Y-123745422D01*
X139247977Y-123688793D01*
X139030002Y-123669723D01*
X139029998Y-123669723D01*
X138884682Y-123682436D01*
X138812023Y-123688793D01*
X138812020Y-123688793D01*
X138600677Y-123745422D01*
X138600668Y-123745426D01*
X138402361Y-123837898D01*
X138402357Y-123837900D01*
X138223121Y-123963402D01*
X138068402Y-124118121D01*
X137942900Y-124297357D01*
X137942898Y-124297361D01*
X137850426Y-124495668D01*
X137850422Y-124495677D01*
X137793793Y-124707020D01*
X137793793Y-124707024D01*
X137774723Y-124924997D01*
X137368737Y-124924997D01*
X137329157Y-124768699D01*
X137235924Y-124556151D01*
X137108983Y-124361852D01*
X137108980Y-124361849D01*
X137108979Y-124361847D01*
X136951784Y-124191087D01*
X136951779Y-124191083D01*
X136951777Y-124191081D01*
X136768634Y-124048535D01*
X136768628Y-124048531D01*
X136564504Y-123938064D01*
X136564495Y-123938061D01*
X136344984Y-123862702D01*
X136173282Y-123834050D01*
X136116049Y-123824500D01*
X135883951Y-123824500D01*
X135838164Y-123832140D01*
X135655015Y-123862702D01*
X135435504Y-123938061D01*
X135435495Y-123938064D01*
X135231371Y-124048531D01*
X135231365Y-124048535D01*
X135048222Y-124191081D01*
X135048219Y-124191084D01*
X134891016Y-124361852D01*
X134764076Y-124556149D01*
X134738056Y-124615470D01*
X134693099Y-124668955D01*
X134626363Y-124689645D01*
X134559035Y-124670970D01*
X134512492Y-124618859D01*
X134500500Y-124565659D01*
X134500500Y-120434340D01*
X134520185Y-120367301D01*
X134572989Y-120321546D01*
X134642147Y-120311602D01*
X134705703Y-120340627D01*
X134738056Y-120384530D01*
X134764075Y-120443848D01*
X134891016Y-120638147D01*
X134891019Y-120638151D01*
X134891021Y-120638153D01*
X135048216Y-120808913D01*
X135048219Y-120808915D01*
X135048222Y-120808918D01*
X135231365Y-120951464D01*
X135231371Y-120951468D01*
X135231374Y-120951470D01*
X135435497Y-121061936D01*
X135500761Y-121084341D01*
X135655015Y-121137297D01*
X135655017Y-121137297D01*
X135655019Y-121137298D01*
X135883951Y-121175500D01*
X135883952Y-121175500D01*
X136116048Y-121175500D01*
X136116049Y-121175500D01*
X136344981Y-121137298D01*
X136564503Y-121061936D01*
X136768626Y-120951470D01*
X136951784Y-120808913D01*
X137108979Y-120638153D01*
X137235924Y-120443849D01*
X137329157Y-120231300D01*
X137368739Y-120074997D01*
X137774723Y-120074997D01*
X137774723Y-120075002D01*
X137779092Y-120124937D01*
X137785257Y-120195413D01*
X137793793Y-120292975D01*
X137793793Y-120292979D01*
X137850422Y-120504322D01*
X137850424Y-120504326D01*
X137850425Y-120504330D01*
X137871067Y-120548597D01*
X137942897Y-120702638D01*
X137942898Y-120702639D01*
X138068402Y-120881877D01*
X138223123Y-121036598D01*
X138402361Y-121162102D01*
X138600670Y-121254575D01*
X138812023Y-121311207D01*
X138994926Y-121327208D01*
X139029998Y-121330277D01*
X139030000Y-121330277D01*
X139030002Y-121330277D01*
X139058254Y-121327805D01*
X139247977Y-121311207D01*
X139459330Y-121254575D01*
X139657639Y-121162102D01*
X139836877Y-121036598D01*
X139991598Y-120881877D01*
X140117102Y-120702639D01*
X140209575Y-120504330D01*
X140266207Y-120292977D01*
X140285277Y-120075000D01*
X140284344Y-120064341D01*
X140279266Y-120006297D01*
X140275216Y-119959999D01*
X182544341Y-119959999D01*
X182544341Y-119960000D01*
X182564936Y-120195403D01*
X182564938Y-120195413D01*
X182626094Y-120423655D01*
X182626096Y-120423659D01*
X182626097Y-120423663D01*
X182684355Y-120548597D01*
X182725965Y-120637830D01*
X182725967Y-120637834D01*
X182834281Y-120792521D01*
X182861501Y-120831396D01*
X182861506Y-120831402D01*
X182983430Y-120953326D01*
X183016915Y-121014649D01*
X183011931Y-121084341D01*
X182970059Y-121140274D01*
X182939083Y-121157189D01*
X182807669Y-121206203D01*
X182807664Y-121206206D01*
X182692455Y-121292452D01*
X182692452Y-121292455D01*
X182606206Y-121407664D01*
X182606202Y-121407671D01*
X182555908Y-121542517D01*
X182549501Y-121602116D01*
X182549501Y-121602123D01*
X182549500Y-121602135D01*
X182549500Y-123397870D01*
X182549501Y-123397876D01*
X182555908Y-123457483D01*
X182606202Y-123592328D01*
X182606206Y-123592335D01*
X182692452Y-123707544D01*
X182692455Y-123707547D01*
X182807664Y-123793793D01*
X182807671Y-123793797D01*
X182939081Y-123842810D01*
X182995015Y-123884681D01*
X183019432Y-123950145D01*
X183004580Y-124018418D01*
X182983430Y-124046673D01*
X182861503Y-124168600D01*
X182725965Y-124362169D01*
X182725964Y-124362171D01*
X182626098Y-124576335D01*
X182626094Y-124576344D01*
X182564938Y-124804586D01*
X182564936Y-124804596D01*
X182544341Y-125039999D01*
X182544341Y-125040000D01*
X182564936Y-125275403D01*
X182564938Y-125275413D01*
X182626094Y-125503655D01*
X182626096Y-125503659D01*
X182626097Y-125503663D01*
X182690665Y-125642129D01*
X182725965Y-125717830D01*
X182725967Y-125717834D01*
X182776938Y-125790627D01*
X182861505Y-125911401D01*
X183028599Y-126078495D01*
X183065848Y-126104577D01*
X183222165Y-126214032D01*
X183222167Y-126214033D01*
X183222170Y-126214035D01*
X183436337Y-126313903D01*
X183664592Y-126375063D01*
X183852918Y-126391539D01*
X183899999Y-126395659D01*
X183900000Y-126395659D01*
X183900001Y-126395659D01*
X183939234Y-126392226D01*
X184135408Y-126375063D01*
X184363663Y-126313903D01*
X184577830Y-126214035D01*
X184771401Y-126078495D01*
X184938495Y-125911401D01*
X185074035Y-125717830D01*
X185173903Y-125503663D01*
X185235063Y-125275408D01*
X185255659Y-125040000D01*
X185235063Y-124804592D01*
X185173903Y-124576337D01*
X185074035Y-124362171D01*
X185073808Y-124361847D01*
X184938496Y-124168600D01*
X184888017Y-124118121D01*
X184816567Y-124046671D01*
X184783084Y-123985351D01*
X184788068Y-123915659D01*
X184829939Y-123859725D01*
X184860915Y-123842810D01*
X184992331Y-123793796D01*
X185107546Y-123707546D01*
X185193796Y-123592331D01*
X185244091Y-123457483D01*
X185250500Y-123397873D01*
X185250499Y-121602128D01*
X185244091Y-121542517D01*
X185193796Y-121407669D01*
X185193795Y-121407668D01*
X185193793Y-121407664D01*
X185107547Y-121292455D01*
X185107544Y-121292452D01*
X184992335Y-121206206D01*
X184992328Y-121206202D01*
X184860917Y-121157189D01*
X184804983Y-121115318D01*
X184780566Y-121049853D01*
X184795418Y-120981580D01*
X184816563Y-120953332D01*
X184938495Y-120831401D01*
X185074035Y-120637830D01*
X185173903Y-120423663D01*
X185235063Y-120195408D01*
X185255659Y-119960000D01*
X185235063Y-119724592D01*
X185173903Y-119496337D01*
X185074035Y-119282171D01*
X185072585Y-119280099D01*
X184938494Y-119088597D01*
X184771402Y-118921506D01*
X184771395Y-118921501D01*
X184577834Y-118785967D01*
X184577830Y-118785965D01*
X184481589Y-118741087D01*
X184363663Y-118686097D01*
X184363659Y-118686096D01*
X184363655Y-118686094D01*
X184135413Y-118624938D01*
X184135403Y-118624936D01*
X183900001Y-118604341D01*
X183899999Y-118604341D01*
X183664596Y-118624936D01*
X183664586Y-118624938D01*
X183436344Y-118686094D01*
X183436335Y-118686098D01*
X183222171Y-118785964D01*
X183222169Y-118785965D01*
X183028597Y-118921505D01*
X182861505Y-119088597D01*
X182725965Y-119282169D01*
X182725964Y-119282171D01*
X182626098Y-119496335D01*
X182626094Y-119496344D01*
X182564938Y-119724586D01*
X182564936Y-119724596D01*
X182544341Y-119959999D01*
X140275216Y-119959999D01*
X140266207Y-119857023D01*
X140209575Y-119645670D01*
X140117102Y-119447362D01*
X140117100Y-119447359D01*
X140117099Y-119447357D01*
X139991599Y-119268124D01*
X139942430Y-119218955D01*
X139836877Y-119113402D01*
X139657639Y-118987898D01*
X139657640Y-118987898D01*
X139657638Y-118987897D01*
X139558484Y-118941661D01*
X139459330Y-118895425D01*
X139459326Y-118895424D01*
X139459322Y-118895422D01*
X139247977Y-118838793D01*
X139030002Y-118819723D01*
X139029998Y-118819723D01*
X138884682Y-118832436D01*
X138812023Y-118838793D01*
X138812020Y-118838793D01*
X138600677Y-118895422D01*
X138600668Y-118895426D01*
X138402361Y-118987898D01*
X138402357Y-118987900D01*
X138223121Y-119113402D01*
X138068402Y-119268121D01*
X137942900Y-119447357D01*
X137942898Y-119447361D01*
X137850426Y-119645668D01*
X137850422Y-119645677D01*
X137793793Y-119857020D01*
X137793793Y-119857024D01*
X137774723Y-120074997D01*
X137368739Y-120074997D01*
X137386134Y-120006305D01*
X137393410Y-119918495D01*
X137405300Y-119775006D01*
X137405300Y-119774993D01*
X137386135Y-119543702D01*
X137386133Y-119543691D01*
X137329157Y-119318699D01*
X137235924Y-119106151D01*
X137108983Y-118911852D01*
X137108980Y-118911849D01*
X137108979Y-118911847D01*
X136951784Y-118741087D01*
X136951779Y-118741083D01*
X136951777Y-118741081D01*
X136768634Y-118598535D01*
X136768628Y-118598531D01*
X136564504Y-118488064D01*
X136564495Y-118488061D01*
X136344984Y-118412702D01*
X136173282Y-118384050D01*
X136116049Y-118374500D01*
X135883951Y-118374500D01*
X135838164Y-118382140D01*
X135655015Y-118412702D01*
X135435504Y-118488061D01*
X135435495Y-118488064D01*
X135231371Y-118598531D01*
X135231365Y-118598535D01*
X135048222Y-118741081D01*
X135048219Y-118741084D01*
X134891016Y-118911852D01*
X134764076Y-119106149D01*
X134738056Y-119165470D01*
X134693099Y-119218955D01*
X134626363Y-119239645D01*
X134559035Y-119220970D01*
X134512492Y-119168859D01*
X134500500Y-119115659D01*
X134500500Y-114401954D01*
X134520185Y-114334915D01*
X134572989Y-114289160D01*
X134642147Y-114279216D01*
X134705703Y-114308241D01*
X134726073Y-114330829D01*
X134769357Y-114392645D01*
X134831500Y-114481395D01*
X134831505Y-114481401D01*
X134998599Y-114648495D01*
X135095384Y-114716265D01*
X135192165Y-114784032D01*
X135192167Y-114784033D01*
X135192170Y-114784035D01*
X135406337Y-114883903D01*
X135634592Y-114945063D01*
X135811034Y-114960500D01*
X135869999Y-114965659D01*
X135870000Y-114965659D01*
X135870001Y-114965659D01*
X135928966Y-114960500D01*
X136105408Y-114945063D01*
X136333663Y-114883903D01*
X136547830Y-114784035D01*
X136741401Y-114648495D01*
X136908495Y-114481401D01*
X137038425Y-114295842D01*
X137093002Y-114252217D01*
X137162500Y-114245023D01*
X137224855Y-114276546D01*
X137241575Y-114295842D01*
X137371500Y-114481395D01*
X137371505Y-114481401D01*
X137538599Y-114648495D01*
X137635384Y-114716265D01*
X137732165Y-114784032D01*
X137732167Y-114784033D01*
X137732170Y-114784035D01*
X137946337Y-114883903D01*
X138174592Y-114945063D01*
X138351034Y-114960500D01*
X138409999Y-114965659D01*
X138410000Y-114965659D01*
X138410001Y-114965659D01*
X138468966Y-114960500D01*
X138645408Y-114945063D01*
X138873663Y-114883903D01*
X139087830Y-114784035D01*
X139281401Y-114648495D01*
X139403717Y-114526178D01*
X139465036Y-114492696D01*
X139534728Y-114497680D01*
X139590662Y-114539551D01*
X139607577Y-114570528D01*
X139656646Y-114702088D01*
X139656649Y-114702093D01*
X139742809Y-114817187D01*
X139742812Y-114817190D01*
X139857906Y-114903350D01*
X139857913Y-114903354D01*
X139992620Y-114953596D01*
X139992627Y-114953598D01*
X140052155Y-114959999D01*
X140052172Y-114960000D01*
X140700000Y-114960000D01*
X140700000Y-114054560D01*
X140753147Y-114085245D01*
X140882857Y-114120000D01*
X141017143Y-114120000D01*
X141146853Y-114085245D01*
X141200000Y-114054560D01*
X141200000Y-114960000D01*
X141847828Y-114960000D01*
X141847844Y-114959999D01*
X141907372Y-114953598D01*
X141907379Y-114953596D01*
X142042086Y-114903354D01*
X142042093Y-114903350D01*
X142157187Y-114817190D01*
X142157190Y-114817187D01*
X142243350Y-114702093D01*
X142243354Y-114702086D01*
X142292422Y-114570529D01*
X142334293Y-114514595D01*
X142399757Y-114490178D01*
X142468030Y-114505030D01*
X142496285Y-114526181D01*
X142618599Y-114648495D01*
X142715384Y-114716265D01*
X142812165Y-114784032D01*
X142812167Y-114784033D01*
X142812170Y-114784035D01*
X143026337Y-114883903D01*
X143254592Y-114945063D01*
X143431034Y-114960500D01*
X143489999Y-114965659D01*
X143490000Y-114965659D01*
X143490001Y-114965659D01*
X143548966Y-114960500D01*
X143725408Y-114945063D01*
X143953663Y-114883903D01*
X144167830Y-114784035D01*
X144361401Y-114648495D01*
X144528495Y-114481401D01*
X144658425Y-114295842D01*
X144713002Y-114252217D01*
X144782500Y-114245023D01*
X144844855Y-114276546D01*
X144861575Y-114295842D01*
X144991500Y-114481395D01*
X144991505Y-114481401D01*
X145158599Y-114648495D01*
X145255384Y-114716265D01*
X145352165Y-114784032D01*
X145352167Y-114784033D01*
X145352170Y-114784035D01*
X145566337Y-114883903D01*
X145794592Y-114945063D01*
X145971034Y-114960500D01*
X146029999Y-114965659D01*
X146030000Y-114965659D01*
X146030001Y-114965659D01*
X146088966Y-114960500D01*
X146265408Y-114945063D01*
X146493663Y-114883903D01*
X146707830Y-114784035D01*
X146901401Y-114648495D01*
X147068495Y-114481401D01*
X147198425Y-114295842D01*
X147253002Y-114252217D01*
X147322500Y-114245023D01*
X147384855Y-114276546D01*
X147401575Y-114295842D01*
X147531500Y-114481395D01*
X147531505Y-114481401D01*
X147698599Y-114648495D01*
X147795384Y-114716265D01*
X147892165Y-114784032D01*
X147892167Y-114784033D01*
X147892170Y-114784035D01*
X148106337Y-114883903D01*
X148334592Y-114945063D01*
X148511034Y-114960500D01*
X148569999Y-114965659D01*
X148570000Y-114965659D01*
X148570001Y-114965659D01*
X148628966Y-114960500D01*
X148805408Y-114945063D01*
X149033663Y-114883903D01*
X149247830Y-114784035D01*
X149441401Y-114648495D01*
X149608495Y-114481401D01*
X149738425Y-114295842D01*
X149793002Y-114252217D01*
X149862500Y-114245023D01*
X149924855Y-114276546D01*
X149941575Y-114295842D01*
X150071500Y-114481395D01*
X150071505Y-114481401D01*
X150238599Y-114648495D01*
X150335384Y-114716265D01*
X150432165Y-114784032D01*
X150432167Y-114784033D01*
X150432170Y-114784035D01*
X150646337Y-114883903D01*
X150874592Y-114945063D01*
X151051034Y-114960500D01*
X151109999Y-114965659D01*
X151110000Y-114965659D01*
X151110001Y-114965659D01*
X151168966Y-114960500D01*
X151345408Y-114945063D01*
X151573663Y-114883903D01*
X151787830Y-114784035D01*
X151981401Y-114648495D01*
X152103329Y-114526566D01*
X152164648Y-114493084D01*
X152234340Y-114498068D01*
X152290274Y-114539939D01*
X152307189Y-114570917D01*
X152356202Y-114702328D01*
X152356206Y-114702335D01*
X152442452Y-114817544D01*
X152442455Y-114817547D01*
X152557664Y-114903793D01*
X152557671Y-114903797D01*
X152692517Y-114954091D01*
X152692516Y-114954091D01*
X152699444Y-114954835D01*
X152752127Y-114960500D01*
X154547872Y-114960499D01*
X154607483Y-114954091D01*
X154742331Y-114903796D01*
X154857546Y-114817546D01*
X154943796Y-114702331D01*
X154992810Y-114570916D01*
X155034681Y-114514984D01*
X155100145Y-114490566D01*
X155168418Y-114505417D01*
X155196673Y-114526569D01*
X155318599Y-114648495D01*
X155415384Y-114716265D01*
X155512165Y-114784032D01*
X155512167Y-114784033D01*
X155512170Y-114784035D01*
X155726337Y-114883903D01*
X155954592Y-114945063D01*
X156131034Y-114960500D01*
X156189999Y-114965659D01*
X156190000Y-114965659D01*
X156190001Y-114965659D01*
X156248966Y-114960500D01*
X156425408Y-114945063D01*
X156653663Y-114883903D01*
X156867830Y-114784035D01*
X157061401Y-114648495D01*
X157228495Y-114481401D01*
X157358425Y-114295842D01*
X157413002Y-114252217D01*
X157482500Y-114245023D01*
X157544855Y-114276546D01*
X157561575Y-114295842D01*
X157691500Y-114481395D01*
X157691505Y-114481401D01*
X157858599Y-114648495D01*
X157955384Y-114716265D01*
X158052165Y-114784032D01*
X158052167Y-114784033D01*
X158052170Y-114784035D01*
X158266337Y-114883903D01*
X158494592Y-114945063D01*
X158671034Y-114960500D01*
X158729999Y-114965659D01*
X158730000Y-114965659D01*
X158730001Y-114965659D01*
X158788966Y-114960500D01*
X158965408Y-114945063D01*
X159193663Y-114883903D01*
X159407830Y-114784035D01*
X159601401Y-114648495D01*
X159768495Y-114481401D01*
X159898425Y-114295842D01*
X159953002Y-114252217D01*
X160022500Y-114245023D01*
X160084855Y-114276546D01*
X160101575Y-114295842D01*
X160231500Y-114481395D01*
X160231505Y-114481401D01*
X160398599Y-114648495D01*
X160495384Y-114716265D01*
X160592165Y-114784032D01*
X160592167Y-114784033D01*
X160592170Y-114784035D01*
X160806337Y-114883903D01*
X161034592Y-114945063D01*
X161211034Y-114960500D01*
X161269999Y-114965659D01*
X161270000Y-114965659D01*
X161270001Y-114965659D01*
X161328966Y-114960500D01*
X161505408Y-114945063D01*
X161733663Y-114883903D01*
X161947830Y-114784035D01*
X162141401Y-114648495D01*
X162308495Y-114481401D01*
X162438425Y-114295842D01*
X162493002Y-114252217D01*
X162562500Y-114245023D01*
X162624855Y-114276546D01*
X162641575Y-114295842D01*
X162771500Y-114481395D01*
X162771505Y-114481401D01*
X162938599Y-114648495D01*
X163035384Y-114716265D01*
X163132165Y-114784032D01*
X163132167Y-114784033D01*
X163132170Y-114784035D01*
X163346337Y-114883903D01*
X163574592Y-114945063D01*
X163751034Y-114960500D01*
X163809999Y-114965659D01*
X163810000Y-114965659D01*
X163810001Y-114965659D01*
X163868966Y-114960500D01*
X164045408Y-114945063D01*
X164273663Y-114883903D01*
X164487830Y-114784035D01*
X164681401Y-114648495D01*
X164803329Y-114526566D01*
X164864648Y-114493084D01*
X164934340Y-114498068D01*
X164990274Y-114539939D01*
X165007189Y-114570917D01*
X165056202Y-114702328D01*
X165056206Y-114702335D01*
X165142452Y-114817544D01*
X165142455Y-114817547D01*
X165257664Y-114903793D01*
X165257671Y-114903797D01*
X165392517Y-114954091D01*
X165392516Y-114954091D01*
X165399444Y-114954835D01*
X165452127Y-114960500D01*
X167247872Y-114960499D01*
X167307483Y-114954091D01*
X167442331Y-114903796D01*
X167557546Y-114817546D01*
X167643796Y-114702331D01*
X167692810Y-114570916D01*
X167734681Y-114514984D01*
X167800145Y-114490566D01*
X167868418Y-114505417D01*
X167896673Y-114526569D01*
X168018599Y-114648495D01*
X168115384Y-114716265D01*
X168212165Y-114784032D01*
X168212167Y-114784033D01*
X168212170Y-114784035D01*
X168426337Y-114883903D01*
X168654592Y-114945063D01*
X168831034Y-114960500D01*
X168889999Y-114965659D01*
X168890000Y-114965659D01*
X168890001Y-114965659D01*
X168948966Y-114960500D01*
X169125408Y-114945063D01*
X169353663Y-114883903D01*
X169567830Y-114784035D01*
X169761401Y-114648495D01*
X169928495Y-114481401D01*
X170058425Y-114295842D01*
X170113002Y-114252217D01*
X170182500Y-114245023D01*
X170244855Y-114276546D01*
X170261575Y-114295842D01*
X170391500Y-114481395D01*
X170391505Y-114481401D01*
X170558599Y-114648495D01*
X170655384Y-114716265D01*
X170752165Y-114784032D01*
X170752167Y-114784033D01*
X170752170Y-114784035D01*
X170966337Y-114883903D01*
X171194592Y-114945063D01*
X171371034Y-114960500D01*
X171429999Y-114965659D01*
X171430000Y-114965659D01*
X171430001Y-114965659D01*
X171488966Y-114960500D01*
X171665408Y-114945063D01*
X171893663Y-114883903D01*
X172107830Y-114784035D01*
X172301401Y-114648495D01*
X172468495Y-114481401D01*
X172598425Y-114295842D01*
X172653002Y-114252217D01*
X172722500Y-114245023D01*
X172784855Y-114276546D01*
X172801575Y-114295842D01*
X172931500Y-114481395D01*
X172931505Y-114481401D01*
X173098599Y-114648495D01*
X173195384Y-114716265D01*
X173292165Y-114784032D01*
X173292167Y-114784033D01*
X173292170Y-114784035D01*
X173506337Y-114883903D01*
X173734592Y-114945063D01*
X173911034Y-114960500D01*
X173969999Y-114965659D01*
X173970000Y-114965659D01*
X173970001Y-114965659D01*
X174028966Y-114960500D01*
X174205408Y-114945063D01*
X174433663Y-114883903D01*
X174647830Y-114784035D01*
X174841401Y-114648495D01*
X175008495Y-114481401D01*
X175138425Y-114295842D01*
X175193002Y-114252217D01*
X175262500Y-114245023D01*
X175324855Y-114276546D01*
X175341575Y-114295842D01*
X175471500Y-114481395D01*
X175471505Y-114481401D01*
X175638599Y-114648495D01*
X175735384Y-114716265D01*
X175832165Y-114784032D01*
X175832167Y-114784033D01*
X175832170Y-114784035D01*
X176046337Y-114883903D01*
X176274592Y-114945063D01*
X176451034Y-114960500D01*
X176509999Y-114965659D01*
X176510000Y-114965659D01*
X176510001Y-114965659D01*
X176568966Y-114960500D01*
X176745408Y-114945063D01*
X176973663Y-114883903D01*
X177187830Y-114784035D01*
X177381401Y-114648495D01*
X177503329Y-114526566D01*
X177564648Y-114493084D01*
X177634340Y-114498068D01*
X177690274Y-114539939D01*
X177707189Y-114570917D01*
X177756202Y-114702328D01*
X177756206Y-114702335D01*
X177842452Y-114817544D01*
X177842455Y-114817547D01*
X177957664Y-114903793D01*
X177957671Y-114903797D01*
X178092517Y-114954091D01*
X178092516Y-114954091D01*
X178099444Y-114954835D01*
X178152127Y-114960500D01*
X179947872Y-114960499D01*
X180007483Y-114954091D01*
X180142331Y-114903796D01*
X180257546Y-114817546D01*
X180343796Y-114702331D01*
X180392810Y-114570916D01*
X180434681Y-114514984D01*
X180500145Y-114490566D01*
X180568418Y-114505417D01*
X180596673Y-114526569D01*
X180718599Y-114648495D01*
X180815384Y-114716265D01*
X180912165Y-114784032D01*
X180912167Y-114784033D01*
X180912170Y-114784035D01*
X181126337Y-114883903D01*
X181354592Y-114945063D01*
X181531034Y-114960500D01*
X181589999Y-114965659D01*
X181590000Y-114965659D01*
X181590001Y-114965659D01*
X181648966Y-114960500D01*
X181825408Y-114945063D01*
X182053663Y-114883903D01*
X182267830Y-114784035D01*
X182461401Y-114648495D01*
X182628495Y-114481401D01*
X182758425Y-114295842D01*
X182813002Y-114252217D01*
X182882500Y-114245023D01*
X182944855Y-114276546D01*
X182961575Y-114295842D01*
X183091500Y-114481395D01*
X183091505Y-114481401D01*
X183258599Y-114648495D01*
X183355384Y-114716265D01*
X183452165Y-114784032D01*
X183452167Y-114784033D01*
X183452170Y-114784035D01*
X183666337Y-114883903D01*
X183894592Y-114945063D01*
X184071034Y-114960500D01*
X184129999Y-114965659D01*
X184130000Y-114965659D01*
X184130001Y-114965659D01*
X184188966Y-114960500D01*
X184365408Y-114945063D01*
X184593663Y-114883903D01*
X184807830Y-114784035D01*
X185001401Y-114648495D01*
X185168495Y-114481401D01*
X185304035Y-114287830D01*
X185403903Y-114073663D01*
X185465063Y-113845408D01*
X185485659Y-113610000D01*
X185465063Y-113374592D01*
X185403903Y-113146337D01*
X185304035Y-112932171D01*
X185298425Y-112924158D01*
X185168494Y-112738597D01*
X185001402Y-112571506D01*
X185001395Y-112571501D01*
X184807834Y-112435967D01*
X184807830Y-112435965D01*
X184736727Y-112402809D01*
X184593663Y-112336097D01*
X184593659Y-112336096D01*
X184593655Y-112336094D01*
X184365413Y-112274938D01*
X184365403Y-112274936D01*
X184130001Y-112254341D01*
X184129999Y-112254341D01*
X183894596Y-112274936D01*
X183894586Y-112274938D01*
X183666344Y-112336094D01*
X183666335Y-112336098D01*
X183452171Y-112435964D01*
X183452169Y-112435965D01*
X183258597Y-112571505D01*
X183091505Y-112738597D01*
X182961575Y-112924158D01*
X182906998Y-112967783D01*
X182837500Y-112974977D01*
X182775145Y-112943454D01*
X182758425Y-112924158D01*
X182628494Y-112738597D01*
X182461402Y-112571506D01*
X182461395Y-112571501D01*
X182267834Y-112435967D01*
X182267830Y-112435965D01*
X182196727Y-112402809D01*
X182053663Y-112336097D01*
X182053659Y-112336096D01*
X182053655Y-112336094D01*
X181825413Y-112274938D01*
X181825403Y-112274936D01*
X181590001Y-112254341D01*
X181589999Y-112254341D01*
X181354596Y-112274936D01*
X181354586Y-112274938D01*
X181126344Y-112336094D01*
X181126335Y-112336098D01*
X180912171Y-112435964D01*
X180912169Y-112435965D01*
X180718600Y-112571503D01*
X180596673Y-112693430D01*
X180535350Y-112726914D01*
X180465658Y-112721930D01*
X180409725Y-112680058D01*
X180392810Y-112649081D01*
X180343797Y-112517671D01*
X180343793Y-112517664D01*
X180257547Y-112402455D01*
X180257544Y-112402452D01*
X180142335Y-112316206D01*
X180142328Y-112316202D01*
X180007482Y-112265908D01*
X180007483Y-112265908D01*
X179947883Y-112259501D01*
X179947881Y-112259500D01*
X179947873Y-112259500D01*
X179947864Y-112259500D01*
X178152129Y-112259500D01*
X178152123Y-112259501D01*
X178092516Y-112265908D01*
X177957671Y-112316202D01*
X177957664Y-112316206D01*
X177842455Y-112402452D01*
X177842452Y-112402455D01*
X177756206Y-112517664D01*
X177756203Y-112517669D01*
X177707189Y-112649083D01*
X177665317Y-112705016D01*
X177599853Y-112729433D01*
X177531580Y-112714581D01*
X177503326Y-112693430D01*
X177381402Y-112571506D01*
X177381395Y-112571501D01*
X177187834Y-112435967D01*
X177187830Y-112435965D01*
X177116727Y-112402809D01*
X176973663Y-112336097D01*
X176973659Y-112336096D01*
X176973655Y-112336094D01*
X176745413Y-112274938D01*
X176745403Y-112274936D01*
X176510001Y-112254341D01*
X176509999Y-112254341D01*
X176274596Y-112274936D01*
X176274586Y-112274938D01*
X176046344Y-112336094D01*
X176046335Y-112336098D01*
X175832171Y-112435964D01*
X175832169Y-112435965D01*
X175638597Y-112571505D01*
X175471505Y-112738597D01*
X175341575Y-112924158D01*
X175286998Y-112967783D01*
X175217500Y-112974977D01*
X175155145Y-112943454D01*
X175138425Y-112924158D01*
X175008494Y-112738597D01*
X174841402Y-112571506D01*
X174841395Y-112571501D01*
X174647834Y-112435967D01*
X174647830Y-112435965D01*
X174576727Y-112402809D01*
X174433663Y-112336097D01*
X174433659Y-112336096D01*
X174433655Y-112336094D01*
X174205413Y-112274938D01*
X174205403Y-112274936D01*
X173970001Y-112254341D01*
X173969999Y-112254341D01*
X173734596Y-112274936D01*
X173734586Y-112274938D01*
X173506344Y-112336094D01*
X173506335Y-112336098D01*
X173292171Y-112435964D01*
X173292169Y-112435965D01*
X173098597Y-112571505D01*
X172931505Y-112738597D01*
X172801575Y-112924158D01*
X172746998Y-112967783D01*
X172677500Y-112974977D01*
X172615145Y-112943454D01*
X172598425Y-112924158D01*
X172468494Y-112738597D01*
X172301402Y-112571506D01*
X172301395Y-112571501D01*
X172107834Y-112435967D01*
X172107830Y-112435965D01*
X172036727Y-112402809D01*
X171893663Y-112336097D01*
X171893659Y-112336096D01*
X171893655Y-112336094D01*
X171665413Y-112274938D01*
X171665403Y-112274936D01*
X171430001Y-112254341D01*
X171429999Y-112254341D01*
X171194596Y-112274936D01*
X171194586Y-112274938D01*
X170966344Y-112336094D01*
X170966335Y-112336098D01*
X170752171Y-112435964D01*
X170752169Y-112435965D01*
X170558597Y-112571505D01*
X170391505Y-112738597D01*
X170261575Y-112924158D01*
X170206998Y-112967783D01*
X170137500Y-112974977D01*
X170075145Y-112943454D01*
X170058425Y-112924158D01*
X169928494Y-112738597D01*
X169761402Y-112571506D01*
X169761395Y-112571501D01*
X169567834Y-112435967D01*
X169567830Y-112435965D01*
X169496727Y-112402809D01*
X169353663Y-112336097D01*
X169353659Y-112336096D01*
X169353655Y-112336094D01*
X169125413Y-112274938D01*
X169125403Y-112274936D01*
X168890001Y-112254341D01*
X168889999Y-112254341D01*
X168654596Y-112274936D01*
X168654586Y-112274938D01*
X168426344Y-112336094D01*
X168426335Y-112336098D01*
X168212171Y-112435964D01*
X168212169Y-112435965D01*
X168018600Y-112571503D01*
X167896673Y-112693430D01*
X167835350Y-112726914D01*
X167765658Y-112721930D01*
X167709725Y-112680058D01*
X167692810Y-112649081D01*
X167643797Y-112517671D01*
X167643793Y-112517664D01*
X167557547Y-112402455D01*
X167557544Y-112402452D01*
X167442335Y-112316206D01*
X167442328Y-112316202D01*
X167307482Y-112265908D01*
X167307483Y-112265908D01*
X167247883Y-112259501D01*
X167247881Y-112259500D01*
X167247873Y-112259500D01*
X167247864Y-112259500D01*
X165452129Y-112259500D01*
X165452123Y-112259501D01*
X165392516Y-112265908D01*
X165257671Y-112316202D01*
X165257664Y-112316206D01*
X165142455Y-112402452D01*
X165142452Y-112402455D01*
X165056206Y-112517664D01*
X165056203Y-112517669D01*
X165007189Y-112649083D01*
X164965317Y-112705016D01*
X164899853Y-112729433D01*
X164831580Y-112714581D01*
X164803326Y-112693430D01*
X164681402Y-112571506D01*
X164681395Y-112571501D01*
X164487834Y-112435967D01*
X164487830Y-112435965D01*
X164416727Y-112402809D01*
X164273663Y-112336097D01*
X164273659Y-112336096D01*
X164273655Y-112336094D01*
X164045413Y-112274938D01*
X164045403Y-112274936D01*
X163810001Y-112254341D01*
X163809999Y-112254341D01*
X163574596Y-112274936D01*
X163574586Y-112274938D01*
X163346344Y-112336094D01*
X163346335Y-112336098D01*
X163132171Y-112435964D01*
X163132169Y-112435965D01*
X162938597Y-112571505D01*
X162771505Y-112738597D01*
X162641575Y-112924158D01*
X162586998Y-112967783D01*
X162517500Y-112974977D01*
X162455145Y-112943454D01*
X162438425Y-112924158D01*
X162308494Y-112738597D01*
X162141402Y-112571506D01*
X162141395Y-112571501D01*
X161947834Y-112435967D01*
X161947830Y-112435965D01*
X161876727Y-112402809D01*
X161733663Y-112336097D01*
X161733659Y-112336096D01*
X161733655Y-112336094D01*
X161505413Y-112274938D01*
X161505403Y-112274936D01*
X161270001Y-112254341D01*
X161269999Y-112254341D01*
X161034596Y-112274936D01*
X161034586Y-112274938D01*
X160806344Y-112336094D01*
X160806335Y-112336098D01*
X160592171Y-112435964D01*
X160592169Y-112435965D01*
X160398597Y-112571505D01*
X160231505Y-112738597D01*
X160101575Y-112924158D01*
X160046998Y-112967783D01*
X159977500Y-112974977D01*
X159915145Y-112943454D01*
X159898425Y-112924158D01*
X159768494Y-112738597D01*
X159601402Y-112571506D01*
X159601395Y-112571501D01*
X159407834Y-112435967D01*
X159407830Y-112435965D01*
X159336727Y-112402809D01*
X159193663Y-112336097D01*
X159193659Y-112336096D01*
X159193655Y-112336094D01*
X158965413Y-112274938D01*
X158965403Y-112274936D01*
X158730001Y-112254341D01*
X158729999Y-112254341D01*
X158494596Y-112274936D01*
X158494586Y-112274938D01*
X158266344Y-112336094D01*
X158266335Y-112336098D01*
X158052171Y-112435964D01*
X158052169Y-112435965D01*
X157858597Y-112571505D01*
X157691505Y-112738597D01*
X157561575Y-112924158D01*
X157506998Y-112967783D01*
X157437500Y-112974977D01*
X157375145Y-112943454D01*
X157358425Y-112924158D01*
X157228494Y-112738597D01*
X157061402Y-112571506D01*
X157061395Y-112571501D01*
X156867834Y-112435967D01*
X156867830Y-112435965D01*
X156796727Y-112402809D01*
X156653663Y-112336097D01*
X156653659Y-112336096D01*
X156653655Y-112336094D01*
X156425413Y-112274938D01*
X156425403Y-112274936D01*
X156190001Y-112254341D01*
X156189999Y-112254341D01*
X155954596Y-112274936D01*
X155954586Y-112274938D01*
X155726344Y-112336094D01*
X155726335Y-112336098D01*
X155512171Y-112435964D01*
X155512169Y-112435965D01*
X155318600Y-112571503D01*
X155196673Y-112693430D01*
X155135350Y-112726914D01*
X155065658Y-112721930D01*
X155009725Y-112680058D01*
X154992810Y-112649081D01*
X154943797Y-112517671D01*
X154943793Y-112517664D01*
X154857547Y-112402455D01*
X154857544Y-112402452D01*
X154742335Y-112316206D01*
X154742328Y-112316202D01*
X154607482Y-112265908D01*
X154607483Y-112265908D01*
X154547883Y-112259501D01*
X154547881Y-112259500D01*
X154547873Y-112259500D01*
X154547864Y-112259500D01*
X152752129Y-112259500D01*
X152752123Y-112259501D01*
X152692516Y-112265908D01*
X152557671Y-112316202D01*
X152557664Y-112316206D01*
X152442455Y-112402452D01*
X152442452Y-112402455D01*
X152356206Y-112517664D01*
X152356203Y-112517669D01*
X152307189Y-112649083D01*
X152265317Y-112705016D01*
X152199853Y-112729433D01*
X152131580Y-112714581D01*
X152103326Y-112693430D01*
X151981402Y-112571506D01*
X151981395Y-112571501D01*
X151787834Y-112435967D01*
X151787830Y-112435965D01*
X151716727Y-112402809D01*
X151573663Y-112336097D01*
X151573659Y-112336096D01*
X151573655Y-112336094D01*
X151345413Y-112274938D01*
X151345403Y-112274936D01*
X151110001Y-112254341D01*
X151109999Y-112254341D01*
X150874596Y-112274936D01*
X150874586Y-112274938D01*
X150646344Y-112336094D01*
X150646335Y-112336098D01*
X150432171Y-112435964D01*
X150432169Y-112435965D01*
X150238597Y-112571505D01*
X150071505Y-112738597D01*
X149941575Y-112924158D01*
X149886998Y-112967783D01*
X149817500Y-112974977D01*
X149755145Y-112943454D01*
X149738425Y-112924158D01*
X149608494Y-112738597D01*
X149441402Y-112571506D01*
X149441395Y-112571501D01*
X149247834Y-112435967D01*
X149247830Y-112435965D01*
X149176727Y-112402809D01*
X149033663Y-112336097D01*
X149033659Y-112336096D01*
X149033655Y-112336094D01*
X148805413Y-112274938D01*
X148805403Y-112274936D01*
X148570001Y-112254341D01*
X148569999Y-112254341D01*
X148334596Y-112274936D01*
X148334586Y-112274938D01*
X148106344Y-112336094D01*
X148106335Y-112336098D01*
X147892171Y-112435964D01*
X147892169Y-112435965D01*
X147698597Y-112571505D01*
X147531505Y-112738597D01*
X147401575Y-112924158D01*
X147346998Y-112967783D01*
X147277500Y-112974977D01*
X147215145Y-112943454D01*
X147198425Y-112924158D01*
X147068494Y-112738597D01*
X146901402Y-112571506D01*
X146901395Y-112571501D01*
X146707834Y-112435967D01*
X146707830Y-112435965D01*
X146636727Y-112402809D01*
X146493663Y-112336097D01*
X146493659Y-112336096D01*
X146493655Y-112336094D01*
X146265413Y-112274938D01*
X146265403Y-112274936D01*
X146030001Y-112254341D01*
X146029999Y-112254341D01*
X145794596Y-112274936D01*
X145794586Y-112274938D01*
X145566344Y-112336094D01*
X145566335Y-112336098D01*
X145352171Y-112435964D01*
X145352169Y-112435965D01*
X145158597Y-112571505D01*
X144991505Y-112738597D01*
X144861575Y-112924158D01*
X144806998Y-112967783D01*
X144737500Y-112974977D01*
X144675145Y-112943454D01*
X144658425Y-112924158D01*
X144528494Y-112738597D01*
X144361402Y-112571506D01*
X144361395Y-112571501D01*
X144167834Y-112435967D01*
X144167830Y-112435965D01*
X144096727Y-112402809D01*
X143953663Y-112336097D01*
X143953659Y-112336096D01*
X143953655Y-112336094D01*
X143725413Y-112274938D01*
X143725403Y-112274936D01*
X143490001Y-112254341D01*
X143489999Y-112254341D01*
X143254596Y-112274936D01*
X143254586Y-112274938D01*
X143026344Y-112336094D01*
X143026335Y-112336098D01*
X142812171Y-112435964D01*
X142812169Y-112435965D01*
X142618600Y-112571503D01*
X142496284Y-112693819D01*
X142434961Y-112727303D01*
X142365269Y-112722319D01*
X142309336Y-112680447D01*
X142292421Y-112649470D01*
X142243354Y-112517913D01*
X142243350Y-112517906D01*
X142157190Y-112402812D01*
X142157187Y-112402809D01*
X142042093Y-112316649D01*
X142042086Y-112316645D01*
X141907379Y-112266403D01*
X141907372Y-112266401D01*
X141847844Y-112260000D01*
X141200000Y-112260000D01*
X141200000Y-113165439D01*
X141146853Y-113134755D01*
X141017143Y-113100000D01*
X140882857Y-113100000D01*
X140753147Y-113134755D01*
X140700000Y-113165439D01*
X140700000Y-112260000D01*
X140052155Y-112260000D01*
X139992627Y-112266401D01*
X139992620Y-112266403D01*
X139857913Y-112316645D01*
X139857906Y-112316649D01*
X139742812Y-112402809D01*
X139742809Y-112402812D01*
X139656649Y-112517906D01*
X139656645Y-112517913D01*
X139607578Y-112649470D01*
X139565707Y-112705404D01*
X139500242Y-112729821D01*
X139431969Y-112714969D01*
X139403715Y-112693819D01*
X139358977Y-112649081D01*
X139281401Y-112571505D01*
X139281397Y-112571502D01*
X139281396Y-112571501D01*
X139087834Y-112435967D01*
X139087830Y-112435965D01*
X139016727Y-112402809D01*
X138873663Y-112336097D01*
X138873659Y-112336096D01*
X138873655Y-112336094D01*
X138645413Y-112274938D01*
X138645403Y-112274936D01*
X138410001Y-112254341D01*
X138409999Y-112254341D01*
X138174596Y-112274936D01*
X138174586Y-112274938D01*
X137946344Y-112336094D01*
X137946335Y-112336098D01*
X137732171Y-112435964D01*
X137732169Y-112435965D01*
X137538597Y-112571505D01*
X137371505Y-112738597D01*
X137241575Y-112924158D01*
X137186998Y-112967783D01*
X137117500Y-112974977D01*
X137055145Y-112943454D01*
X137038425Y-112924158D01*
X136908494Y-112738597D01*
X136741402Y-112571506D01*
X136741395Y-112571501D01*
X136547834Y-112435967D01*
X136547830Y-112435965D01*
X136476727Y-112402809D01*
X136333663Y-112336097D01*
X136333659Y-112336096D01*
X136333655Y-112336094D01*
X136105413Y-112274938D01*
X136105403Y-112274936D01*
X135870001Y-112254341D01*
X135869999Y-112254341D01*
X135634596Y-112274936D01*
X135634586Y-112274938D01*
X135406344Y-112336094D01*
X135406335Y-112336098D01*
X135192171Y-112435964D01*
X135192169Y-112435965D01*
X134998597Y-112571505D01*
X134831505Y-112738597D01*
X134726075Y-112889168D01*
X134671498Y-112932793D01*
X134602000Y-112939986D01*
X134539645Y-112908464D01*
X134504231Y-112848234D01*
X134500500Y-112818045D01*
X134500500Y-109934029D01*
X134520185Y-109866990D01*
X134572989Y-109821235D01*
X134642147Y-109811291D01*
X134698810Y-109834762D01*
X134777665Y-109893793D01*
X134777668Y-109893795D01*
X134777671Y-109893797D01*
X134912517Y-109944091D01*
X134912516Y-109944091D01*
X134919444Y-109944835D01*
X134972127Y-109950500D01*
X136767872Y-109950499D01*
X136827483Y-109944091D01*
X136962331Y-109893796D01*
X137077546Y-109807546D01*
X137163796Y-109692331D01*
X137212810Y-109560916D01*
X137254681Y-109504984D01*
X137320145Y-109480566D01*
X137388418Y-109495417D01*
X137416673Y-109516569D01*
X137538599Y-109638495D01*
X137635384Y-109706265D01*
X137732165Y-109774032D01*
X137732167Y-109774033D01*
X137732170Y-109774035D01*
X137946337Y-109873903D01*
X138174592Y-109935063D01*
X138351034Y-109950500D01*
X138409999Y-109955659D01*
X138410000Y-109955659D01*
X138410001Y-109955659D01*
X138468966Y-109950500D01*
X138645408Y-109935063D01*
X138873663Y-109873903D01*
X139087830Y-109774035D01*
X139281401Y-109638495D01*
X139448495Y-109471401D01*
X139578730Y-109285405D01*
X139633307Y-109241781D01*
X139702805Y-109234587D01*
X139765160Y-109266110D01*
X139781879Y-109285405D01*
X139911890Y-109471078D01*
X140078917Y-109638105D01*
X140272421Y-109773600D01*
X140486507Y-109873429D01*
X140486516Y-109873433D01*
X140700000Y-109930634D01*
X140700000Y-109033012D01*
X140757007Y-109065925D01*
X140884174Y-109100000D01*
X141015826Y-109100000D01*
X141142993Y-109065925D01*
X141200000Y-109033012D01*
X141200000Y-109930634D01*
X141413483Y-109873433D01*
X141413492Y-109873429D01*
X141627578Y-109773600D01*
X141821082Y-109638105D01*
X141988105Y-109471082D01*
X142118119Y-109285405D01*
X142172696Y-109241781D01*
X142242195Y-109234588D01*
X142304549Y-109266110D01*
X142321269Y-109285405D01*
X142451505Y-109471401D01*
X142618599Y-109638495D01*
X142715384Y-109706265D01*
X142812165Y-109774032D01*
X142812167Y-109774033D01*
X142812170Y-109774035D01*
X143026337Y-109873903D01*
X143254592Y-109935063D01*
X143431034Y-109950500D01*
X143489999Y-109955659D01*
X143490000Y-109955659D01*
X143490001Y-109955659D01*
X143548966Y-109950500D01*
X143725408Y-109935063D01*
X143953663Y-109873903D01*
X144167830Y-109774035D01*
X144361401Y-109638495D01*
X144528495Y-109471401D01*
X144658425Y-109285842D01*
X144713002Y-109242217D01*
X144782500Y-109235023D01*
X144844855Y-109266546D01*
X144861575Y-109285842D01*
X144991500Y-109471395D01*
X144991505Y-109471401D01*
X145158599Y-109638495D01*
X145255384Y-109706265D01*
X145352165Y-109774032D01*
X145352167Y-109774033D01*
X145352170Y-109774035D01*
X145566337Y-109873903D01*
X145794592Y-109935063D01*
X145971034Y-109950500D01*
X146029999Y-109955659D01*
X146030000Y-109955659D01*
X146030001Y-109955659D01*
X146088966Y-109950500D01*
X146265408Y-109935063D01*
X146493663Y-109873903D01*
X146707830Y-109774035D01*
X146901401Y-109638495D01*
X147068495Y-109471401D01*
X147198425Y-109285842D01*
X147253002Y-109242217D01*
X147322500Y-109235023D01*
X147384855Y-109266546D01*
X147401575Y-109285842D01*
X147531500Y-109471395D01*
X147531505Y-109471401D01*
X147698599Y-109638495D01*
X147795384Y-109706265D01*
X147892165Y-109774032D01*
X147892167Y-109774033D01*
X147892170Y-109774035D01*
X148106337Y-109873903D01*
X148334592Y-109935063D01*
X148511034Y-109950500D01*
X148569999Y-109955659D01*
X148570000Y-109955659D01*
X148570001Y-109955659D01*
X148628966Y-109950500D01*
X148805408Y-109935063D01*
X149033663Y-109873903D01*
X149247830Y-109774035D01*
X149441401Y-109638495D01*
X149608495Y-109471401D01*
X149738425Y-109285842D01*
X149793002Y-109242217D01*
X149862500Y-109235023D01*
X149924855Y-109266546D01*
X149941575Y-109285842D01*
X150071500Y-109471395D01*
X150071505Y-109471401D01*
X150238599Y-109638495D01*
X150335384Y-109706265D01*
X150432165Y-109774032D01*
X150432167Y-109774033D01*
X150432170Y-109774035D01*
X150646337Y-109873903D01*
X150874592Y-109935063D01*
X151051034Y-109950500D01*
X151109999Y-109955659D01*
X151110000Y-109955659D01*
X151110001Y-109955659D01*
X151168966Y-109950500D01*
X151345408Y-109935063D01*
X151573663Y-109873903D01*
X151787830Y-109774035D01*
X151981401Y-109638495D01*
X152148495Y-109471401D01*
X152278425Y-109285842D01*
X152333002Y-109242217D01*
X152402500Y-109235023D01*
X152464855Y-109266546D01*
X152481575Y-109285842D01*
X152611500Y-109471395D01*
X152611505Y-109471401D01*
X152778599Y-109638495D01*
X152875384Y-109706265D01*
X152972165Y-109774032D01*
X152972167Y-109774033D01*
X152972170Y-109774035D01*
X153186337Y-109873903D01*
X153414592Y-109935063D01*
X153591034Y-109950500D01*
X153649999Y-109955659D01*
X153650000Y-109955659D01*
X153650001Y-109955659D01*
X153708966Y-109950500D01*
X153885408Y-109935063D01*
X154113663Y-109873903D01*
X154327830Y-109774035D01*
X154521401Y-109638495D01*
X154688495Y-109471401D01*
X154818425Y-109285842D01*
X154873002Y-109242217D01*
X154942500Y-109235023D01*
X155004855Y-109266546D01*
X155021575Y-109285842D01*
X155151500Y-109471395D01*
X155151505Y-109471401D01*
X155318599Y-109638495D01*
X155415384Y-109706265D01*
X155512165Y-109774032D01*
X155512167Y-109774033D01*
X155512170Y-109774035D01*
X155726337Y-109873903D01*
X155954592Y-109935063D01*
X156131034Y-109950500D01*
X156189999Y-109955659D01*
X156190000Y-109955659D01*
X156190001Y-109955659D01*
X156248966Y-109950500D01*
X156425408Y-109935063D01*
X156653663Y-109873903D01*
X156867830Y-109774035D01*
X157061401Y-109638495D01*
X157228495Y-109471401D01*
X157358425Y-109285842D01*
X157413002Y-109242217D01*
X157482500Y-109235023D01*
X157544855Y-109266546D01*
X157561575Y-109285842D01*
X157691500Y-109471395D01*
X157691505Y-109471401D01*
X157858599Y-109638495D01*
X157955384Y-109706265D01*
X158052165Y-109774032D01*
X158052167Y-109774033D01*
X158052170Y-109774035D01*
X158266337Y-109873903D01*
X158494592Y-109935063D01*
X158671034Y-109950500D01*
X158729999Y-109955659D01*
X158730000Y-109955659D01*
X158730001Y-109955659D01*
X158788966Y-109950500D01*
X158965408Y-109935063D01*
X159193663Y-109873903D01*
X159407830Y-109774035D01*
X159601401Y-109638495D01*
X159768495Y-109471401D01*
X159898425Y-109285842D01*
X159953002Y-109242217D01*
X160022500Y-109235023D01*
X160084855Y-109266546D01*
X160101575Y-109285842D01*
X160231500Y-109471395D01*
X160231505Y-109471401D01*
X160398599Y-109638495D01*
X160495384Y-109706265D01*
X160592165Y-109774032D01*
X160592167Y-109774033D01*
X160592170Y-109774035D01*
X160806337Y-109873903D01*
X161034592Y-109935063D01*
X161211034Y-109950500D01*
X161269999Y-109955659D01*
X161270000Y-109955659D01*
X161270001Y-109955659D01*
X161328966Y-109950500D01*
X161505408Y-109935063D01*
X161733663Y-109873903D01*
X161947830Y-109774035D01*
X162141401Y-109638495D01*
X162308495Y-109471401D01*
X162438425Y-109285842D01*
X162493002Y-109242217D01*
X162562500Y-109235023D01*
X162624855Y-109266546D01*
X162641575Y-109285842D01*
X162771500Y-109471395D01*
X162771505Y-109471401D01*
X162938599Y-109638495D01*
X163035384Y-109706265D01*
X163132165Y-109774032D01*
X163132167Y-109774033D01*
X163132170Y-109774035D01*
X163346337Y-109873903D01*
X163574592Y-109935063D01*
X163751034Y-109950500D01*
X163809999Y-109955659D01*
X163810000Y-109955659D01*
X163810001Y-109955659D01*
X163868966Y-109950500D01*
X164045408Y-109935063D01*
X164273663Y-109873903D01*
X164487830Y-109774035D01*
X164681401Y-109638495D01*
X164848495Y-109471401D01*
X164978425Y-109285842D01*
X165033002Y-109242217D01*
X165102500Y-109235023D01*
X165164855Y-109266546D01*
X165181575Y-109285842D01*
X165311500Y-109471395D01*
X165311505Y-109471401D01*
X165478599Y-109638495D01*
X165575384Y-109706265D01*
X165672165Y-109774032D01*
X165672167Y-109774033D01*
X165672170Y-109774035D01*
X165886337Y-109873903D01*
X166114592Y-109935063D01*
X166291034Y-109950500D01*
X166349999Y-109955659D01*
X166350000Y-109955659D01*
X166350001Y-109955659D01*
X166408966Y-109950500D01*
X166585408Y-109935063D01*
X166813663Y-109873903D01*
X167027830Y-109774035D01*
X167221401Y-109638495D01*
X167388495Y-109471401D01*
X167518425Y-109285842D01*
X167573002Y-109242217D01*
X167642500Y-109235023D01*
X167704855Y-109266546D01*
X167721575Y-109285842D01*
X167851500Y-109471395D01*
X167851505Y-109471401D01*
X168018599Y-109638495D01*
X168115384Y-109706265D01*
X168212165Y-109774032D01*
X168212167Y-109774033D01*
X168212170Y-109774035D01*
X168426337Y-109873903D01*
X168654592Y-109935063D01*
X168831034Y-109950500D01*
X168889999Y-109955659D01*
X168890000Y-109955659D01*
X168890001Y-109955659D01*
X168948966Y-109950500D01*
X169125408Y-109935063D01*
X169353663Y-109873903D01*
X169567830Y-109774035D01*
X169761401Y-109638495D01*
X169928495Y-109471401D01*
X170058425Y-109285842D01*
X170113002Y-109242217D01*
X170182500Y-109235023D01*
X170244855Y-109266546D01*
X170261575Y-109285842D01*
X170391500Y-109471395D01*
X170391505Y-109471401D01*
X170558599Y-109638495D01*
X170655384Y-109706265D01*
X170752165Y-109774032D01*
X170752167Y-109774033D01*
X170752170Y-109774035D01*
X170966337Y-109873903D01*
X171194592Y-109935063D01*
X171371034Y-109950500D01*
X171429999Y-109955659D01*
X171430000Y-109955659D01*
X171430001Y-109955659D01*
X171488966Y-109950500D01*
X171665408Y-109935063D01*
X171893663Y-109873903D01*
X172107830Y-109774035D01*
X172301401Y-109638495D01*
X172468495Y-109471401D01*
X172598425Y-109285842D01*
X172653002Y-109242217D01*
X172722500Y-109235023D01*
X172784855Y-109266546D01*
X172801575Y-109285842D01*
X172931500Y-109471395D01*
X172931505Y-109471401D01*
X173098599Y-109638495D01*
X173195384Y-109706265D01*
X173292165Y-109774032D01*
X173292167Y-109774033D01*
X173292170Y-109774035D01*
X173506337Y-109873903D01*
X173734592Y-109935063D01*
X173911034Y-109950500D01*
X173969999Y-109955659D01*
X173970000Y-109955659D01*
X173970001Y-109955659D01*
X174028966Y-109950500D01*
X174205408Y-109935063D01*
X174433663Y-109873903D01*
X174647830Y-109774035D01*
X174841401Y-109638495D01*
X175008495Y-109471401D01*
X175138425Y-109285842D01*
X175193002Y-109242217D01*
X175262500Y-109235023D01*
X175324855Y-109266546D01*
X175341575Y-109285842D01*
X175471500Y-109471395D01*
X175471505Y-109471401D01*
X175638599Y-109638495D01*
X175735384Y-109706265D01*
X175832165Y-109774032D01*
X175832167Y-109774033D01*
X175832170Y-109774035D01*
X176046337Y-109873903D01*
X176274592Y-109935063D01*
X176451034Y-109950500D01*
X176509999Y-109955659D01*
X176510000Y-109955659D01*
X176510001Y-109955659D01*
X176568966Y-109950500D01*
X176745408Y-109935063D01*
X176973663Y-109873903D01*
X177187830Y-109774035D01*
X177381401Y-109638495D01*
X177548495Y-109471401D01*
X177678425Y-109285842D01*
X177733002Y-109242217D01*
X177802500Y-109235023D01*
X177864855Y-109266546D01*
X177881575Y-109285842D01*
X178011500Y-109471395D01*
X178011505Y-109471401D01*
X178178599Y-109638495D01*
X178275384Y-109706265D01*
X178372165Y-109774032D01*
X178372167Y-109774033D01*
X178372170Y-109774035D01*
X178586337Y-109873903D01*
X178814592Y-109935063D01*
X178991034Y-109950500D01*
X179049999Y-109955659D01*
X179050000Y-109955659D01*
X179050001Y-109955659D01*
X179108966Y-109950500D01*
X179285408Y-109935063D01*
X179513663Y-109873903D01*
X179727830Y-109774035D01*
X179921401Y-109638495D01*
X180088495Y-109471401D01*
X180218425Y-109285842D01*
X180273002Y-109242217D01*
X180342500Y-109235023D01*
X180404855Y-109266546D01*
X180421575Y-109285842D01*
X180551500Y-109471395D01*
X180551505Y-109471401D01*
X180718599Y-109638495D01*
X180815384Y-109706265D01*
X180912165Y-109774032D01*
X180912167Y-109774033D01*
X180912170Y-109774035D01*
X181126337Y-109873903D01*
X181354592Y-109935063D01*
X181531034Y-109950500D01*
X181589999Y-109955659D01*
X181590000Y-109955659D01*
X181590001Y-109955659D01*
X181648966Y-109950500D01*
X181825408Y-109935063D01*
X182053663Y-109873903D01*
X182267830Y-109774035D01*
X182461401Y-109638495D01*
X182628495Y-109471401D01*
X182758425Y-109285842D01*
X182813002Y-109242217D01*
X182882500Y-109235023D01*
X182944855Y-109266546D01*
X182961575Y-109285842D01*
X183091500Y-109471395D01*
X183091505Y-109471401D01*
X183258599Y-109638495D01*
X183355384Y-109706265D01*
X183452165Y-109774032D01*
X183452167Y-109774033D01*
X183452170Y-109774035D01*
X183666337Y-109873903D01*
X183894592Y-109935063D01*
X184071034Y-109950500D01*
X184129999Y-109955659D01*
X184130000Y-109955659D01*
X184130001Y-109955659D01*
X184188966Y-109950500D01*
X184365408Y-109935063D01*
X184593663Y-109873903D01*
X184807830Y-109774035D01*
X185001401Y-109638495D01*
X185168495Y-109471401D01*
X185304035Y-109277830D01*
X185403903Y-109063663D01*
X185465063Y-108835408D01*
X185485659Y-108600000D01*
X185465063Y-108364592D01*
X185403903Y-108136337D01*
X185304035Y-107922171D01*
X185298731Y-107914595D01*
X185168494Y-107728597D01*
X185001402Y-107561506D01*
X185001395Y-107561501D01*
X184807834Y-107425967D01*
X184807830Y-107425965D01*
X184807828Y-107425964D01*
X184593663Y-107326097D01*
X184593659Y-107326096D01*
X184593655Y-107326094D01*
X184365413Y-107264938D01*
X184365403Y-107264936D01*
X184130001Y-107244341D01*
X184129999Y-107244341D01*
X183894596Y-107264936D01*
X183894586Y-107264938D01*
X183666344Y-107326094D01*
X183666335Y-107326098D01*
X183452171Y-107425964D01*
X183452169Y-107425965D01*
X183258597Y-107561505D01*
X183091505Y-107728597D01*
X182961575Y-107914158D01*
X182906998Y-107957783D01*
X182837500Y-107964977D01*
X182775145Y-107933454D01*
X182758425Y-107914158D01*
X182628494Y-107728597D01*
X182461402Y-107561506D01*
X182461395Y-107561501D01*
X182267834Y-107425967D01*
X182267830Y-107425965D01*
X182267828Y-107425964D01*
X182053663Y-107326097D01*
X182053659Y-107326096D01*
X182053655Y-107326094D01*
X181825413Y-107264938D01*
X181825403Y-107264936D01*
X181590001Y-107244341D01*
X181589999Y-107244341D01*
X181354596Y-107264936D01*
X181354586Y-107264938D01*
X181126344Y-107326094D01*
X181126335Y-107326098D01*
X180912171Y-107425964D01*
X180912169Y-107425965D01*
X180718597Y-107561505D01*
X180551505Y-107728597D01*
X180421575Y-107914158D01*
X180366998Y-107957783D01*
X180297500Y-107964977D01*
X180235145Y-107933454D01*
X180218425Y-107914158D01*
X180088494Y-107728597D01*
X179921402Y-107561506D01*
X179921395Y-107561501D01*
X179727834Y-107425967D01*
X179727830Y-107425965D01*
X179727828Y-107425964D01*
X179513663Y-107326097D01*
X179513659Y-107326096D01*
X179513655Y-107326094D01*
X179285413Y-107264938D01*
X179285403Y-107264936D01*
X179050001Y-107244341D01*
X179049999Y-107244341D01*
X178814596Y-107264936D01*
X178814586Y-107264938D01*
X178586344Y-107326094D01*
X178586335Y-107326098D01*
X178372171Y-107425964D01*
X178372169Y-107425965D01*
X178178597Y-107561505D01*
X178011505Y-107728597D01*
X177881575Y-107914158D01*
X177826998Y-107957783D01*
X177757500Y-107964977D01*
X177695145Y-107933454D01*
X177678425Y-107914158D01*
X177548494Y-107728597D01*
X177381402Y-107561506D01*
X177381395Y-107561501D01*
X177187834Y-107425967D01*
X177187830Y-107425965D01*
X177187828Y-107425964D01*
X176973663Y-107326097D01*
X176973659Y-107326096D01*
X176973655Y-107326094D01*
X176745413Y-107264938D01*
X176745403Y-107264936D01*
X176510001Y-107244341D01*
X176509999Y-107244341D01*
X176274596Y-107264936D01*
X176274586Y-107264938D01*
X176046344Y-107326094D01*
X176046335Y-107326098D01*
X175832171Y-107425964D01*
X175832169Y-107425965D01*
X175638597Y-107561505D01*
X175471505Y-107728597D01*
X175341575Y-107914158D01*
X175286998Y-107957783D01*
X175217500Y-107964977D01*
X175155145Y-107933454D01*
X175138425Y-107914158D01*
X175008494Y-107728597D01*
X174841402Y-107561506D01*
X174841395Y-107561501D01*
X174647834Y-107425967D01*
X174647830Y-107425965D01*
X174647828Y-107425964D01*
X174433663Y-107326097D01*
X174433659Y-107326096D01*
X174433655Y-107326094D01*
X174205413Y-107264938D01*
X174205403Y-107264936D01*
X173970001Y-107244341D01*
X173969999Y-107244341D01*
X173734596Y-107264936D01*
X173734586Y-107264938D01*
X173506344Y-107326094D01*
X173506335Y-107326098D01*
X173292171Y-107425964D01*
X173292169Y-107425965D01*
X173098597Y-107561505D01*
X172931505Y-107728597D01*
X172801575Y-107914158D01*
X172746998Y-107957783D01*
X172677500Y-107964977D01*
X172615145Y-107933454D01*
X172598425Y-107914158D01*
X172468494Y-107728597D01*
X172301402Y-107561506D01*
X172301395Y-107561501D01*
X172107834Y-107425967D01*
X172107830Y-107425965D01*
X172107828Y-107425964D01*
X171893663Y-107326097D01*
X171893659Y-107326096D01*
X171893655Y-107326094D01*
X171665413Y-107264938D01*
X171665403Y-107264936D01*
X171430001Y-107244341D01*
X171429999Y-107244341D01*
X171194596Y-107264936D01*
X171194586Y-107264938D01*
X170966344Y-107326094D01*
X170966335Y-107326098D01*
X170752171Y-107425964D01*
X170752169Y-107425965D01*
X170558597Y-107561505D01*
X170391505Y-107728597D01*
X170261575Y-107914158D01*
X170206998Y-107957783D01*
X170137500Y-107964977D01*
X170075145Y-107933454D01*
X170058425Y-107914158D01*
X169928494Y-107728597D01*
X169761402Y-107561506D01*
X169761395Y-107561501D01*
X169567834Y-107425967D01*
X169567830Y-107425965D01*
X169567828Y-107425964D01*
X169353663Y-107326097D01*
X169353659Y-107326096D01*
X169353655Y-107326094D01*
X169125413Y-107264938D01*
X169125403Y-107264936D01*
X168890001Y-107244341D01*
X168889999Y-107244341D01*
X168654596Y-107264936D01*
X168654586Y-107264938D01*
X168426344Y-107326094D01*
X168426335Y-107326098D01*
X168212171Y-107425964D01*
X168212169Y-107425965D01*
X168018597Y-107561505D01*
X167851505Y-107728597D01*
X167721575Y-107914158D01*
X167666998Y-107957783D01*
X167597500Y-107964977D01*
X167535145Y-107933454D01*
X167518425Y-107914158D01*
X167388494Y-107728597D01*
X167221402Y-107561506D01*
X167221395Y-107561501D01*
X167027834Y-107425967D01*
X167027830Y-107425965D01*
X167027828Y-107425964D01*
X166813663Y-107326097D01*
X166813659Y-107326096D01*
X166813655Y-107326094D01*
X166585413Y-107264938D01*
X166585403Y-107264936D01*
X166350001Y-107244341D01*
X166349999Y-107244341D01*
X166114596Y-107264936D01*
X166114586Y-107264938D01*
X165886344Y-107326094D01*
X165886335Y-107326098D01*
X165672171Y-107425964D01*
X165672169Y-107425965D01*
X165478597Y-107561505D01*
X165311505Y-107728597D01*
X165181575Y-107914158D01*
X165126998Y-107957783D01*
X165057500Y-107964977D01*
X164995145Y-107933454D01*
X164978425Y-107914158D01*
X164848494Y-107728597D01*
X164681402Y-107561506D01*
X164681395Y-107561501D01*
X164487834Y-107425967D01*
X164487830Y-107425965D01*
X164487828Y-107425964D01*
X164273663Y-107326097D01*
X164273659Y-107326096D01*
X164273655Y-107326094D01*
X164045413Y-107264938D01*
X164045403Y-107264936D01*
X163810001Y-107244341D01*
X163809999Y-107244341D01*
X163574596Y-107264936D01*
X163574586Y-107264938D01*
X163346344Y-107326094D01*
X163346335Y-107326098D01*
X163132171Y-107425964D01*
X163132169Y-107425965D01*
X162938597Y-107561505D01*
X162771505Y-107728597D01*
X162641575Y-107914158D01*
X162586998Y-107957783D01*
X162517500Y-107964977D01*
X162455145Y-107933454D01*
X162438425Y-107914158D01*
X162308494Y-107728597D01*
X162141402Y-107561506D01*
X162141395Y-107561501D01*
X161947834Y-107425967D01*
X161947830Y-107425965D01*
X161947828Y-107425964D01*
X161733663Y-107326097D01*
X161733659Y-107326096D01*
X161733655Y-107326094D01*
X161505413Y-107264938D01*
X161505403Y-107264936D01*
X161270001Y-107244341D01*
X161269999Y-107244341D01*
X161034596Y-107264936D01*
X161034586Y-107264938D01*
X160806344Y-107326094D01*
X160806335Y-107326098D01*
X160592171Y-107425964D01*
X160592169Y-107425965D01*
X160398597Y-107561505D01*
X160231505Y-107728597D01*
X160101575Y-107914158D01*
X160046998Y-107957783D01*
X159977500Y-107964977D01*
X159915145Y-107933454D01*
X159898425Y-107914158D01*
X159768494Y-107728597D01*
X159601402Y-107561506D01*
X159601395Y-107561501D01*
X159407834Y-107425967D01*
X159407830Y-107425965D01*
X159407828Y-107425964D01*
X159193663Y-107326097D01*
X159193659Y-107326096D01*
X159193655Y-107326094D01*
X158965413Y-107264938D01*
X158965403Y-107264936D01*
X158730001Y-107244341D01*
X158729999Y-107244341D01*
X158494596Y-107264936D01*
X158494586Y-107264938D01*
X158266344Y-107326094D01*
X158266335Y-107326098D01*
X158052171Y-107425964D01*
X158052169Y-107425965D01*
X157858597Y-107561505D01*
X157691505Y-107728597D01*
X157561575Y-107914158D01*
X157506998Y-107957783D01*
X157437500Y-107964977D01*
X157375145Y-107933454D01*
X157358425Y-107914158D01*
X157228494Y-107728597D01*
X157061402Y-107561506D01*
X157061395Y-107561501D01*
X156867834Y-107425967D01*
X156867830Y-107425965D01*
X156867828Y-107425964D01*
X156653663Y-107326097D01*
X156653659Y-107326096D01*
X156653655Y-107326094D01*
X156425413Y-107264938D01*
X156425403Y-107264936D01*
X156190001Y-107244341D01*
X156189999Y-107244341D01*
X155954596Y-107264936D01*
X155954586Y-107264938D01*
X155726344Y-107326094D01*
X155726335Y-107326098D01*
X155512171Y-107425964D01*
X155512169Y-107425965D01*
X155318597Y-107561505D01*
X155151505Y-107728597D01*
X155021575Y-107914158D01*
X154966998Y-107957783D01*
X154897500Y-107964977D01*
X154835145Y-107933454D01*
X154818425Y-107914158D01*
X154688494Y-107728597D01*
X154521402Y-107561506D01*
X154521395Y-107561501D01*
X154327834Y-107425967D01*
X154327830Y-107425965D01*
X154327828Y-107425964D01*
X154113663Y-107326097D01*
X154113659Y-107326096D01*
X154113655Y-107326094D01*
X153885413Y-107264938D01*
X153885403Y-107264936D01*
X153650001Y-107244341D01*
X153649999Y-107244341D01*
X153414596Y-107264936D01*
X153414586Y-107264938D01*
X153186344Y-107326094D01*
X153186335Y-107326098D01*
X152972171Y-107425964D01*
X152972169Y-107425965D01*
X152778597Y-107561505D01*
X152611505Y-107728597D01*
X152481575Y-107914158D01*
X152426998Y-107957783D01*
X152357500Y-107964977D01*
X152295145Y-107933454D01*
X152278425Y-107914158D01*
X152148494Y-107728597D01*
X151981402Y-107561506D01*
X151981395Y-107561501D01*
X151787834Y-107425967D01*
X151787830Y-107425965D01*
X151787828Y-107425964D01*
X151573663Y-107326097D01*
X151573659Y-107326096D01*
X151573655Y-107326094D01*
X151345413Y-107264938D01*
X151345403Y-107264936D01*
X151110001Y-107244341D01*
X151109999Y-107244341D01*
X150874596Y-107264936D01*
X150874586Y-107264938D01*
X150646344Y-107326094D01*
X150646335Y-107326098D01*
X150432171Y-107425964D01*
X150432169Y-107425965D01*
X150238597Y-107561505D01*
X150071505Y-107728597D01*
X149941575Y-107914158D01*
X149886998Y-107957783D01*
X149817500Y-107964977D01*
X149755145Y-107933454D01*
X149738425Y-107914158D01*
X149608494Y-107728597D01*
X149441402Y-107561506D01*
X149441395Y-107561501D01*
X149247834Y-107425967D01*
X149247830Y-107425965D01*
X149247828Y-107425964D01*
X149033663Y-107326097D01*
X149033659Y-107326096D01*
X149033655Y-107326094D01*
X148805413Y-107264938D01*
X148805403Y-107264936D01*
X148570001Y-107244341D01*
X148569999Y-107244341D01*
X148334596Y-107264936D01*
X148334586Y-107264938D01*
X148106344Y-107326094D01*
X148106335Y-107326098D01*
X147892171Y-107425964D01*
X147892169Y-107425965D01*
X147698597Y-107561505D01*
X147531505Y-107728597D01*
X147401575Y-107914158D01*
X147346998Y-107957783D01*
X147277500Y-107964977D01*
X147215145Y-107933454D01*
X147198425Y-107914158D01*
X147068494Y-107728597D01*
X146901402Y-107561506D01*
X146901395Y-107561501D01*
X146707834Y-107425967D01*
X146707830Y-107425965D01*
X146707828Y-107425964D01*
X146493663Y-107326097D01*
X146493659Y-107326096D01*
X146493655Y-107326094D01*
X146265413Y-107264938D01*
X146265403Y-107264936D01*
X146030001Y-107244341D01*
X146029999Y-107244341D01*
X145794596Y-107264936D01*
X145794586Y-107264938D01*
X145566344Y-107326094D01*
X145566335Y-107326098D01*
X145352171Y-107425964D01*
X145352169Y-107425965D01*
X145158597Y-107561505D01*
X144991505Y-107728597D01*
X144861575Y-107914158D01*
X144806998Y-107957783D01*
X144737500Y-107964977D01*
X144675145Y-107933454D01*
X144658425Y-107914158D01*
X144528494Y-107728597D01*
X144361402Y-107561506D01*
X144361395Y-107561501D01*
X144167834Y-107425967D01*
X144167830Y-107425965D01*
X144167828Y-107425964D01*
X143953663Y-107326097D01*
X143953659Y-107326096D01*
X143953655Y-107326094D01*
X143725413Y-107264938D01*
X143725403Y-107264936D01*
X143490001Y-107244341D01*
X143489999Y-107244341D01*
X143254596Y-107264936D01*
X143254586Y-107264938D01*
X143026344Y-107326094D01*
X143026335Y-107326098D01*
X142812171Y-107425964D01*
X142812169Y-107425965D01*
X142618597Y-107561505D01*
X142451508Y-107728594D01*
X142321269Y-107914595D01*
X142266692Y-107958219D01*
X142197193Y-107965412D01*
X142134839Y-107933890D01*
X142118119Y-107914594D01*
X141988113Y-107728926D01*
X141988108Y-107728920D01*
X141821082Y-107561894D01*
X141627578Y-107426399D01*
X141413492Y-107326570D01*
X141413486Y-107326567D01*
X141200000Y-107269364D01*
X141200000Y-108166988D01*
X141142993Y-108134075D01*
X141015826Y-108100000D01*
X140884174Y-108100000D01*
X140757007Y-108134075D01*
X140700000Y-108166988D01*
X140700000Y-107269364D01*
X140699999Y-107269364D01*
X140486513Y-107326567D01*
X140486507Y-107326570D01*
X140272422Y-107426399D01*
X140272420Y-107426400D01*
X140078926Y-107561886D01*
X140078920Y-107561891D01*
X139911891Y-107728920D01*
X139911890Y-107728922D01*
X139781880Y-107914595D01*
X139727303Y-107958219D01*
X139657804Y-107965412D01*
X139595450Y-107933890D01*
X139578730Y-107914594D01*
X139448494Y-107728597D01*
X139281402Y-107561506D01*
X139281395Y-107561501D01*
X139087834Y-107425967D01*
X139087830Y-107425965D01*
X139087828Y-107425964D01*
X138873663Y-107326097D01*
X138873659Y-107326096D01*
X138873655Y-107326094D01*
X138645413Y-107264938D01*
X138645403Y-107264936D01*
X138410001Y-107244341D01*
X138409999Y-107244341D01*
X138174596Y-107264936D01*
X138174586Y-107264938D01*
X137946344Y-107326094D01*
X137946335Y-107326098D01*
X137732171Y-107425964D01*
X137732169Y-107425965D01*
X137538600Y-107561503D01*
X137416673Y-107683430D01*
X137355350Y-107716914D01*
X137285658Y-107711930D01*
X137229725Y-107670058D01*
X137212810Y-107639081D01*
X137163797Y-107507671D01*
X137163793Y-107507664D01*
X137077547Y-107392455D01*
X137077544Y-107392452D01*
X136962335Y-107306206D01*
X136962328Y-107306202D01*
X136827482Y-107255908D01*
X136827483Y-107255908D01*
X136767883Y-107249501D01*
X136767881Y-107249500D01*
X136767873Y-107249500D01*
X136767864Y-107249500D01*
X134972129Y-107249500D01*
X134972123Y-107249501D01*
X134912516Y-107255908D01*
X134777671Y-107306202D01*
X134777669Y-107306204D01*
X134698811Y-107365237D01*
X134633347Y-107389654D01*
X134565074Y-107374802D01*
X134515668Y-107325397D01*
X134500500Y-107265970D01*
X134500500Y-104004427D01*
X134500816Y-103995581D01*
X134515130Y-103795443D01*
X134515131Y-103795442D01*
X134515130Y-103795436D01*
X134517646Y-103777938D01*
X134559356Y-103586199D01*
X134564333Y-103569248D01*
X134632911Y-103385385D01*
X134640259Y-103369298D01*
X134702815Y-103254734D01*
X134734291Y-103197089D01*
X134743845Y-103182221D01*
X134861448Y-103025123D01*
X134873020Y-103011769D01*
X135011769Y-102873020D01*
X135025123Y-102861448D01*
X135182221Y-102743845D01*
X135197089Y-102734291D01*
X135369298Y-102640258D01*
X135385385Y-102632911D01*
X135569248Y-102564333D01*
X135586199Y-102559356D01*
X135777938Y-102517646D01*
X135795436Y-102515130D01*
X135995582Y-102500816D01*
X136004428Y-102500500D01*
X136065892Y-102500500D01*
X208434108Y-102500500D01*
X208934108Y-102500500D01*
X208995572Y-102500500D01*
X209004418Y-102500816D01*
G37*
%TD.AperFunction*%
%TA.AperFunction,Conductor*%
G36*
X199034075Y-119072993D02*
G01*
X199099901Y-119187007D01*
X199192993Y-119280099D01*
X199307007Y-119345925D01*
X199370590Y-119362962D01*
X198738625Y-119994925D01*
X198814594Y-120048119D01*
X198858219Y-120102696D01*
X198865413Y-120172194D01*
X198833890Y-120234549D01*
X198814595Y-120251269D01*
X198628594Y-120381508D01*
X198461505Y-120548597D01*
X198331575Y-120734158D01*
X198276998Y-120777783D01*
X198207500Y-120784977D01*
X198145145Y-120753454D01*
X198128425Y-120734158D01*
X197998494Y-120548597D01*
X197831402Y-120381506D01*
X197831396Y-120381501D01*
X197645842Y-120251575D01*
X197602217Y-120196998D01*
X197595023Y-120127500D01*
X197626546Y-120065145D01*
X197645842Y-120048425D01*
X197727932Y-119990945D01*
X197831401Y-119918495D01*
X197998495Y-119751401D01*
X198128732Y-119565403D01*
X198183307Y-119521780D01*
X198252805Y-119514586D01*
X198315160Y-119546109D01*
X198331880Y-119565405D01*
X198385073Y-119641373D01*
X199017037Y-119009409D01*
X199034075Y-119072993D01*
G37*
%TD.AperFunction*%
%TD*%
M02*
