%TF.GenerationSoftware,KiCad,Pcbnew,8.0.4*%
%TF.CreationDate,2024-08-16T15:48:25+02:00*%
%TF.ProjectId,picoSPI,7069636f-5350-4492-9e6b-696361645f70,rev?*%
%TF.SameCoordinates,Original*%
%TF.FileFunction,Legend,Bot*%
%TF.FilePolarity,Positive*%
%FSLAX46Y46*%
G04 Gerber Fmt 4.6, Leading zero omitted, Abs format (unit mm)*
G04 Created by KiCad (PCBNEW 8.0.4) date 2024-08-16 15:48:25*
%MOMM*%
%LPD*%
G01*
G04 APERTURE LIST*
G04 Aperture macros list*
%AMRoundRect*
0 Rectangle with rounded corners*
0 $1 Rounding radius*
0 $2 $3 $4 $5 $6 $7 $8 $9 X,Y pos of 4 corners*
0 Add a 4 corners polygon primitive as box body*
4,1,4,$2,$3,$4,$5,$6,$7,$8,$9,$2,$3,0*
0 Add four circle primitives for the rounded corners*
1,1,$1+$1,$2,$3*
1,1,$1+$1,$4,$5*
1,1,$1+$1,$6,$7*
1,1,$1+$1,$8,$9*
0 Add four rect primitives between the rounded corners*
20,1,$1+$1,$2,$3,$4,$5,0*
20,1,$1+$1,$4,$5,$6,$7,0*
20,1,$1+$1,$6,$7,$8,$9,0*
20,1,$1+$1,$8,$9,$2,$3,0*%
G04 Aperture macros list end*
%ADD10C,0.000000*%
%ADD11RoundRect,0.250000X0.600000X0.600000X-0.600000X0.600000X-0.600000X-0.600000X0.600000X-0.600000X0*%
%ADD12C,1.700000*%
%ADD13O,1.800000X1.800000*%
%ADD14O,1.500000X1.500000*%
%ADD15O,1.700000X1.700000*%
%ADD16R,1.700000X1.700000*%
G04 APERTURE END LIST*
D10*
%TO.C,G\u002A\u002A\u002A*%
G36*
X163648915Y-109893987D02*
G01*
X163675778Y-109904964D01*
X163746423Y-109933831D01*
X163812608Y-109981670D01*
X163919540Y-110072247D01*
X164049057Y-110191035D01*
X164190977Y-110328163D01*
X164335115Y-110473759D01*
X164471289Y-110617954D01*
X164589316Y-110750876D01*
X164652975Y-110827969D01*
X164850455Y-111092979D01*
X165056864Y-111404980D01*
X165266661Y-111754072D01*
X165474307Y-112130356D01*
X165674262Y-112523933D01*
X165860986Y-112924902D01*
X166028939Y-113323365D01*
X166074583Y-113439827D01*
X166174240Y-113704689D01*
X166274921Y-113985022D01*
X166372555Y-114268606D01*
X166463070Y-114543220D01*
X166542395Y-114796643D01*
X166606457Y-115016655D01*
X166651186Y-115191035D01*
X166713426Y-115463981D01*
X166766955Y-115700541D01*
X166811281Y-115899267D01*
X166848921Y-116071879D01*
X166882393Y-116230099D01*
X166914217Y-116385650D01*
X166946909Y-116550253D01*
X166982987Y-116735630D01*
X167017963Y-116915344D01*
X167052249Y-117089202D01*
X167081755Y-117236486D01*
X167104164Y-117345620D01*
X167117155Y-117405034D01*
X167117713Y-117407303D01*
X167127324Y-117437303D01*
X167141310Y-117449386D01*
X167165000Y-117438082D01*
X167203721Y-117397922D01*
X167262801Y-117323437D01*
X167347567Y-117209156D01*
X167463347Y-117049609D01*
X167689164Y-116743770D01*
X168140758Y-116171845D01*
X168593119Y-115653271D01*
X169051698Y-115182292D01*
X169521944Y-114753149D01*
X170009308Y-114360087D01*
X170071935Y-114313396D01*
X170420008Y-114077081D01*
X170790784Y-113860313D01*
X171171895Y-113668906D01*
X171550976Y-113508674D01*
X171915660Y-113385430D01*
X172253581Y-113304989D01*
X172381104Y-113289599D01*
X172555356Y-113279068D01*
X172703401Y-113275161D01*
X172756546Y-113273759D01*
X172966873Y-113273673D01*
X173168537Y-113278814D01*
X173343737Y-113289184D01*
X173474674Y-113304788D01*
X173529117Y-113315210D01*
X173836397Y-113398841D01*
X174163437Y-113524669D01*
X174496360Y-113685454D01*
X174821288Y-113873952D01*
X175124343Y-114082923D01*
X175391646Y-114305124D01*
X175563267Y-114463847D01*
X177185872Y-114437392D01*
X177510767Y-114432317D01*
X177859973Y-114427309D01*
X178205918Y-114422767D01*
X178538746Y-114418803D01*
X178848602Y-114415528D01*
X179125628Y-114413051D01*
X179359969Y-114411484D01*
X179541769Y-114410937D01*
X179618179Y-114410944D01*
X179833817Y-114411303D01*
X179999067Y-114412816D01*
X180123160Y-114416314D01*
X180215327Y-114422629D01*
X180284801Y-114432592D01*
X180340814Y-114447034D01*
X180392597Y-114466788D01*
X180449381Y-114492685D01*
X180620649Y-114593950D01*
X180789646Y-114744979D01*
X180912927Y-114918606D01*
X180913815Y-114920293D01*
X180925521Y-114944597D01*
X180935618Y-114972646D01*
X180944230Y-115008954D01*
X180951478Y-115058032D01*
X180957484Y-115124393D01*
X180962370Y-115212549D01*
X180966258Y-115327014D01*
X180969270Y-115472299D01*
X180971527Y-115652916D01*
X180973152Y-115873380D01*
X180974267Y-116138201D01*
X180974994Y-116451892D01*
X180975454Y-116818967D01*
X180975770Y-117243937D01*
X180975963Y-117627394D01*
X180975965Y-118000715D01*
X180975634Y-118320171D01*
X180974856Y-118590273D01*
X180973519Y-118815527D01*
X180971511Y-119000443D01*
X180968720Y-119149529D01*
X180965033Y-119267295D01*
X180960338Y-119358248D01*
X180954521Y-119426897D01*
X180947472Y-119477751D01*
X180939076Y-119515319D01*
X180929223Y-119544109D01*
X180917799Y-119568629D01*
X180897512Y-119605895D01*
X180757475Y-119787362D01*
X180569730Y-119932062D01*
X180338303Y-120037477D01*
X180067218Y-120101088D01*
X180043913Y-120104560D01*
X179762897Y-120166627D01*
X179519157Y-120263586D01*
X179295310Y-120402218D01*
X179115493Y-120557483D01*
X178917828Y-120800253D01*
X178761935Y-121087338D01*
X178649421Y-121416219D01*
X178646249Y-121428850D01*
X178614498Y-121615040D01*
X178597036Y-121840584D01*
X178593625Y-122085733D01*
X178604030Y-122330734D01*
X178628011Y-122555837D01*
X178665333Y-122741291D01*
X178695890Y-122844071D01*
X178805017Y-123117177D01*
X178948708Y-123354107D01*
X179136410Y-123571516D01*
X179285475Y-123707045D01*
X179479602Y-123838563D01*
X179694805Y-123931756D01*
X179950403Y-123996715D01*
X179966974Y-123999901D01*
X180144170Y-124034811D01*
X180274656Y-124063442D01*
X180372081Y-124090061D01*
X180450097Y-124118934D01*
X180522355Y-124154326D01*
X180602504Y-124200503D01*
X180635366Y-124220904D01*
X180769780Y-124330327D01*
X180875538Y-124473023D01*
X180977149Y-124643065D01*
X180977149Y-126853367D01*
X180977149Y-126929725D01*
X180977083Y-127344543D01*
X180976825Y-127702245D01*
X180976253Y-128007355D01*
X180975246Y-128264396D01*
X180973683Y-128477894D01*
X180971443Y-128652372D01*
X180968403Y-128792354D01*
X180964442Y-128902364D01*
X180959440Y-128986927D01*
X180953274Y-129050567D01*
X180945824Y-129097807D01*
X180936967Y-129133172D01*
X180926583Y-129161186D01*
X180914550Y-129186374D01*
X180837421Y-129314956D01*
X180685701Y-129480262D01*
X180487932Y-129608814D01*
X180306265Y-129700863D01*
X179190719Y-129700863D01*
X178946970Y-129701241D01*
X178709705Y-129702397D01*
X178499917Y-129704237D01*
X178324591Y-129706661D01*
X178190714Y-129709572D01*
X178105273Y-129712873D01*
X178075252Y-129716465D01*
X178080130Y-129732061D01*
X178104909Y-129795230D01*
X178145910Y-129894199D01*
X178197790Y-130015910D01*
X178285000Y-130233041D01*
X178414517Y-130642469D01*
X178504520Y-131071432D01*
X178557079Y-131531010D01*
X178574263Y-132032284D01*
X178573694Y-132136660D01*
X178550773Y-132649231D01*
X178492950Y-133117354D01*
X178398289Y-133548387D01*
X178264853Y-133949686D01*
X178090704Y-134328608D01*
X177873906Y-134692512D01*
X177787164Y-134814587D01*
X177537245Y-135103293D01*
X177241288Y-135372586D01*
X176910709Y-135612744D01*
X176556923Y-135814045D01*
X176047098Y-136041029D01*
X175465034Y-136250242D01*
X174838044Y-136429367D01*
X174171957Y-136576746D01*
X173472604Y-136690721D01*
X173148256Y-136738275D01*
X172799852Y-136797803D01*
X172480576Y-136861435D01*
X172201504Y-136926944D01*
X171973712Y-136992104D01*
X171942854Y-137002402D01*
X171640532Y-137134740D01*
X171346333Y-137318372D01*
X171075719Y-137543798D01*
X170959682Y-137673322D01*
X170828337Y-137852821D01*
X170692702Y-138066241D01*
X170560468Y-138300701D01*
X170439326Y-138543317D01*
X170336967Y-138781207D01*
X170320779Y-138821448D01*
X170269731Y-138935585D01*
X170222787Y-139023867D01*
X170188414Y-139069843D01*
X170178135Y-139076949D01*
X170091866Y-139105154D01*
X169996378Y-139101182D01*
X169923319Y-139065548D01*
X169918467Y-139058334D01*
X169898030Y-138996810D01*
X169872514Y-138885005D01*
X169843296Y-138731993D01*
X169811754Y-138546848D01*
X169779263Y-138338646D01*
X169747202Y-138116461D01*
X169716946Y-137889367D01*
X169689873Y-137666439D01*
X169667360Y-137456752D01*
X169650783Y-137269380D01*
X169622939Y-136690830D01*
X169626534Y-136472051D01*
X170242953Y-136472051D01*
X170243521Y-136610167D01*
X170250458Y-136705582D01*
X170270673Y-136774245D01*
X170311074Y-136832101D01*
X170378567Y-136895097D01*
X170480062Y-136979180D01*
X170522776Y-137013570D01*
X170576469Y-137043146D01*
X170622121Y-137031513D01*
X170684713Y-136978600D01*
X170729800Y-136940824D01*
X170821394Y-136872733D01*
X170923299Y-136803726D01*
X170999084Y-136754521D01*
X171061530Y-136712667D01*
X171085503Y-136694714D01*
X171076728Y-136687616D01*
X171026938Y-136652816D01*
X170942976Y-136595999D01*
X170836133Y-136524855D01*
X170797381Y-136498628D01*
X170662209Y-136399684D01*
X170533681Y-136295918D01*
X170435162Y-136205912D01*
X170430368Y-136201061D01*
X170353244Y-136128711D01*
X170293344Y-136082482D01*
X170263280Y-136072185D01*
X170256527Y-136098396D01*
X170249525Y-136176477D01*
X170244758Y-136292219D01*
X170242997Y-136431929D01*
X170242953Y-136472051D01*
X169626534Y-136472051D01*
X169633738Y-136033709D01*
X169691978Y-135411399D01*
X169759942Y-135034195D01*
X170407886Y-135034195D01*
X170408127Y-135114425D01*
X170435214Y-135188226D01*
X170494793Y-135272564D01*
X170592511Y-135384404D01*
X170686222Y-135487251D01*
X170837948Y-135647992D01*
X170967711Y-135774444D01*
X171086816Y-135875872D01*
X171206565Y-135961539D01*
X171338260Y-136040711D01*
X171493205Y-136122651D01*
X171506748Y-136129501D01*
X171646122Y-136197642D01*
X171768740Y-136253612D01*
X171861778Y-136291784D01*
X171912407Y-136306531D01*
X171914534Y-136306581D01*
X171972017Y-136300359D01*
X172075328Y-136283133D01*
X172210489Y-136257406D01*
X172363523Y-136225684D01*
X172384493Y-136221157D01*
X172528863Y-136189444D01*
X172647540Y-136162443D01*
X172728737Y-136142891D01*
X172760665Y-136133523D01*
X172749080Y-136124586D01*
X172693369Y-136099897D01*
X172605986Y-136066831D01*
X172580423Y-136057606D01*
X172368416Y-135974882D01*
X172145846Y-135878492D01*
X171924249Y-135774268D01*
X171715161Y-135668042D01*
X171530117Y-135565646D01*
X171380654Y-135472910D01*
X171278306Y-135395666D01*
X171255099Y-135375859D01*
X171185299Y-135319011D01*
X171087863Y-135241352D01*
X170976289Y-135153697D01*
X170914398Y-135105316D01*
X170795800Y-135012131D01*
X170692248Y-134930195D01*
X170620861Y-134873025D01*
X170593680Y-134850998D01*
X170523016Y-134798506D01*
X170482464Y-134788815D01*
X170457661Y-134824685D01*
X170434242Y-134908875D01*
X170428844Y-134930569D01*
X170407886Y-135034195D01*
X169759942Y-135034195D01*
X169797443Y-134826060D01*
X169949916Y-134279854D01*
X170030377Y-134057850D01*
X170043347Y-134026808D01*
X170773464Y-134026808D01*
X170785640Y-134056822D01*
X170839432Y-134126302D01*
X170929058Y-134221027D01*
X171046736Y-134333334D01*
X171184688Y-134455561D01*
X171335135Y-134580045D01*
X171337777Y-134582155D01*
X171453227Y-134674975D01*
X171549992Y-134753906D01*
X171617999Y-134810655D01*
X171647174Y-134836928D01*
X171668489Y-134856560D01*
X171737474Y-134906020D01*
X171836578Y-134970215D01*
X171950682Y-135039985D01*
X172064668Y-135106169D01*
X172163418Y-135159608D01*
X172231814Y-135191142D01*
X172302892Y-135219679D01*
X172418213Y-135271059D01*
X172536486Y-135327961D01*
X172632920Y-135373776D01*
X172910679Y-135484817D01*
X173228806Y-135587685D01*
X173571592Y-135678060D01*
X173923328Y-135751624D01*
X174268304Y-135804058D01*
X174373660Y-135816207D01*
X174476578Y-135824271D01*
X174564042Y-135822587D01*
X174654925Y-135809328D01*
X174768098Y-135782669D01*
X174922433Y-135740785D01*
X175260833Y-135637972D01*
X175596285Y-135518371D01*
X175914649Y-135387716D01*
X176204744Y-135250926D01*
X176455389Y-135112918D01*
X176655405Y-134978608D01*
X176770088Y-134890472D01*
X176873927Y-134809000D01*
X176937183Y-134756112D01*
X176965135Y-134726955D01*
X176963062Y-134716675D01*
X176936240Y-134720422D01*
X176752731Y-134755042D01*
X176517467Y-134783180D01*
X176245992Y-134803986D01*
X175951317Y-134817229D01*
X175646457Y-134822680D01*
X175344424Y-134820109D01*
X175058231Y-134809285D01*
X174800889Y-134789980D01*
X174585413Y-134761962D01*
X174566421Y-134758700D01*
X174114858Y-134667893D01*
X173691369Y-134557379D01*
X173307137Y-134430430D01*
X172973341Y-134290315D01*
X172965490Y-134286572D01*
X172843649Y-134229848D01*
X172730873Y-134179538D01*
X172650662Y-134146142D01*
X172539386Y-134092777D01*
X172383526Y-133997837D01*
X172205578Y-133874039D01*
X172016705Y-133729936D01*
X171828067Y-133574084D01*
X171650826Y-133415035D01*
X171496143Y-133261343D01*
X171456133Y-133219313D01*
X171386351Y-133152422D01*
X171338909Y-133125001D01*
X171300611Y-133131864D01*
X171258260Y-133167822D01*
X171214832Y-133218011D01*
X171141618Y-133319926D01*
X171059602Y-133447982D01*
X170976096Y-133589221D01*
X170898415Y-133730682D01*
X170833874Y-133859406D01*
X170789785Y-133962435D01*
X170773464Y-134026808D01*
X170043347Y-134026808D01*
X170149551Y-133772620D01*
X170263280Y-133532671D01*
X170282940Y-133491192D01*
X170423320Y-133227780D01*
X170482464Y-133130217D01*
X170563466Y-132996597D01*
X170696152Y-132811857D01*
X170728436Y-132771997D01*
X170882288Y-132587115D01*
X171803194Y-132587115D01*
X171804194Y-132590054D01*
X171834180Y-132627334D01*
X171899613Y-132696976D01*
X171992020Y-132790612D01*
X172102928Y-132899873D01*
X172223862Y-133016390D01*
X172346350Y-133131794D01*
X172461918Y-133237715D01*
X172508287Y-133274591D01*
X172624687Y-133351497D01*
X172779114Y-133441997D01*
X172959265Y-133539712D01*
X173152836Y-133638259D01*
X173347524Y-133731260D01*
X173531024Y-133812333D01*
X173691031Y-133875098D01*
X173916907Y-133949375D01*
X174328411Y-134056020D01*
X174755450Y-134133855D01*
X175189160Y-134182886D01*
X175620676Y-134203118D01*
X176041132Y-134194558D01*
X176441664Y-134157211D01*
X176813406Y-134091085D01*
X177147493Y-133996185D01*
X177435060Y-133872517D01*
X177478757Y-133849201D01*
X177575657Y-133792518D01*
X177636475Y-133742307D01*
X177676451Y-133683581D01*
X177710825Y-133601354D01*
X177716605Y-133585238D01*
X177752486Y-133469943D01*
X177791233Y-133325785D01*
X177825408Y-133180101D01*
X177837395Y-133119269D01*
X177864586Y-132948348D01*
X177887941Y-132759419D01*
X177903417Y-132583412D01*
X177924626Y-132251956D01*
X177602055Y-132354160D01*
X177439338Y-132400439D01*
X177104087Y-132471083D01*
X176740756Y-132521045D01*
X176369925Y-132548455D01*
X176012174Y-132551441D01*
X175688083Y-132528134D01*
X175668422Y-132525708D01*
X175496134Y-132504506D01*
X175312720Y-132482009D01*
X175154711Y-132462699D01*
X174995524Y-132435293D01*
X174752974Y-132373250D01*
X174480563Y-132285369D01*
X174191001Y-132176184D01*
X173896996Y-132050229D01*
X173611260Y-131912038D01*
X173157040Y-131678192D01*
X172846763Y-131856666D01*
X172733405Y-131922788D01*
X172627394Y-131986627D01*
X172552723Y-132033919D01*
X172520884Y-132057579D01*
X172518511Y-132060278D01*
X172478197Y-132091951D01*
X172401833Y-132145167D01*
X172303552Y-132210014D01*
X172284545Y-132222313D01*
X172189007Y-132285769D01*
X172117793Y-132335734D01*
X172085125Y-132362293D01*
X172070592Y-132376029D01*
X172014862Y-132418923D01*
X171935810Y-132474543D01*
X171887419Y-132508939D01*
X171826860Y-132558211D01*
X171803194Y-132587115D01*
X170882288Y-132587115D01*
X170892160Y-132575252D01*
X171047700Y-132399903D01*
X171202084Y-132240310D01*
X171338909Y-132112686D01*
X171362339Y-132090832D01*
X171535494Y-131945829D01*
X171728576Y-131799658D01*
X171948613Y-131646681D01*
X172202631Y-131481255D01*
X172497659Y-131297741D01*
X172541587Y-131271204D01*
X173831449Y-131271204D01*
X173838641Y-131280139D01*
X173888822Y-131314213D01*
X173976383Y-131364236D01*
X174088882Y-131422879D01*
X174213158Y-131481944D01*
X174557220Y-131619064D01*
X174929523Y-131734940D01*
X175314518Y-131826220D01*
X175696657Y-131889550D01*
X176060391Y-131921581D01*
X176390172Y-131918959D01*
X176460457Y-131913032D01*
X176666288Y-131886654D01*
X176894701Y-131847201D01*
X177128747Y-131798389D01*
X177351476Y-131743933D01*
X177545938Y-131687546D01*
X177695185Y-131632943D01*
X177887960Y-131549339D01*
X177885206Y-131358394D01*
X177880581Y-131270386D01*
X177862340Y-131113563D01*
X177835556Y-130969329D01*
X177820123Y-130900782D01*
X177803274Y-130838312D01*
X177779783Y-130802458D01*
X177738894Y-130791027D01*
X177669854Y-130801822D01*
X177561907Y-130832650D01*
X177404299Y-130881315D01*
X177210979Y-130935023D01*
X176724629Y-131026695D01*
X176225102Y-131062937D01*
X175723068Y-131043914D01*
X175229198Y-130969789D01*
X174754161Y-130840725D01*
X174653296Y-130806900D01*
X174546087Y-130776862D01*
X174467812Y-130772115D01*
X174400509Y-130796220D01*
X174326213Y-130852740D01*
X174226962Y-130945233D01*
X174191521Y-130977633D01*
X174079397Y-131071291D01*
X173969529Y-131153454D01*
X173915723Y-131192282D01*
X173855056Y-131242280D01*
X173831449Y-131271204D01*
X172541587Y-131271204D01*
X172840724Y-131090497D01*
X172936541Y-131033059D01*
X173068884Y-130953277D01*
X173157040Y-130899668D01*
X173174532Y-130889031D01*
X173244510Y-130845791D01*
X173269846Y-130829022D01*
X173257732Y-130828067D01*
X173195951Y-130828244D01*
X173093639Y-130830274D01*
X172964126Y-130833942D01*
X172812234Y-130834838D01*
X172508631Y-130817919D01*
X172196192Y-130779583D01*
X171898290Y-130723046D01*
X171638302Y-130651524D01*
X171470604Y-130589981D01*
X171144139Y-130444344D01*
X170797722Y-130260659D01*
X170787211Y-130254303D01*
X175074673Y-130254303D01*
X175086267Y-130263685D01*
X175163771Y-130298286D01*
X175288263Y-130332665D01*
X175447724Y-130364649D01*
X175630134Y-130392065D01*
X175823474Y-130412738D01*
X176015724Y-130424494D01*
X176159979Y-130427229D01*
X176553412Y-130406965D01*
X176928308Y-130342254D01*
X177306478Y-130229804D01*
X177341552Y-130217136D01*
X177444860Y-130176934D01*
X177516680Y-130144488D01*
X177543182Y-130125871D01*
X177542771Y-130123846D01*
X177525167Y-130081885D01*
X177486980Y-130002094D01*
X177435489Y-129899757D01*
X177329331Y-129693001D01*
X176531994Y-129670002D01*
X175734658Y-129647004D01*
X175610766Y-129751943D01*
X175559214Y-129795663D01*
X175385181Y-129944453D01*
X175254189Y-130058932D01*
X175161940Y-130143129D01*
X175104137Y-130201072D01*
X175076480Y-130236787D01*
X175074673Y-130254303D01*
X170787211Y-130254303D01*
X170443092Y-130046216D01*
X170091986Y-129808300D01*
X169756141Y-129554201D01*
X169447297Y-129291205D01*
X169355413Y-129207260D01*
X169207369Y-129070540D01*
X169068951Y-128941067D01*
X168952416Y-128830337D01*
X168870024Y-128749846D01*
X168768262Y-128644207D01*
X168639598Y-128504912D01*
X168496493Y-128345713D01*
X168347060Y-128176001D01*
X168199412Y-128005168D01*
X168061664Y-127842606D01*
X167941929Y-127697706D01*
X167848319Y-127579859D01*
X167788948Y-127498457D01*
X167740615Y-127427758D01*
X167647746Y-127300693D01*
X167560795Y-127190524D01*
X167548517Y-127175667D01*
X167468176Y-127073050D01*
X167374489Y-126946903D01*
X167285282Y-126821125D01*
X167128639Y-126593720D01*
X167091113Y-126821125D01*
X167052698Y-127039519D01*
X166998869Y-127320481D01*
X166935444Y-127633263D01*
X166865633Y-127963017D01*
X166792643Y-128294895D01*
X166719686Y-128614049D01*
X166649969Y-128905631D01*
X166586702Y-129154794D01*
X166571322Y-129211728D01*
X166487505Y-129494914D01*
X166382695Y-129815668D01*
X166262172Y-130160006D01*
X166131214Y-130513940D01*
X165995100Y-130863486D01*
X165859111Y-131194658D01*
X165728525Y-131493469D01*
X165608622Y-131745934D01*
X165544702Y-131868566D01*
X165434906Y-132066472D01*
X165308336Y-132283789D01*
X165172674Y-132508099D01*
X165035598Y-132726984D01*
X164904791Y-132928026D01*
X164787930Y-133098807D01*
X164692698Y-133226907D01*
X164668024Y-133257589D01*
X164491348Y-133465134D01*
X164303795Y-133667085D01*
X164116895Y-133851964D01*
X163942175Y-134008292D01*
X163791164Y-134124590D01*
X163670349Y-134201769D01*
X163545385Y-134259931D01*
X163448099Y-134268727D01*
X163369867Y-134225845D01*
X163302067Y-134128973D01*
X163236073Y-133975802D01*
X163233165Y-133968047D01*
X163160322Y-133790958D01*
X163074566Y-133607905D01*
X162984332Y-133435086D01*
X162898057Y-133288699D01*
X162824178Y-133184943D01*
X162738452Y-133083132D01*
X162376299Y-133443656D01*
X162342349Y-133477408D01*
X162213747Y-133603620D01*
X162118357Y-133692695D01*
X162047867Y-133750961D01*
X161993964Y-133784745D01*
X161948335Y-133800376D01*
X161902668Y-133804180D01*
X161886636Y-133803951D01*
X161804041Y-133790097D01*
X161740929Y-133747136D01*
X161686655Y-133664387D01*
X161630574Y-133531166D01*
X161628706Y-133526177D01*
X161594762Y-133439528D01*
X161559219Y-133360284D01*
X161516277Y-133278760D01*
X161460139Y-133185272D01*
X161385006Y-133070137D01*
X161285079Y-132923670D01*
X161154560Y-132736187D01*
X160876781Y-132339078D01*
X160684275Y-132357651D01*
X160595219Y-132369800D01*
X160490399Y-132393280D01*
X160421961Y-132419773D01*
X160374685Y-132460821D01*
X160303328Y-132563674D01*
X160244046Y-132696257D01*
X160207013Y-132838742D01*
X160198404Y-132891614D01*
X160185002Y-132950574D01*
X160163448Y-132996256D01*
X160126961Y-133030354D01*
X160068757Y-133054561D01*
X159982056Y-133070570D01*
X159860075Y-133080075D01*
X159696033Y-133084767D01*
X159483147Y-133086341D01*
X159214636Y-133086489D01*
X159026094Y-133086491D01*
X158800712Y-133085783D01*
X158625922Y-133082882D01*
X158494728Y-133076278D01*
X158400138Y-133064465D01*
X158335157Y-133045933D01*
X158292793Y-133019175D01*
X158266052Y-132982682D01*
X158247939Y-132934946D01*
X158231463Y-132874459D01*
X158221743Y-132837700D01*
X158174708Y-132651699D01*
X158125529Y-132446267D01*
X158078777Y-132241332D01*
X158039025Y-132056822D01*
X158010843Y-131912668D01*
X157971332Y-131690566D01*
X157492317Y-131982589D01*
X157413007Y-132029861D01*
X157227726Y-132135188D01*
X157006221Y-132256165D01*
X156758577Y-132387682D01*
X156494879Y-132524629D01*
X156225211Y-132661897D01*
X155959658Y-132794376D01*
X155708305Y-132916958D01*
X155481237Y-133024533D01*
X155288539Y-133111992D01*
X155140294Y-133174225D01*
X155115047Y-133183923D01*
X154966605Y-133237190D01*
X154776539Y-133301088D01*
X154560113Y-133370845D01*
X154332594Y-133441692D01*
X154109245Y-133508857D01*
X153905331Y-133567570D01*
X153736117Y-133613060D01*
X153686711Y-133625504D01*
X153441630Y-133682922D01*
X153219761Y-133725516D01*
X153004020Y-133755248D01*
X152777322Y-133774080D01*
X152522586Y-133783975D01*
X152222727Y-133786895D01*
X152061471Y-133786630D01*
X151866985Y-133784675D01*
X151714705Y-133780048D01*
X151592581Y-133771847D01*
X151488558Y-133759168D01*
X151390585Y-133741109D01*
X151286609Y-133716767D01*
X151149954Y-133676816D01*
X150979440Y-133615544D01*
X150803958Y-133542895D01*
X150636403Y-133464911D01*
X150489668Y-133387630D01*
X150376646Y-133317095D01*
X150310231Y-133259345D01*
X150286922Y-133220370D01*
X150244444Y-133114626D01*
X150199579Y-132968150D01*
X150155822Y-132794070D01*
X150148406Y-132758358D01*
X150873310Y-132758358D01*
X150878376Y-132825780D01*
X150878489Y-132826067D01*
X150914549Y-132860639D01*
X150991696Y-132908360D01*
X151093401Y-132958989D01*
X151193392Y-133000668D01*
X151539124Y-133103417D01*
X151922953Y-133160106D01*
X152342016Y-133170915D01*
X152793453Y-133136021D01*
X153274402Y-133055601D01*
X153782001Y-132929833D01*
X154313390Y-132758896D01*
X154320129Y-132756493D01*
X154470407Y-132703809D01*
X154605922Y-132657845D01*
X154712043Y-132623471D01*
X154774144Y-132605555D01*
X154821578Y-132590757D01*
X154927147Y-132549379D01*
X155068579Y-132488491D01*
X155234447Y-132413305D01*
X155413320Y-132329030D01*
X155593772Y-132240879D01*
X155764373Y-132154062D01*
X155833728Y-132117994D01*
X155999141Y-132032465D01*
X156177843Y-131940560D01*
X156341646Y-131856796D01*
X156427717Y-131811287D01*
X156587235Y-131722120D01*
X156771298Y-131615060D01*
X156963409Y-131499752D01*
X157147069Y-131385843D01*
X157295906Y-131291957D01*
X157450477Y-131194960D01*
X157584416Y-131111433D01*
X157687039Y-131048035D01*
X157747661Y-131011428D01*
X157769704Y-130997851D01*
X157828471Y-130951748D01*
X157849328Y-130917816D01*
X157847076Y-130901168D01*
X157840122Y-130832365D01*
X157832083Y-130737982D01*
X157831922Y-130735940D01*
X157824560Y-130669129D01*
X157809025Y-130616495D01*
X157777072Y-130571688D01*
X157720459Y-130528357D01*
X157630938Y-130480152D01*
X157500267Y-130420723D01*
X157407506Y-130381055D01*
X159864545Y-130381055D01*
X159917329Y-130417040D01*
X160032841Y-130504739D01*
X160169175Y-130615745D01*
X160311340Y-130737409D01*
X160444345Y-130857083D01*
X160553200Y-130962117D01*
X160739446Y-131151846D01*
X161130472Y-131149653D01*
X161138059Y-131149606D01*
X161291923Y-131146921D01*
X161425809Y-131141498D01*
X161525575Y-131134103D01*
X161577077Y-131125500D01*
X161590115Y-131103472D01*
X161554317Y-131063254D01*
X161472283Y-131009799D01*
X161350799Y-130946608D01*
X161196652Y-130877181D01*
X161016627Y-130805020D01*
X160817512Y-130733626D01*
X160811771Y-130731682D01*
X160625132Y-130666561D01*
X160428944Y-130595050D01*
X160246182Y-130525683D01*
X160099822Y-130466996D01*
X160005276Y-130428097D01*
X159915939Y-130393306D01*
X159866040Y-130376534D01*
X159864545Y-130381055D01*
X157407506Y-130381055D01*
X157320201Y-130343720D01*
X157276718Y-130324942D01*
X159758476Y-130324942D01*
X159774078Y-130340544D01*
X159789680Y-130324942D01*
X159774078Y-130309340D01*
X159758476Y-130324942D01*
X157276718Y-130324942D01*
X157204462Y-130293738D01*
X159696068Y-130293738D01*
X159711670Y-130309340D01*
X159727272Y-130293738D01*
X159711670Y-130278136D01*
X159696068Y-130293738D01*
X157204462Y-130293738D01*
X157202195Y-130292759D01*
X157134607Y-130262534D01*
X159633660Y-130262534D01*
X159649262Y-130278136D01*
X159664864Y-130262534D01*
X159649262Y-130246932D01*
X159633660Y-130262534D01*
X157134607Y-130262534D01*
X157064829Y-130231330D01*
X159571253Y-130231330D01*
X159586855Y-130246932D01*
X159602457Y-130231330D01*
X159586855Y-130215728D01*
X159571253Y-130231330D01*
X157064829Y-130231330D01*
X157016083Y-130209531D01*
X156834824Y-130125631D01*
X156684889Y-130053166D01*
X156609862Y-130016367D01*
X156602429Y-130012902D01*
X159259213Y-130012902D01*
X159274815Y-130028504D01*
X159290417Y-130012902D01*
X159274815Y-129997300D01*
X159259213Y-130012902D01*
X156602429Y-130012902D01*
X156486510Y-129958863D01*
X156385433Y-129915392D01*
X156323206Y-129893281D01*
X156305353Y-129887529D01*
X156224695Y-129850140D01*
X156105979Y-129786094D01*
X155959160Y-129701585D01*
X155794191Y-129602810D01*
X155621026Y-129495965D01*
X155449620Y-129387247D01*
X155289925Y-129282851D01*
X155151896Y-129188974D01*
X155045487Y-129111811D01*
X154980652Y-129057559D01*
X154934377Y-129018854D01*
X154891460Y-128998775D01*
X154886415Y-128997884D01*
X154836944Y-128970028D01*
X154752716Y-128908665D01*
X154642758Y-128821304D01*
X154516097Y-128715456D01*
X154381760Y-128598631D01*
X154248774Y-128478339D01*
X154126167Y-128362090D01*
X154047174Y-128286635D01*
X153928663Y-128178720D01*
X153821612Y-128086913D01*
X153742188Y-128025390D01*
X153607841Y-127932462D01*
X153539363Y-128006996D01*
X153488645Y-128066069D01*
X153398831Y-128179861D01*
X153296826Y-128316091D01*
X153195225Y-128457491D01*
X153106620Y-128586795D01*
X153043606Y-128686735D01*
X153018010Y-128728809D01*
X152945373Y-128834512D01*
X152876688Y-128919397D01*
X152835728Y-128966360D01*
X152742983Y-129083412D01*
X152627894Y-129237905D01*
X152497249Y-129420052D01*
X152357832Y-129620062D01*
X152216431Y-129828146D01*
X152079833Y-130034515D01*
X151954825Y-130229380D01*
X151848191Y-130402951D01*
X151838059Y-130419889D01*
X151778714Y-130516717D01*
X151732230Y-130588721D01*
X151707932Y-130621379D01*
X151700822Y-130628101D01*
X151656457Y-130690955D01*
X151594687Y-130800502D01*
X151519803Y-130947383D01*
X151436096Y-131122234D01*
X151347858Y-131315697D01*
X151259379Y-131518408D01*
X151174952Y-131721008D01*
X151098867Y-131914135D01*
X151035415Y-132088429D01*
X151017168Y-132142634D01*
X150961692Y-132324493D01*
X150917522Y-132495726D01*
X150887210Y-132644344D01*
X150873310Y-132758358D01*
X150148406Y-132758358D01*
X150116666Y-132605512D01*
X150085607Y-132415605D01*
X150080420Y-132374061D01*
X150065911Y-132191392D01*
X150057565Y-131967759D01*
X150055209Y-131719662D01*
X150058672Y-131463599D01*
X150067783Y-131216069D01*
X150082370Y-130993572D01*
X150083974Y-130978979D01*
X150720394Y-130978979D01*
X150722012Y-131006631D01*
X150736514Y-130999117D01*
X150767861Y-130951378D01*
X150820014Y-130858356D01*
X150896933Y-130714991D01*
X150900134Y-130708983D01*
X150979337Y-130562625D01*
X151054915Y-130426900D01*
X151118448Y-130316703D01*
X151161516Y-130246932D01*
X151168278Y-130236772D01*
X151217563Y-130160058D01*
X151288890Y-130046444D01*
X151373755Y-129909547D01*
X151463658Y-129762984D01*
X151522461Y-129668082D01*
X151602256Y-129543668D01*
X151693403Y-129406406D01*
X151799615Y-129250989D01*
X151924608Y-129072110D01*
X152072097Y-128864463D01*
X152245796Y-128622742D01*
X152449419Y-128341640D01*
X152686682Y-128015851D01*
X152709578Y-127984543D01*
X152802417Y-127859057D01*
X152882426Y-127753140D01*
X152941711Y-127677140D01*
X152972376Y-127641403D01*
X152991160Y-127622081D01*
X153043651Y-127560445D01*
X153107357Y-127479975D01*
X153207105Y-127349751D01*
X153125303Y-127261548D01*
X153089105Y-127218834D01*
X153018454Y-127127810D01*
X152932406Y-127011442D01*
X152842215Y-126884708D01*
X152769212Y-126781260D01*
X152699502Y-126685228D01*
X152649895Y-126620073D01*
X152628016Y-126596072D01*
X152617386Y-126603147D01*
X152575898Y-126654298D01*
X152510577Y-126748627D01*
X152425865Y-126878728D01*
X152326206Y-127037192D01*
X152216041Y-127216613D01*
X152099813Y-127409583D01*
X151981965Y-127608693D01*
X151866939Y-127806538D01*
X151759178Y-127995709D01*
X151663123Y-128168798D01*
X151583217Y-128318399D01*
X151523904Y-128437104D01*
X151489747Y-128510649D01*
X151345215Y-128845984D01*
X151205344Y-129207260D01*
X151074421Y-129581066D01*
X150956732Y-129953994D01*
X150856563Y-130312635D01*
X150778201Y-130643579D01*
X150725932Y-130933418D01*
X150720394Y-130978979D01*
X150083974Y-130978979D01*
X150102262Y-130812607D01*
X150147190Y-130546687D01*
X150246224Y-130099061D01*
X150376059Y-129627233D01*
X150531994Y-129146418D01*
X150709333Y-128671827D01*
X150903376Y-128218676D01*
X150992332Y-128035586D01*
X151107983Y-127814717D01*
X151242589Y-127569937D01*
X151390214Y-127311175D01*
X151544925Y-127048358D01*
X151700787Y-126791414D01*
X151851867Y-126550269D01*
X151992230Y-126334853D01*
X152115943Y-126155091D01*
X152217071Y-126020913D01*
X152291450Y-125929415D01*
X152167927Y-125662068D01*
X151975976Y-125222971D01*
X151817984Y-124804671D01*
X151690209Y-124392496D01*
X151586487Y-123966537D01*
X151500653Y-123506883D01*
X151482333Y-123393422D01*
X151460191Y-123247722D01*
X151443222Y-123117609D01*
X151430757Y-122991939D01*
X151422128Y-122859573D01*
X151416664Y-122709367D01*
X151413696Y-122530180D01*
X151412557Y-122310871D01*
X151412575Y-122040298D01*
X151412839Y-121893728D01*
X151413427Y-121771242D01*
X152026848Y-121771242D01*
X152027356Y-122421598D01*
X152083028Y-123051905D01*
X152194006Y-123657868D01*
X152216588Y-123757497D01*
X152243914Y-123888393D01*
X152262606Y-123991170D01*
X152269533Y-124049587D01*
X152270296Y-124060248D01*
X152286063Y-124133801D01*
X152319386Y-124251075D01*
X152366530Y-124400533D01*
X152423759Y-124570640D01*
X152487340Y-124749861D01*
X152553535Y-124926661D01*
X152556474Y-124934218D01*
X152616502Y-125074863D01*
X152628016Y-125099497D01*
X152700573Y-125254732D01*
X152801589Y-125460139D01*
X152912459Y-125677394D01*
X153026086Y-125892811D01*
X153135377Y-126092701D01*
X153233237Y-126263376D01*
X153312572Y-126391148D01*
X153332970Y-126421470D01*
X153439689Y-126573188D01*
X153557067Y-126731562D01*
X153607841Y-126796295D01*
X153663175Y-126866841D01*
X153691764Y-126901945D01*
X153786773Y-127020781D01*
X153873462Y-127132104D01*
X153936018Y-127215695D01*
X153952886Y-127237797D01*
X154028346Y-127324348D01*
X154136772Y-127438242D01*
X154269651Y-127571484D01*
X154418473Y-127716079D01*
X154574726Y-127864033D01*
X154729897Y-128007349D01*
X154875475Y-128138033D01*
X155002948Y-128248090D01*
X155103805Y-128329524D01*
X155169533Y-128374341D01*
X155227069Y-128406855D01*
X155278747Y-128441068D01*
X155287822Y-128448365D01*
X155584294Y-128672401D01*
X155912423Y-128895745D01*
X156007848Y-128953962D01*
X156164591Y-129042839D01*
X156355751Y-129146479D01*
X156569178Y-129258669D01*
X156792727Y-129373200D01*
X157014247Y-129483860D01*
X157221592Y-129584439D01*
X157402613Y-129668726D01*
X157545162Y-129730509D01*
X157730221Y-129805705D01*
X157730221Y-129556076D01*
X157729330Y-129456832D01*
X157721946Y-129359789D01*
X157701291Y-129280358D01*
X157660613Y-129195122D01*
X157593162Y-129080665D01*
X157551793Y-129011657D01*
X157322428Y-128592606D01*
X157168280Y-128256913D01*
X158938418Y-128256913D01*
X158938581Y-128460488D01*
X158943987Y-128619863D01*
X158954813Y-128729058D01*
X158971235Y-128782093D01*
X159000661Y-128818562D01*
X159059209Y-128893199D01*
X159128712Y-128983173D01*
X159184965Y-129052236D01*
X159274815Y-129150695D01*
X159275755Y-129151725D01*
X159355197Y-129226459D01*
X159382840Y-129249005D01*
X159577230Y-129405133D01*
X159586855Y-129412537D01*
X159649262Y-129460547D01*
X159711670Y-129508557D01*
X159734227Y-129525910D01*
X159774078Y-129554385D01*
X159861783Y-129617054D01*
X159866040Y-129619752D01*
X159967851Y-129684279D01*
X160060383Y-129733303D01*
X160153762Y-129776369D01*
X160304688Y-129842551D01*
X160460582Y-129907675D01*
X160609062Y-129966848D01*
X160737745Y-130015174D01*
X160834247Y-130047759D01*
X160886185Y-130059708D01*
X160890911Y-130059838D01*
X160968021Y-130075839D01*
X161086487Y-130114927D01*
X161233514Y-130171900D01*
X161396308Y-130241551D01*
X161562073Y-130318678D01*
X161718016Y-130398074D01*
X161804633Y-130445171D01*
X161979549Y-130546224D01*
X162120682Y-130639298D01*
X162244757Y-130735952D01*
X162368500Y-130847751D01*
X162497811Y-130971128D01*
X162715505Y-130921615D01*
X162775948Y-130906886D01*
X163088871Y-130802561D01*
X163401714Y-130655090D01*
X163691259Y-130475099D01*
X163758011Y-130427591D01*
X163868926Y-130349122D01*
X163958831Y-130286096D01*
X164012865Y-130248964D01*
X164080215Y-130199592D01*
X164246935Y-130039653D01*
X164398778Y-129843820D01*
X164522276Y-129630982D01*
X164603959Y-129420028D01*
X164609215Y-129400297D01*
X164635951Y-129287252D01*
X164668598Y-129134548D01*
X164703504Y-128959731D01*
X164737021Y-128780347D01*
X164759391Y-128649809D01*
X164788656Y-128444522D01*
X164808814Y-128240315D01*
X164821759Y-128016058D01*
X164829387Y-127750617D01*
X164832006Y-127575980D01*
X164833090Y-127402612D01*
X164832407Y-127257024D01*
X164830018Y-127150753D01*
X164825983Y-127095335D01*
X164780746Y-126866947D01*
X164697342Y-126521406D01*
X164601389Y-126215676D01*
X164488228Y-125935682D01*
X164353198Y-125667347D01*
X164317326Y-125605414D01*
X164163636Y-125380466D01*
X163969127Y-125142057D01*
X163744907Y-124902290D01*
X163502079Y-124673264D01*
X163251749Y-124467082D01*
X163175849Y-124413558D01*
X163014957Y-124315057D01*
X162830085Y-124214999D01*
X162643166Y-124124990D01*
X162476134Y-124056636D01*
X162270393Y-123982931D01*
X161942751Y-124056267D01*
X161872942Y-124072243D01*
X161517705Y-124163553D01*
X161156503Y-124271716D01*
X160798991Y-124392910D01*
X160454823Y-124523316D01*
X160133656Y-124659113D01*
X159845142Y-124796480D01*
X159598938Y-124931597D01*
X159404698Y-125060642D01*
X159391002Y-125071036D01*
X159308795Y-125138831D01*
X159257339Y-125201024D01*
X159222429Y-125279907D01*
X159189861Y-125397769D01*
X159169901Y-125480912D01*
X159130734Y-125670502D01*
X159097900Y-125875256D01*
X159069058Y-126110922D01*
X159041867Y-126393246D01*
X159037636Y-126442154D01*
X159010055Y-126785346D01*
X158986657Y-127120218D01*
X158967617Y-127440791D01*
X158953112Y-127741084D01*
X158943321Y-128015118D01*
X158938418Y-128256913D01*
X157168280Y-128256913D01*
X157132309Y-128178579D01*
X156985620Y-127779503D01*
X156886548Y-127405303D01*
X156886259Y-127403897D01*
X156858025Y-127254617D01*
X156840055Y-127122044D01*
X156831028Y-126986448D01*
X156829626Y-126828102D01*
X156830315Y-126799880D01*
X157458211Y-126799880D01*
X157481489Y-127061843D01*
X157526323Y-127327238D01*
X157590111Y-127577282D01*
X157670251Y-127793191D01*
X157699249Y-127850786D01*
X157721630Y-127873578D01*
X157726488Y-127837920D01*
X157713768Y-127744648D01*
X157683415Y-127594598D01*
X157669823Y-127516000D01*
X157653134Y-127356737D01*
X157642029Y-127163167D01*
X157637705Y-126952107D01*
X157642477Y-126706048D01*
X157664043Y-126457435D01*
X157706020Y-126239116D01*
X157771736Y-126034587D01*
X157864519Y-125827343D01*
X157922213Y-125699836D01*
X157974219Y-125561860D01*
X158007126Y-125447791D01*
X158015711Y-125406809D01*
X158034726Y-125303172D01*
X158037327Y-125246452D01*
X158020083Y-125237788D01*
X157979563Y-125278318D01*
X157912334Y-125369180D01*
X157814963Y-125511512D01*
X157769914Y-125582995D01*
X157650440Y-125823461D01*
X157550912Y-126102497D01*
X157477731Y-126403185D01*
X157459089Y-126560133D01*
X157458211Y-126799880D01*
X156830315Y-126799880D01*
X156834529Y-126627276D01*
X156839348Y-126512325D01*
X156854507Y-126295799D01*
X156875639Y-126116749D01*
X156901444Y-125987595D01*
X156936186Y-125872067D01*
X157072578Y-125522562D01*
X157251293Y-125176293D01*
X158042260Y-125176293D01*
X158057862Y-125191895D01*
X158073464Y-125176293D01*
X158057862Y-125160691D01*
X158042260Y-125176293D01*
X157251293Y-125176293D01*
X157251361Y-125176162D01*
X157464385Y-124844721D01*
X157703499Y-124540098D01*
X157960554Y-124274149D01*
X158020083Y-124226092D01*
X158057862Y-124195593D01*
X158227398Y-124058729D01*
X158236004Y-124052337D01*
X159815567Y-124052337D01*
X159825391Y-124064128D01*
X159867003Y-124055509D01*
X159948633Y-124024436D01*
X160078513Y-123968864D01*
X160144501Y-123940263D01*
X160290332Y-123878457D01*
X160423955Y-123823499D01*
X160522973Y-123784673D01*
X160678992Y-123726536D01*
X160491769Y-123744133D01*
X160386511Y-123762063D01*
X160247059Y-123801956D01*
X160105211Y-123855741D01*
X159976805Y-123916590D01*
X159877674Y-123977675D01*
X159823657Y-124032169D01*
X159815567Y-124052337D01*
X158236004Y-124052337D01*
X158259351Y-124034995D01*
X158328353Y-123966814D01*
X158354299Y-123910005D01*
X158362903Y-123866140D01*
X158388838Y-123772182D01*
X158428930Y-123639784D01*
X158479969Y-123479524D01*
X158538747Y-123301977D01*
X158723195Y-122754836D01*
X158691247Y-122530184D01*
X158680714Y-122417901D01*
X158674204Y-122255315D01*
X158673213Y-122070504D01*
X158673294Y-122067459D01*
X160551867Y-122067459D01*
X160568416Y-122142953D01*
X160612474Y-122244827D01*
X160678992Y-122326469D01*
X160702383Y-122355179D01*
X160820959Y-122411804D01*
X160823246Y-122412326D01*
X160917865Y-122435742D01*
X160995525Y-122457786D01*
X161011859Y-122462716D01*
X161035942Y-122463803D01*
X161049655Y-122444359D01*
X161054767Y-122393937D01*
X161053049Y-122302088D01*
X161046272Y-122158366D01*
X161043900Y-122100985D01*
X161043594Y-122059277D01*
X161665204Y-122059277D01*
X161680364Y-122190669D01*
X161721933Y-122352436D01*
X161752691Y-122454677D01*
X161796582Y-122588281D01*
X161834492Y-122678295D01*
X161872480Y-122735362D01*
X161916604Y-122770122D01*
X161972925Y-122793217D01*
X162050582Y-122820548D01*
X162197381Y-122877088D01*
X162270393Y-122906516D01*
X162396481Y-122957338D01*
X162645305Y-123060257D01*
X162941277Y-123184803D01*
X163153737Y-123280105D01*
X163415348Y-123410858D01*
X163662767Y-123548433D01*
X163880871Y-123684340D01*
X164054541Y-123810084D01*
X164062726Y-123816683D01*
X164236461Y-123961704D01*
X164405815Y-124111647D01*
X164559439Y-124255871D01*
X164685981Y-124383737D01*
X164774092Y-124484605D01*
X164811989Y-124533343D01*
X164867514Y-124604564D01*
X164899883Y-124645826D01*
X164920356Y-124678016D01*
X164962280Y-124752704D01*
X165013004Y-124848652D01*
X165055481Y-124927643D01*
X165107936Y-125016484D01*
X165145991Y-125071022D01*
X165183329Y-125128962D01*
X165237322Y-125235118D01*
X165301672Y-125375989D01*
X165371144Y-125539262D01*
X165440505Y-125712621D01*
X165504522Y-125883751D01*
X165557959Y-126040337D01*
X165584884Y-126126463D01*
X165653167Y-126369775D01*
X165706151Y-126607123D01*
X165745773Y-126852133D01*
X165773971Y-127118426D01*
X165792682Y-127419628D01*
X165803843Y-127769361D01*
X165807185Y-127964363D01*
X165807809Y-128250085D01*
X165801344Y-128492635D01*
X165786853Y-128703925D01*
X165763400Y-128895866D01*
X165730047Y-129080369D01*
X165685858Y-129269345D01*
X165672050Y-129319098D01*
X165601566Y-129518026D01*
X165503773Y-129741114D01*
X165388055Y-129969487D01*
X165263792Y-130184274D01*
X165140368Y-130366604D01*
X165129753Y-130380927D01*
X165046471Y-130504121D01*
X164973340Y-130629194D01*
X164925130Y-130731127D01*
X164796276Y-131029608D01*
X164627556Y-131331586D01*
X164436335Y-131598475D01*
X164228225Y-131823447D01*
X164008838Y-131999671D01*
X163783783Y-132120317D01*
X163719698Y-132143742D01*
X163609969Y-132171174D01*
X163481159Y-132185563D01*
X163311785Y-132190085D01*
X163217197Y-132189771D01*
X163095277Y-132184571D01*
X163001213Y-132170036D01*
X162913384Y-132142152D01*
X162810165Y-132096899D01*
X162608922Y-132002726D01*
X162158822Y-132111916D01*
X162087257Y-132129290D01*
X161933160Y-132166789D01*
X161804341Y-132198258D01*
X161712593Y-132220813D01*
X161669710Y-132231569D01*
X161668804Y-132231876D01*
X161668490Y-132263341D01*
X161702473Y-132338316D01*
X161767390Y-132450940D01*
X161859872Y-132595355D01*
X161976555Y-132765701D01*
X162025308Y-132834961D01*
X162233428Y-132650217D01*
X162371349Y-132538973D01*
X162535143Y-132444523D01*
X162691589Y-132403660D01*
X162850333Y-132414229D01*
X163021022Y-132474072D01*
X163047028Y-132486765D01*
X163176826Y-132571386D01*
X163296494Y-132690609D01*
X163413682Y-132853259D01*
X163536040Y-133068161D01*
X163674570Y-133333251D01*
X163810574Y-133202069D01*
X163844740Y-133167759D01*
X163937628Y-133067215D01*
X164043729Y-132945324D01*
X164146149Y-132821256D01*
X164204500Y-132748286D01*
X164283359Y-132649731D01*
X164342607Y-132575759D01*
X164372570Y-132538455D01*
X164399808Y-132498404D01*
X164439617Y-132429242D01*
X164459157Y-132395353D01*
X164511225Y-132311406D01*
X164582353Y-132200639D01*
X164663064Y-132077951D01*
X164688040Y-132040114D01*
X164794939Y-131869553D01*
X164897162Y-131690177D01*
X164999723Y-131491953D01*
X165107633Y-131264846D01*
X165225906Y-130998824D01*
X165359554Y-130683852D01*
X165471305Y-130408998D01*
X165587955Y-130107253D01*
X165696963Y-129810400D01*
X165794724Y-129528841D01*
X165877637Y-129272972D01*
X165942098Y-129053195D01*
X165984506Y-128879909D01*
X165985614Y-128874549D01*
X166013375Y-128747457D01*
X166051520Y-128581886D01*
X166095164Y-128398679D01*
X166139426Y-128218676D01*
X166155302Y-128154853D01*
X166368480Y-127199407D01*
X166545916Y-126208220D01*
X166685394Y-125197195D01*
X166784697Y-124182235D01*
X166841612Y-123179241D01*
X166841941Y-123169895D01*
X166850349Y-122935136D01*
X166858476Y-122714403D01*
X166865949Y-122517366D01*
X166872395Y-122353692D01*
X166877441Y-122233052D01*
X166880715Y-122165114D01*
X166881968Y-122132625D01*
X166882497Y-122017675D01*
X166880045Y-121854961D01*
X166874980Y-121654626D01*
X166867670Y-121426811D01*
X166858485Y-121181657D01*
X166847793Y-120929304D01*
X166835964Y-120679894D01*
X166823365Y-120443569D01*
X166810365Y-120230470D01*
X166787288Y-119918257D01*
X166729900Y-119313991D01*
X166655517Y-118692482D01*
X166633865Y-118540414D01*
X167277334Y-118540414D01*
X167323793Y-118925184D01*
X167338166Y-119046110D01*
X167426994Y-119914429D01*
X167486248Y-120756364D01*
X167515963Y-121585491D01*
X167516176Y-122415385D01*
X167486924Y-123259624D01*
X167428242Y-124131782D01*
X167340167Y-125045436D01*
X167336630Y-125077772D01*
X167316181Y-125268066D01*
X167302658Y-125407543D01*
X167296024Y-125505987D01*
X167296237Y-125573183D01*
X167303257Y-125618914D01*
X167317046Y-125652963D01*
X167337563Y-125685116D01*
X167361404Y-125720245D01*
X167418425Y-125805553D01*
X167497491Y-125924611D01*
X167591574Y-126066832D01*
X167693646Y-126221625D01*
X167763704Y-126326684D01*
X167871908Y-126484191D01*
X167973094Y-126626243D01*
X168058389Y-126740469D01*
X168118919Y-126814499D01*
X168175414Y-126880220D01*
X168234151Y-126957775D01*
X168263835Y-127009524D01*
X168276978Y-127038749D01*
X168305447Y-127064131D01*
X168328562Y-127080755D01*
X168361601Y-127134340D01*
X168364478Y-127140407D01*
X168401768Y-127202072D01*
X168466547Y-127288921D01*
X168562819Y-127405843D01*
X168694593Y-127557724D01*
X168865874Y-127749453D01*
X168978217Y-127872707D01*
X169268791Y-128179962D01*
X169556177Y-128467996D01*
X169833653Y-128730570D01*
X170094501Y-128961446D01*
X170332002Y-129154387D01*
X170539434Y-129303152D01*
X170660818Y-129383485D01*
X170763872Y-129453220D01*
X170836240Y-129503919D01*
X170867076Y-129528133D01*
X170874636Y-129536408D01*
X170936028Y-129582001D01*
X171039520Y-129644750D01*
X171173073Y-129718648D01*
X171324648Y-129797682D01*
X171482208Y-129875843D01*
X171633714Y-129947122D01*
X171767128Y-130005507D01*
X171870410Y-130044989D01*
X171931524Y-130059557D01*
X171943848Y-130060575D01*
X172012873Y-130073112D01*
X172118577Y-130096921D01*
X172243563Y-130128176D01*
X172340059Y-130150922D01*
X172694796Y-130196866D01*
X173065436Y-130191454D01*
X173439291Y-130136320D01*
X173803675Y-130033095D01*
X174145900Y-129883411D01*
X174253260Y-129823237D01*
X174386785Y-129739661D01*
X174467812Y-129683319D01*
X174509671Y-129654212D01*
X174610986Y-129575016D01*
X174679793Y-129510196D01*
X174705159Y-129467878D01*
X174704499Y-129464927D01*
X174670084Y-129442508D01*
X174599522Y-129422757D01*
X174530159Y-129405336D01*
X174416957Y-129371893D01*
X174276205Y-129327368D01*
X174123662Y-129276601D01*
X173980282Y-129228118D01*
X173816718Y-129173749D01*
X173672009Y-129126578D01*
X173566216Y-129093206D01*
X173483651Y-129065722D01*
X173305423Y-128997320D01*
X173092873Y-128907455D01*
X172858644Y-128802027D01*
X172615381Y-128686935D01*
X172375727Y-128568080D01*
X172152326Y-128451361D01*
X171957820Y-128342678D01*
X171934302Y-128329066D01*
X171832334Y-128272953D01*
X171752527Y-128233549D01*
X171710485Y-128218676D01*
X171677344Y-128208137D01*
X171589367Y-128163989D01*
X171451055Y-128085860D01*
X171263223Y-127974226D01*
X171026687Y-127829564D01*
X170742260Y-127652351D01*
X170527370Y-127517373D01*
X170332319Y-127394283D01*
X170172663Y-127292465D01*
X170039182Y-127205759D01*
X169922658Y-127128005D01*
X169813871Y-127053042D01*
X169703604Y-126974709D01*
X169582636Y-126886847D01*
X169441751Y-126783295D01*
X169328222Y-126700029D01*
X169177104Y-126590424D01*
X169041613Y-126493497D01*
X168933226Y-126417443D01*
X168863424Y-126370454D01*
X168822948Y-126343699D01*
X168674547Y-126234674D01*
X168488627Y-126084899D01*
X168269348Y-125897685D01*
X168218743Y-125846034D01*
X168159698Y-125741600D01*
X168153167Y-125640158D01*
X168201368Y-125552969D01*
X168235456Y-125524824D01*
X168276044Y-125508767D01*
X168327120Y-125509367D01*
X168394476Y-125529376D01*
X168483905Y-125571545D01*
X168601201Y-125638625D01*
X168752156Y-125733366D01*
X168942564Y-125858520D01*
X169178217Y-126016837D01*
X169227015Y-126049826D01*
X169419315Y-126180155D01*
X169594797Y-126299595D01*
X169746471Y-126403352D01*
X169867346Y-126486634D01*
X169950433Y-126544648D01*
X169988741Y-126572601D01*
X170020805Y-126595259D01*
X170101205Y-126643204D01*
X170198950Y-126695268D01*
X170273990Y-126736031D01*
X170395192Y-126807244D01*
X170535584Y-126893655D01*
X170677597Y-126984643D01*
X170900941Y-127125870D01*
X171259112Y-127336836D01*
X171652942Y-127553813D01*
X172068308Y-127769723D01*
X172491088Y-127977485D01*
X172907162Y-128170022D01*
X173302408Y-128340253D01*
X173662703Y-128481100D01*
X173990589Y-128597978D01*
X174365847Y-128723652D01*
X174714963Y-128831680D01*
X175027882Y-128918972D01*
X175294550Y-128982440D01*
X175301497Y-128983847D01*
X175371670Y-128994347D01*
X175472778Y-129004063D01*
X175608752Y-129013146D01*
X175734658Y-129019343D01*
X175783529Y-129021749D01*
X176001041Y-129030023D01*
X176265224Y-129038120D01*
X176580010Y-129046193D01*
X176949335Y-129054393D01*
X177377132Y-129062872D01*
X177640841Y-129067674D01*
X177988606Y-129073457D01*
X178324796Y-129078450D01*
X178642151Y-129082576D01*
X178933411Y-129085757D01*
X179191316Y-129087917D01*
X179408608Y-129088978D01*
X179578025Y-129088864D01*
X179692308Y-129087496D01*
X180139285Y-129076784D01*
X180261780Y-128945376D01*
X180384275Y-128813968D01*
X180384275Y-126876064D01*
X180384262Y-126804071D01*
X180383593Y-126382347D01*
X180381937Y-126008146D01*
X180379328Y-125683594D01*
X180375798Y-125410818D01*
X180371380Y-125191942D01*
X180366108Y-125029092D01*
X180360015Y-124924394D01*
X180353134Y-124879974D01*
X180337536Y-124854663D01*
X180241798Y-124766633D01*
X180089998Y-124696855D01*
X179880027Y-124644279D01*
X179837536Y-124636244D01*
X179540759Y-124566974D01*
X179289315Y-124479832D01*
X179068764Y-124367645D01*
X178864669Y-124223242D01*
X178662594Y-124039450D01*
X178518020Y-123879991D01*
X178305767Y-123575985D01*
X178140415Y-123240465D01*
X178025534Y-122883099D01*
X177964697Y-122513553D01*
X177961474Y-122141495D01*
X177966977Y-122065485D01*
X177987394Y-121788104D01*
X178005325Y-121562683D01*
X178022354Y-121380940D01*
X178040062Y-121234595D01*
X178060033Y-121115365D01*
X178083851Y-121014971D01*
X178113098Y-120925131D01*
X178149357Y-120837563D01*
X178194211Y-120743987D01*
X178249243Y-120636121D01*
X178370355Y-120424098D01*
X178578273Y-120146218D01*
X178819204Y-119918164D01*
X179097433Y-119736767D01*
X179417243Y-119598858D01*
X179782916Y-119501266D01*
X179884489Y-119480258D01*
X180037061Y-119444169D01*
X180145601Y-119408773D01*
X180221747Y-119368731D01*
X180277140Y-119318705D01*
X180323420Y-119253355D01*
X180323929Y-119252518D01*
X180336307Y-119229964D01*
X180346859Y-119203033D01*
X180355730Y-119166891D01*
X180363065Y-119116701D01*
X180369008Y-119047626D01*
X180373703Y-118954832D01*
X180377297Y-118833482D01*
X180379933Y-118678740D01*
X180381756Y-118485770D01*
X180382911Y-118249736D01*
X180383542Y-117965803D01*
X180383794Y-117629134D01*
X180383812Y-117234892D01*
X180383583Y-115315851D01*
X180300707Y-115210668D01*
X180274432Y-115176674D01*
X180248254Y-115144514D01*
X180220213Y-115116910D01*
X180185984Y-115093595D01*
X180141243Y-115074301D01*
X180081666Y-115058762D01*
X180002929Y-115046711D01*
X179900706Y-115037879D01*
X179770676Y-115031999D01*
X179608512Y-115028806D01*
X179409891Y-115028030D01*
X179170488Y-115029405D01*
X178885980Y-115032663D01*
X178552042Y-115037538D01*
X178164349Y-115043762D01*
X177718579Y-115051067D01*
X177589813Y-115053167D01*
X177173569Y-115060042D01*
X176813480Y-115066229D01*
X176504680Y-115071934D01*
X176242301Y-115077364D01*
X176021477Y-115082723D01*
X175837340Y-115088219D01*
X175685024Y-115094056D01*
X175559662Y-115100441D01*
X175456386Y-115107578D01*
X175370331Y-115115676D01*
X175296629Y-115124938D01*
X175230412Y-115135571D01*
X175166815Y-115147780D01*
X175100971Y-115161773D01*
X174983400Y-115188885D01*
X174783440Y-115238971D01*
X174557226Y-115298986D01*
X174322159Y-115364083D01*
X174095638Y-115429416D01*
X173895064Y-115490140D01*
X173737837Y-115541409D01*
X173596093Y-115593653D01*
X173374393Y-115682967D01*
X173111509Y-115795360D01*
X172815194Y-115927365D01*
X172493201Y-116075517D01*
X172153284Y-116236348D01*
X171803194Y-116406394D01*
X171723222Y-116447458D01*
X171595029Y-116516713D01*
X171445378Y-116600026D01*
X171286984Y-116690087D01*
X171132562Y-116779584D01*
X170994826Y-116861206D01*
X170886490Y-116927643D01*
X170820270Y-116971583D01*
X170758680Y-117012403D01*
X170653366Y-117074107D01*
X170539434Y-117134662D01*
X170456281Y-117181057D01*
X170322163Y-117262927D01*
X170142081Y-117377374D01*
X169918623Y-117522698D01*
X169654379Y-117697201D01*
X169351940Y-117899184D01*
X169013894Y-118126949D01*
X168642832Y-118378795D01*
X168565891Y-118430379D01*
X168411615Y-118525964D01*
X168293356Y-118584119D01*
X168203301Y-118607325D01*
X168133637Y-118598068D01*
X168076553Y-118558831D01*
X168061467Y-118540564D01*
X168031018Y-118452397D01*
X168038799Y-118352685D01*
X168084053Y-118270495D01*
X168109069Y-118247781D01*
X168181552Y-118187543D01*
X168281648Y-118107872D01*
X168395563Y-118019865D01*
X168464059Y-117967271D01*
X168577369Y-117878371D01*
X168671416Y-117802295D01*
X168730854Y-117751334D01*
X168788126Y-117703358D01*
X168883594Y-117631119D01*
X168988603Y-117557309D01*
X169080769Y-117493764D01*
X169161248Y-117435531D01*
X169207483Y-117398713D01*
X169232744Y-117379098D01*
X169281281Y-117359708D01*
X169285860Y-117358837D01*
X169332656Y-117333516D01*
X169410529Y-117280257D01*
X169505280Y-117208634D01*
X169635471Y-117109212D01*
X169794791Y-116995011D01*
X169979333Y-116870080D01*
X170196455Y-116729567D01*
X170453513Y-116568621D01*
X170757862Y-116382388D01*
X170831030Y-116338011D01*
X171069674Y-116193759D01*
X171268907Y-116074687D01*
X171439551Y-115974910D01*
X171592429Y-115888545D01*
X171738361Y-115809707D01*
X171888170Y-115732513D01*
X172052677Y-115651079D01*
X172242704Y-115559519D01*
X172469072Y-115451951D01*
X172802038Y-115297079D01*
X173157582Y-115139921D01*
X173477589Y-115008929D01*
X173771557Y-114900428D01*
X174048987Y-114810742D01*
X174319379Y-114736197D01*
X174462541Y-114699589D01*
X174585425Y-114666175D01*
X174661664Y-114641459D01*
X174698952Y-114622358D01*
X174704984Y-114605787D01*
X174687455Y-114588663D01*
X174684783Y-114586821D01*
X174639375Y-114555496D01*
X174560037Y-114500748D01*
X174462144Y-114433186D01*
X174252800Y-114298733D01*
X173873144Y-114105361D01*
X173488738Y-113974073D01*
X173099014Y-113904833D01*
X172703401Y-113897606D01*
X172301333Y-113952358D01*
X171892239Y-114069051D01*
X171475552Y-114247652D01*
X171373017Y-114299402D01*
X171082728Y-114455044D01*
X170815534Y-114614646D01*
X170561231Y-114785784D01*
X170309615Y-114976030D01*
X170050481Y-115192960D01*
X169773627Y-115444147D01*
X169468847Y-115737166D01*
X169140468Y-116069158D01*
X168822132Y-116414222D01*
X168521682Y-116767431D01*
X168225134Y-117145265D01*
X167918506Y-117564201D01*
X167853371Y-117654900D01*
X167765057Y-117775160D01*
X167689661Y-117874836D01*
X167638607Y-117938648D01*
X167624675Y-117955295D01*
X167578252Y-118018977D01*
X167559497Y-118059178D01*
X167557341Y-118067598D01*
X167531495Y-118121106D01*
X167482582Y-118207963D01*
X167418396Y-118314088D01*
X167277334Y-118540414D01*
X166633865Y-118540414D01*
X166565829Y-118062576D01*
X166462526Y-117433121D01*
X166347296Y-116812963D01*
X166221830Y-116210951D01*
X166087817Y-115635932D01*
X165946947Y-115096753D01*
X165800908Y-114602262D01*
X165651391Y-114161305D01*
X165557168Y-113911563D01*
X165442606Y-113623758D01*
X165322445Y-113336206D01*
X165200098Y-113056189D01*
X165078978Y-112790991D01*
X164962498Y-112547893D01*
X164854072Y-112334177D01*
X164757114Y-112157126D01*
X164675035Y-112024022D01*
X164611250Y-111942147D01*
X164605954Y-111936226D01*
X164567171Y-111883832D01*
X164508576Y-111797485D01*
X164440645Y-111692515D01*
X164418006Y-111656786D01*
X164319692Y-111503443D01*
X164241405Y-111386973D01*
X164172588Y-111293756D01*
X164102684Y-111210170D01*
X164021134Y-111122596D01*
X163917383Y-111017413D01*
X163675778Y-110775487D01*
X163608321Y-110908199D01*
X163542884Y-111030068D01*
X163406757Y-111246748D01*
X163265530Y-111427927D01*
X163126071Y-111565288D01*
X162995248Y-111650514D01*
X162862747Y-111697078D01*
X162700718Y-111710767D01*
X162540945Y-111670937D01*
X162376431Y-111575585D01*
X162200184Y-111422705D01*
X162157458Y-111381233D01*
X162079354Y-111310029D01*
X162025334Y-111267303D01*
X162005159Y-111261142D01*
X161994078Y-111288839D01*
X161954843Y-111360197D01*
X161893930Y-111461659D01*
X161818347Y-111581218D01*
X161766515Y-111663432D01*
X161701331Y-111776861D01*
X161668327Y-111850947D01*
X161670129Y-111880392D01*
X161681962Y-111883412D01*
X161747409Y-111899601D01*
X161856615Y-111926344D01*
X161997809Y-111960765D01*
X162159218Y-111999983D01*
X162566087Y-112098690D01*
X162609715Y-112109274D01*
X162798899Y-112019773D01*
X162856152Y-111993588D01*
X162944797Y-111960226D01*
X163033280Y-111941066D01*
X163142437Y-111932331D01*
X163293101Y-111930249D01*
X163395206Y-111932443D01*
X163650765Y-111962940D01*
X163876531Y-112033500D01*
X164082856Y-112149439D01*
X164280092Y-112316068D01*
X164478592Y-112538701D01*
X164495190Y-112560648D01*
X164554500Y-112650809D01*
X164626506Y-112772213D01*
X164704858Y-112912723D01*
X164783206Y-113060200D01*
X164855198Y-113202507D01*
X164914483Y-113327506D01*
X164954712Y-113423058D01*
X164969533Y-113477025D01*
X164973706Y-113491401D01*
X165006803Y-113551464D01*
X165065737Y-113640751D01*
X165141876Y-113745796D01*
X165142894Y-113747146D01*
X165316026Y-114007242D01*
X165475740Y-114304408D01*
X165609943Y-114613707D01*
X165706542Y-114910200D01*
X165713825Y-114938272D01*
X165739134Y-115043041D01*
X165758521Y-115141976D01*
X165773055Y-115246451D01*
X165783806Y-115367838D01*
X165791843Y-115517511D01*
X165798235Y-115706843D01*
X165804052Y-115947208D01*
X165808102Y-116303109D01*
X165801816Y-116646015D01*
X165782749Y-116953089D01*
X165749278Y-117237829D01*
X165699782Y-117513730D01*
X165632640Y-117794288D01*
X165546230Y-118093001D01*
X165505817Y-118216107D01*
X165393709Y-118507695D01*
X165259934Y-118802545D01*
X165111438Y-119087800D01*
X164955167Y-119350603D01*
X164798067Y-119578095D01*
X164647083Y-119757419D01*
X164582850Y-119823060D01*
X164394875Y-120005254D01*
X164208717Y-120172317D01*
X164034040Y-120316159D01*
X163880512Y-120428687D01*
X163757800Y-120501809D01*
X163715323Y-120522838D01*
X163590458Y-120586588D01*
X163444794Y-120662821D01*
X163301814Y-120739307D01*
X163193611Y-120794854D01*
X163032045Y-120872245D01*
X162842764Y-120959000D01*
X162639748Y-121049023D01*
X162436979Y-121136221D01*
X162248435Y-121214499D01*
X162088098Y-121277762D01*
X161969948Y-121319916D01*
X161932695Y-121333866D01*
X161883755Y-121364881D01*
X161842748Y-121415624D01*
X161804013Y-121496326D01*
X161761891Y-121617217D01*
X161710724Y-121788529D01*
X161675940Y-121932338D01*
X161665204Y-122059277D01*
X161043594Y-122059277D01*
X161042733Y-121941817D01*
X161049501Y-121807843D01*
X161063482Y-121717501D01*
X161073162Y-121682123D01*
X161083993Y-121625081D01*
X161069324Y-121607862D01*
X161023432Y-121615956D01*
X160994613Y-121624386D01*
X160905964Y-121655848D01*
X160805143Y-121696482D01*
X160720047Y-121739481D01*
X160651244Y-121802542D01*
X160597413Y-121900682D01*
X160561972Y-121992526D01*
X160551867Y-122067459D01*
X158673294Y-122067459D01*
X158678163Y-121884278D01*
X158679540Y-121854097D01*
X158687731Y-121693462D01*
X158696287Y-121552180D01*
X158704275Y-121444585D01*
X158710757Y-121385015D01*
X158711440Y-121347380D01*
X158694552Y-121254675D01*
X158660152Y-121150986D01*
X158653549Y-121134479D01*
X158617097Y-121034473D01*
X158569670Y-120894777D01*
X158516672Y-120731601D01*
X158463508Y-120561155D01*
X158449769Y-120516188D01*
X158400164Y-120357563D01*
X158361019Y-120244512D01*
X158326608Y-120165432D01*
X158291207Y-120108717D01*
X158249090Y-120062764D01*
X158229961Y-120046356D01*
X159818455Y-120046356D01*
X159837930Y-120068849D01*
X159883292Y-120109722D01*
X160052765Y-120228054D01*
X160263765Y-120321291D01*
X160483968Y-120372147D01*
X160530788Y-120377390D01*
X160623781Y-120383572D01*
X160657409Y-120377294D01*
X160630982Y-120359052D01*
X160543811Y-120329337D01*
X160488879Y-120310652D01*
X160379240Y-120268925D01*
X160243468Y-120214168D01*
X160099155Y-120153342D01*
X159980490Y-120102321D01*
X159883222Y-120061776D01*
X159831381Y-120043560D01*
X159818455Y-120046356D01*
X158229961Y-120046356D01*
X158194530Y-120015966D01*
X158115797Y-119951037D01*
X157899816Y-119761811D01*
X157722678Y-119585663D01*
X157572254Y-119409886D01*
X157436418Y-119221778D01*
X157277257Y-118971950D01*
X157116701Y-118680763D01*
X156996821Y-118404263D01*
X156912891Y-118129180D01*
X156860186Y-117842247D01*
X156833981Y-117530194D01*
X156832573Y-117495862D01*
X156832372Y-117392861D01*
X157458785Y-117392861D01*
X157491218Y-117757286D01*
X157583601Y-118110436D01*
X157736325Y-118455254D01*
X157949782Y-118794685D01*
X157954071Y-118800605D01*
X158014045Y-118879551D01*
X158056029Y-118927798D01*
X158071167Y-118935102D01*
X158068883Y-118914680D01*
X158048444Y-118814111D01*
X158013533Y-118683449D01*
X157970702Y-118544366D01*
X157926506Y-118418535D01*
X157887495Y-118327628D01*
X157835617Y-118223627D01*
X157762976Y-118055008D01*
X157711362Y-117891382D01*
X157676943Y-117715964D01*
X157655887Y-117511969D01*
X157644361Y-117262612D01*
X157642170Y-117177626D01*
X157640260Y-116968636D01*
X157645478Y-116801627D01*
X157658560Y-116661657D01*
X157680239Y-116533783D01*
X157706290Y-116400055D01*
X157723398Y-116287774D01*
X157724409Y-116233268D01*
X157709619Y-116237244D01*
X157679326Y-116300407D01*
X157633828Y-116423465D01*
X157572199Y-116618416D01*
X157485910Y-117014219D01*
X157458785Y-117392861D01*
X156832372Y-117392861D01*
X156831935Y-117169367D01*
X156857991Y-116864607D01*
X156913932Y-116568122D01*
X157002948Y-116266454D01*
X157128230Y-115946142D01*
X157292968Y-115593725D01*
X157359820Y-115460990D01*
X157406435Y-115370873D01*
X158933500Y-115370873D01*
X158941258Y-115936237D01*
X158943725Y-116083801D01*
X158949828Y-116317285D01*
X158959084Y-116549467D01*
X158972208Y-116793015D01*
X158989917Y-117060599D01*
X159012926Y-117364889D01*
X159041952Y-117718553D01*
X159059337Y-117890019D01*
X159083653Y-118080234D01*
X159112688Y-118275414D01*
X159144451Y-118464399D01*
X159176952Y-118636032D01*
X159208200Y-118779152D01*
X159236206Y-118882602D01*
X159258978Y-118935223D01*
X159294570Y-118962750D01*
X159374049Y-119014622D01*
X159485532Y-119083525D01*
X159617551Y-119162671D01*
X159758637Y-119245270D01*
X159831381Y-119286846D01*
X159897322Y-119324534D01*
X160022138Y-119393673D01*
X160121617Y-119445898D01*
X160234939Y-119498644D01*
X160393994Y-119566505D01*
X160573001Y-119638633D01*
X160752769Y-119707501D01*
X160914111Y-119765579D01*
X161037837Y-119805340D01*
X161069324Y-119813743D01*
X161099652Y-119821836D01*
X161219884Y-119852011D01*
X161376560Y-119890186D01*
X161556238Y-119933172D01*
X161745478Y-119977784D01*
X161930840Y-120020834D01*
X162098883Y-120059135D01*
X162236166Y-120089499D01*
X162255597Y-120089648D01*
X162330903Y-120073740D01*
X162439116Y-120039801D01*
X162563808Y-119992686D01*
X162621544Y-119969247D01*
X162742026Y-119921336D01*
X162838630Y-119884244D01*
X162894471Y-119864515D01*
X162918852Y-119855837D01*
X163026821Y-119798179D01*
X163166905Y-119701894D01*
X163331662Y-119573007D01*
X163513652Y-119417539D01*
X163705434Y-119241515D01*
X163899566Y-119050957D01*
X164098895Y-118820760D01*
X164312368Y-118502887D01*
X164498417Y-118143398D01*
X164652091Y-117752055D01*
X164768435Y-117338621D01*
X164781156Y-117262963D01*
X164796078Y-117123650D01*
X164809461Y-116947484D01*
X164820738Y-116748612D01*
X164829342Y-116541177D01*
X164834708Y-116339326D01*
X164836268Y-116157203D01*
X164833456Y-116008955D01*
X164825706Y-115908725D01*
X164795891Y-115706781D01*
X164748938Y-115404705D01*
X164705898Y-115153421D01*
X164665010Y-114945817D01*
X164624514Y-114774776D01*
X164582652Y-114633184D01*
X164537663Y-114513926D01*
X164487788Y-114409888D01*
X164431267Y-114313954D01*
X164355727Y-114206993D01*
X164229351Y-114056225D01*
X164090508Y-113914815D01*
X163953998Y-113797518D01*
X163834618Y-113719088D01*
X163772604Y-113684103D01*
X163671450Y-113621170D01*
X163565356Y-113550487D01*
X163496663Y-113508054D01*
X163364779Y-113438293D01*
X163204592Y-113361859D01*
X163032743Y-113286020D01*
X162865873Y-113218046D01*
X162720624Y-113165206D01*
X162613636Y-113134769D01*
X162566087Y-113129559D01*
X162513695Y-113142786D01*
X162451477Y-113185275D01*
X162363310Y-113265442D01*
X162266607Y-113353244D01*
X162090626Y-113490346D01*
X161892830Y-113615531D01*
X161663269Y-113734247D01*
X161391990Y-113851944D01*
X161069041Y-113974069D01*
X160987587Y-114003540D01*
X160549716Y-114170581D01*
X160117321Y-114348938D01*
X160004198Y-114404344D01*
X159799320Y-114530848D01*
X159584290Y-114690656D01*
X159373690Y-114871753D01*
X159182102Y-115062123D01*
X159024108Y-115249750D01*
X158933500Y-115370873D01*
X157406435Y-115370873D01*
X157446427Y-115293561D01*
X157525761Y-115144973D01*
X157591154Y-115027657D01*
X157635944Y-114954045D01*
X157642001Y-114945056D01*
X157688396Y-114867963D01*
X157714769Y-114795701D01*
X157724409Y-114722957D01*
X157726671Y-114705888D01*
X157729653Y-114576141D01*
X157730221Y-114335695D01*
X157613206Y-114377353D01*
X157119471Y-114575558D01*
X156589495Y-114834731D01*
X156062161Y-115137622D01*
X155547426Y-115477196D01*
X155055249Y-115846418D01*
X154595587Y-116238252D01*
X154178399Y-116645665D01*
X153813642Y-117061620D01*
X153720368Y-117180969D01*
X153613183Y-117323337D01*
X153501214Y-117476154D01*
X153391549Y-117629395D01*
X153291276Y-117773034D01*
X153207482Y-117897046D01*
X153147254Y-117991406D01*
X153117679Y-118046088D01*
X153115500Y-118051328D01*
X153089225Y-118105569D01*
X153040786Y-118200500D01*
X152976234Y-118324373D01*
X152901623Y-118465438D01*
X152853048Y-118559228D01*
X152748176Y-118776324D01*
X152641336Y-119014322D01*
X152538808Y-119258038D01*
X152446875Y-119492284D01*
X152371819Y-119701875D01*
X152319922Y-119871625D01*
X152190749Y-120427564D01*
X152081359Y-121105133D01*
X152026848Y-121771242D01*
X151413427Y-121771242D01*
X151414011Y-121649389D01*
X151416612Y-121450824D01*
X151421306Y-121287037D01*
X151428761Y-121147032D01*
X151439641Y-121019813D01*
X151454613Y-120894385D01*
X151474343Y-120759752D01*
X151499495Y-120604917D01*
X151577755Y-120185307D01*
X151682890Y-119745069D01*
X151810229Y-119330097D01*
X151965792Y-118921066D01*
X152155597Y-118498652D01*
X152320252Y-118155408D01*
X152037460Y-117774525D01*
X151979131Y-117693685D01*
X151842856Y-117492124D01*
X151690070Y-117252412D01*
X151527952Y-116986661D01*
X151363681Y-116706986D01*
X151204437Y-116425497D01*
X151057397Y-116154309D01*
X150929741Y-115905532D01*
X150896299Y-115835610D01*
X150811708Y-115643986D01*
X150717285Y-115414060D01*
X150618589Y-115160638D01*
X150521181Y-114898525D01*
X150430621Y-114642529D01*
X150352470Y-114407456D01*
X150292289Y-114208111D01*
X150289052Y-114196519D01*
X150221876Y-113946948D01*
X150170031Y-113729780D01*
X150131299Y-113529220D01*
X150103459Y-113329471D01*
X150084293Y-113114736D01*
X150083119Y-113092074D01*
X150710321Y-113092074D01*
X150710999Y-113118957D01*
X150725989Y-113236283D01*
X150758039Y-113397944D01*
X150804037Y-113593108D01*
X150860869Y-113810944D01*
X150925423Y-114040621D01*
X150994586Y-114271310D01*
X151065245Y-114492178D01*
X151134287Y-114692395D01*
X151198601Y-114861130D01*
X151255072Y-114987553D01*
X151292585Y-115067946D01*
X151347882Y-115201809D01*
X151396217Y-115334207D01*
X151401071Y-115348154D01*
X151448599Y-115462598D01*
X151521171Y-115615772D01*
X151612108Y-115795299D01*
X151714735Y-115988801D01*
X151822375Y-116183900D01*
X151928352Y-116368216D01*
X152025990Y-116529373D01*
X152108611Y-116654992D01*
X152114257Y-116663059D01*
X152176975Y-116757401D01*
X152221422Y-116832745D01*
X152238292Y-116873419D01*
X152238294Y-116873589D01*
X152255005Y-116912836D01*
X152298745Y-116988144D01*
X152360953Y-117086785D01*
X152433067Y-117196032D01*
X152506527Y-117303156D01*
X152572771Y-117395431D01*
X152623237Y-117460129D01*
X152649364Y-117484524D01*
X152659796Y-117481797D01*
X152675823Y-117468700D01*
X152702048Y-117438474D01*
X152743654Y-117384365D01*
X152805825Y-117299619D01*
X152893742Y-117177482D01*
X153012589Y-117011200D01*
X153075312Y-116922615D01*
X153142294Y-116826081D01*
X153187609Y-116758365D01*
X153203836Y-116730365D01*
X153191609Y-116710824D01*
X153148948Y-116652408D01*
X153085272Y-116568460D01*
X153010636Y-116471959D01*
X152935099Y-116375887D01*
X152868717Y-116293224D01*
X152821547Y-116236950D01*
X152799805Y-116211535D01*
X152727142Y-116121320D01*
X152641384Y-116010112D01*
X152558879Y-115899330D01*
X152495980Y-115810396D01*
X152476871Y-115781727D01*
X152425501Y-115703881D01*
X152365465Y-115612288D01*
X152336288Y-115569266D01*
X152253617Y-115457681D01*
X152174876Y-115362657D01*
X152151773Y-115336432D01*
X152044257Y-115202023D01*
X151914180Y-115024125D01*
X151767347Y-114811758D01*
X151609562Y-114573941D01*
X151446631Y-114319694D01*
X151284357Y-114058036D01*
X151128546Y-113797988D01*
X150985003Y-113548569D01*
X150859531Y-113318799D01*
X150811926Y-113231575D01*
X150759672Y-113144211D01*
X150723851Y-113094744D01*
X150710321Y-113092074D01*
X150083119Y-113092074D01*
X150073821Y-112912521D01*
X150684799Y-112912521D01*
X150688534Y-112949553D01*
X150697919Y-112954434D01*
X150709336Y-112928750D01*
X150707084Y-112912231D01*
X150688534Y-112907947D01*
X150684799Y-112912521D01*
X150073821Y-112912521D01*
X150071579Y-112869219D01*
X150063099Y-112577123D01*
X150061151Y-112477407D01*
X150059631Y-112159313D01*
X150067411Y-111887955D01*
X150085652Y-111651489D01*
X150115520Y-111438069D01*
X150128708Y-111375552D01*
X150872164Y-111375552D01*
X150889142Y-111488463D01*
X150927634Y-111648880D01*
X150947506Y-111725787D01*
X150993280Y-111892433D01*
X151039310Y-112039670D01*
X151092242Y-112186436D01*
X151158723Y-112351668D01*
X151245398Y-112554303D01*
X151313838Y-112709846D01*
X151438941Y-112981435D01*
X151558298Y-113219823D01*
X151681212Y-113442274D01*
X151816982Y-113666053D01*
X151974910Y-113908423D01*
X152037819Y-114004262D01*
X152123538Y-114138865D01*
X152195415Y-114255843D01*
X152201531Y-114265994D01*
X152260827Y-114358696D01*
X152337673Y-114472147D01*
X152423345Y-114594253D01*
X152509120Y-114712921D01*
X152586274Y-114816058D01*
X152646083Y-114891571D01*
X152679825Y-114927366D01*
X152705349Y-114953757D01*
X152757772Y-115017991D01*
X152822954Y-115103706D01*
X152869395Y-115166795D01*
X152927579Y-115247111D01*
X152978235Y-115319853D01*
X153035168Y-115405012D01*
X153112182Y-115522584D01*
X153148128Y-115575559D01*
X153218852Y-115671014D01*
X153278093Y-115741011D01*
X153282736Y-115745887D01*
X153340040Y-115811659D01*
X153417357Y-115906594D01*
X153499328Y-116011886D01*
X153648844Y-116208659D01*
X153965515Y-115901936D01*
X154099950Y-115775695D01*
X154275078Y-115618823D01*
X154452726Y-115466212D01*
X154609828Y-115338048D01*
X154618786Y-115331016D01*
X154753183Y-115225253D01*
X154880282Y-115124805D01*
X154986134Y-115040719D01*
X155056787Y-114984045D01*
X155084105Y-114962647D01*
X155196727Y-114883723D01*
X155306419Y-114817591D01*
X155316816Y-114811968D01*
X155400681Y-114764587D01*
X155520671Y-114694732D01*
X155662325Y-114610887D01*
X155811179Y-114521533D01*
X155813296Y-114520253D01*
X156010477Y-114402361D01*
X156183580Y-114302667D01*
X156344414Y-114215501D01*
X156504788Y-114135189D01*
X156676512Y-114056061D01*
X156871395Y-113972445D01*
X157046816Y-113900874D01*
X159522868Y-113900874D01*
X159551218Y-113896849D01*
X159619996Y-113869385D01*
X159717622Y-113822922D01*
X159885899Y-113741423D01*
X160100360Y-113646565D01*
X160343936Y-113548390D01*
X160632186Y-113440391D01*
X160687760Y-113419834D01*
X160868612Y-113350209D01*
X161061188Y-113272975D01*
X161232216Y-113201384D01*
X161323640Y-113160999D01*
X161448257Y-113102824D01*
X161546530Y-113053226D01*
X161602808Y-113019872D01*
X161611555Y-113013263D01*
X161647437Y-112981439D01*
X161635224Y-112964531D01*
X161568350Y-112949042D01*
X161513362Y-112942231D01*
X161403172Y-112935253D01*
X161262186Y-112930503D01*
X161107812Y-112928750D01*
X160748732Y-112928750D01*
X160567559Y-113126467D01*
X160561815Y-113132720D01*
X160358734Y-113335956D01*
X160146680Y-113517067D01*
X159939117Y-113665453D01*
X159749508Y-113770516D01*
X159741954Y-113773958D01*
X159639146Y-113824185D01*
X159560930Y-113868356D01*
X159523713Y-113897259D01*
X159522868Y-113900874D01*
X157046816Y-113900874D01*
X157101245Y-113878667D01*
X157377872Y-113769058D01*
X157730221Y-113630628D01*
X157790020Y-113607134D01*
X157808934Y-113462966D01*
X157813854Y-113426377D01*
X157829227Y-113320354D01*
X157842329Y-113240240D01*
X157844996Y-113221421D01*
X157831742Y-113160980D01*
X157770112Y-113110372D01*
X157693984Y-113060100D01*
X157608431Y-112993906D01*
X157607709Y-112993280D01*
X157545073Y-112947330D01*
X157499218Y-112927559D01*
X157493934Y-112926261D01*
X157444387Y-112901714D01*
X157356142Y-112850850D01*
X157239845Y-112779958D01*
X157106142Y-112695329D01*
X156977848Y-112613373D01*
X156759623Y-112477906D01*
X156551685Y-112355144D01*
X156340493Y-112237655D01*
X156112506Y-112118010D01*
X155854181Y-111988777D01*
X155551979Y-111842527D01*
X155308219Y-111727884D01*
X154948166Y-111567812D01*
X154617178Y-111434063D01*
X154301205Y-111321415D01*
X153986198Y-111224645D01*
X153658108Y-111138530D01*
X153343966Y-111067519D01*
X152887758Y-110987455D01*
X152470654Y-110945691D01*
X152086400Y-110942285D01*
X151728740Y-110977297D01*
X151391419Y-111050785D01*
X151068181Y-111162807D01*
X150985755Y-111199247D01*
X150916925Y-111243205D01*
X150880243Y-111297886D01*
X150872164Y-111375552D01*
X150128708Y-111375552D01*
X150158177Y-111235853D01*
X150214787Y-111032996D01*
X150216102Y-111028746D01*
X150253692Y-110919683D01*
X150294421Y-110846922D01*
X150355369Y-110788156D01*
X150453615Y-110721077D01*
X150618621Y-110631273D01*
X150688534Y-110602340D01*
X150710321Y-110593323D01*
X150844409Y-110537831D01*
X151103908Y-110454063D01*
X151382168Y-110385372D01*
X151575973Y-110354350D01*
X151815607Y-110331391D01*
X152080630Y-110317542D01*
X152086400Y-110317454D01*
X152352668Y-110313414D01*
X152613350Y-110319618D01*
X152844305Y-110336765D01*
X153004255Y-110357410D01*
X153213576Y-110390155D01*
X153444555Y-110430629D01*
X153680489Y-110475637D01*
X153904674Y-110521982D01*
X154100406Y-110566469D01*
X154250982Y-110605902D01*
X154471306Y-110676710D01*
X154767792Y-110785705D01*
X155096481Y-110918345D01*
X155446246Y-111069518D01*
X155805959Y-111234113D01*
X156164493Y-111407019D01*
X156510720Y-111583125D01*
X156833513Y-111757319D01*
X157121744Y-111924492D01*
X157155896Y-111945120D01*
X157310616Y-112037059D01*
X157467720Y-112128311D01*
X157617869Y-112213678D01*
X157751725Y-112287961D01*
X157859948Y-112345960D01*
X157933199Y-112382477D01*
X157962138Y-112392312D01*
X157964455Y-112385498D01*
X157977429Y-112331930D01*
X157998146Y-112237717D01*
X158023359Y-112117448D01*
X158059370Y-111948763D01*
X158115653Y-111701546D01*
X158175236Y-111454595D01*
X158230899Y-111238481D01*
X158242126Y-111196696D01*
X158259119Y-111144390D01*
X158282321Y-111103974D01*
X158318757Y-111073915D01*
X158375452Y-111052682D01*
X158459431Y-111038744D01*
X158577717Y-111030570D01*
X158737336Y-111026627D01*
X158945313Y-111025384D01*
X159208672Y-111025310D01*
X159265710Y-111025339D01*
X159529896Y-111026487D01*
X159737868Y-111029476D01*
X159894815Y-111034529D01*
X160005924Y-111041870D01*
X160076382Y-111051724D01*
X160111377Y-111064315D01*
X160112135Y-111064892D01*
X160146780Y-111114688D01*
X160186752Y-111205545D01*
X160223551Y-111318223D01*
X160242367Y-111381223D01*
X160311931Y-111543155D01*
X160403091Y-111654004D01*
X160524203Y-111721688D01*
X160683625Y-111754124D01*
X160748732Y-111760389D01*
X160875481Y-111772585D01*
X161162190Y-111359943D01*
X161197296Y-111308766D01*
X161312006Y-111133726D01*
X161423356Y-110953377D01*
X161520141Y-110786248D01*
X161591152Y-110650863D01*
X161636585Y-110558566D01*
X161694565Y-110447828D01*
X161740717Y-110367819D01*
X161767869Y-110331500D01*
X161769856Y-110330278D01*
X161825945Y-110314761D01*
X161908656Y-110308098D01*
X161913324Y-110308113D01*
X161957553Y-110313385D01*
X162004417Y-110332325D01*
X162062072Y-110371168D01*
X162138672Y-110436148D01*
X162242371Y-110533498D01*
X162381324Y-110669453D01*
X162747670Y-111031287D01*
X162871167Y-110848876D01*
X162878304Y-110838318D01*
X162956828Y-110718562D01*
X163019829Y-110612092D01*
X163076535Y-110500930D01*
X163136173Y-110367096D01*
X163207970Y-110192613D01*
X163234887Y-110127811D01*
X163285462Y-110016003D01*
X163328152Y-109933896D01*
X163355823Y-109895811D01*
X163424873Y-109874468D01*
X163533106Y-109873360D01*
X163648915Y-109893987D01*
G37*
G36*
X177682230Y-118818422D02*
G01*
X177700737Y-118854676D01*
X177679586Y-118879937D01*
X177619108Y-118944231D01*
X177524219Y-119042514D01*
X177399836Y-119169758D01*
X177250876Y-119320931D01*
X177082254Y-119491005D01*
X176898888Y-119674951D01*
X176097039Y-120477245D01*
X176154787Y-120658096D01*
X176172119Y-120713956D01*
X176272762Y-121146067D01*
X176315399Y-121576875D01*
X176300547Y-122000898D01*
X176228727Y-122412655D01*
X176100457Y-122806666D01*
X175916256Y-123177448D01*
X175810632Y-123332669D01*
X175641504Y-123533265D01*
X175444549Y-123729328D01*
X175236090Y-123904855D01*
X175032451Y-124043843D01*
X175010834Y-124056425D01*
X174668984Y-124219799D01*
X174294482Y-124339435D01*
X173900016Y-124413663D01*
X173498273Y-124440818D01*
X173101942Y-124419233D01*
X172723710Y-124347239D01*
X172693793Y-124339247D01*
X172569328Y-124306435D01*
X172465032Y-124279587D01*
X172400940Y-124263878D01*
X172375398Y-124261893D01*
X172330252Y-124276128D01*
X172270074Y-124317063D01*
X172185900Y-124391208D01*
X172068765Y-124505072D01*
X171995364Y-124576444D01*
X171887353Y-124673160D01*
X171811553Y-124728550D01*
X171771988Y-124739437D01*
X171767124Y-124727491D01*
X171793731Y-124675980D01*
X171868078Y-124586476D01*
X171990606Y-124458413D01*
X172246965Y-124200715D01*
X172064084Y-124103171D01*
X171978472Y-124054447D01*
X171837449Y-123965530D01*
X171712778Y-123878064D01*
X171544353Y-123750502D01*
X171232796Y-124062059D01*
X170921240Y-124373615D01*
X170972168Y-124523080D01*
X171008512Y-124663392D01*
X171017791Y-124872442D01*
X170973710Y-125097234D01*
X170969097Y-125111973D01*
X170886650Y-125277927D01*
X170759256Y-125432458D01*
X170602694Y-125559632D01*
X170432745Y-125643514D01*
X170264934Y-125681511D01*
X170043389Y-125681902D01*
X169830656Y-125630025D01*
X169637485Y-125530249D01*
X169474625Y-125386944D01*
X169352829Y-125204483D01*
X169321712Y-125122999D01*
X169288521Y-124959278D01*
X169282748Y-124857471D01*
X169721729Y-124857471D01*
X169725121Y-124885070D01*
X169776389Y-125028739D01*
X169873138Y-125146110D01*
X170002465Y-125225269D01*
X170151468Y-125254303D01*
X170182133Y-125251962D01*
X170295429Y-125216405D01*
X170408097Y-125149892D01*
X170492152Y-125067748D01*
X170497193Y-125060506D01*
X170559647Y-124920765D01*
X170572270Y-124770518D01*
X170533085Y-124630846D01*
X170495555Y-124568837D01*
X170389067Y-124460983D01*
X170263801Y-124400276D01*
X170130541Y-124383705D01*
X170000069Y-124408258D01*
X169883169Y-124470923D01*
X169790623Y-124568688D01*
X169733216Y-124698542D01*
X169721729Y-124857471D01*
X169282748Y-124857471D01*
X169278338Y-124779696D01*
X169291918Y-124608563D01*
X169330015Y-124470184D01*
X169378050Y-124375313D01*
X169519178Y-124189522D01*
X169705144Y-124046487D01*
X169804494Y-124001602D01*
X169974121Y-123960230D01*
X170130541Y-123947711D01*
X170157997Y-123945514D01*
X170333255Y-123958791D01*
X170477027Y-124001395D01*
X170601842Y-124061223D01*
X170918451Y-123748826D01*
X171235059Y-123436429D01*
X171145893Y-123298592D01*
X173322849Y-123298592D01*
X173324551Y-123300571D01*
X173370095Y-123311960D01*
X173461741Y-123314843D01*
X173585602Y-123310267D01*
X173727787Y-123299275D01*
X173874407Y-123282911D01*
X174011571Y-123262220D01*
X174125391Y-123238247D01*
X174211120Y-123213673D01*
X174498104Y-123093933D01*
X174753092Y-122927966D01*
X174969533Y-122721694D01*
X175140879Y-122481038D01*
X175260579Y-122211919D01*
X175278339Y-122151221D01*
X175313621Y-121979255D01*
X175335602Y-121791703D01*
X175343212Y-121607432D01*
X175335378Y-121445307D01*
X175311028Y-121324195D01*
X175293074Y-121328506D01*
X175232391Y-121374761D01*
X175129385Y-121465905D01*
X174984344Y-121601666D01*
X174797553Y-121781775D01*
X174569301Y-122005963D01*
X174299875Y-122273961D01*
X174135520Y-122438916D01*
X173942549Y-122634393D01*
X173767993Y-122813209D01*
X173616177Y-122970829D01*
X173491428Y-123102715D01*
X173398073Y-123204329D01*
X173340438Y-123271133D01*
X173322849Y-123298592D01*
X171145893Y-123298592D01*
X171097852Y-123224328D01*
X171072060Y-123183559D01*
X170893986Y-122839669D01*
X170763132Y-122465135D01*
X170682021Y-122071704D01*
X170658273Y-121741899D01*
X171650565Y-121741899D01*
X171663579Y-121935885D01*
X171691505Y-122094827D01*
X171692495Y-122098494D01*
X171726570Y-122198910D01*
X171776148Y-122316242D01*
X171833586Y-122435483D01*
X171891238Y-122541625D01*
X171941461Y-122619657D01*
X171976610Y-122654573D01*
X171989812Y-122646281D01*
X172043664Y-122599484D01*
X172134723Y-122514942D01*
X172258925Y-122396594D01*
X172412205Y-122248377D01*
X172590500Y-122074229D01*
X172789743Y-121878087D01*
X173005873Y-121663889D01*
X173234823Y-121435574D01*
X174463404Y-120206697D01*
X174287137Y-120140747D01*
X174195394Y-120109439D01*
X173892683Y-120041705D01*
X173571409Y-120016705D01*
X173245437Y-120033151D01*
X172928637Y-120089753D01*
X172634875Y-120185221D01*
X172378020Y-120318266D01*
X172172935Y-120473155D01*
X171960181Y-120698522D01*
X171798335Y-120954952D01*
X171691477Y-121236982D01*
X171669273Y-121350962D01*
X171652462Y-121538411D01*
X171650565Y-121741899D01*
X170658273Y-121741899D01*
X170653177Y-121671124D01*
X170679123Y-121275144D01*
X170695974Y-121166508D01*
X170795600Y-120752093D01*
X170945277Y-120374388D01*
X171143629Y-120034883D01*
X171389279Y-119735065D01*
X171680850Y-119476425D01*
X172016965Y-119260451D01*
X172396248Y-119088632D01*
X172817321Y-118962458D01*
X172880972Y-118949265D01*
X173095485Y-118920725D01*
X173342757Y-118905801D01*
X173571409Y-118904479D01*
X173604011Y-118904291D01*
X173860471Y-118915995D01*
X174093361Y-118940709D01*
X174283906Y-118978231D01*
X174365324Y-119001488D01*
X174720060Y-119134471D01*
X175056496Y-119310799D01*
X175360947Y-119522448D01*
X175619726Y-119761394D01*
X175694503Y-119841410D01*
X175765906Y-119921908D01*
X175807128Y-119986279D01*
X175816161Y-120044869D01*
X175790997Y-120108024D01*
X175729626Y-120186090D01*
X175630041Y-120289411D01*
X175490231Y-120428335D01*
X175124430Y-120793183D01*
X175005050Y-120636642D01*
X174945118Y-120563486D01*
X174886323Y-120503233D01*
X174850166Y-120480101D01*
X174847012Y-120481684D01*
X174808968Y-120514112D01*
X174733123Y-120584729D01*
X174624322Y-120688722D01*
X174487414Y-120821275D01*
X174327245Y-120977575D01*
X174148663Y-121152807D01*
X173956513Y-121342156D01*
X173755643Y-121540808D01*
X173550900Y-121743949D01*
X173347130Y-121946763D01*
X173149181Y-122144436D01*
X172961900Y-122332154D01*
X172790134Y-122505102D01*
X172638728Y-122658466D01*
X172512532Y-122787431D01*
X172416390Y-122887182D01*
X172355151Y-122952906D01*
X172333660Y-122979787D01*
X172337047Y-122987243D01*
X172381412Y-123020175D01*
X172466396Y-123065086D01*
X172578248Y-123115957D01*
X172703214Y-123166767D01*
X172827541Y-123211494D01*
X172937475Y-123244118D01*
X173151240Y-123297619D01*
X175311028Y-121137985D01*
X175403926Y-121045094D01*
X175635405Y-120813864D01*
X175937997Y-120512318D01*
X176226079Y-120226047D01*
X176496697Y-119957946D01*
X176746899Y-119710910D01*
X176973733Y-119487833D01*
X177174246Y-119291610D01*
X177345487Y-119125137D01*
X177484502Y-118991308D01*
X177588340Y-118893017D01*
X177654048Y-118833160D01*
X177678674Y-118814632D01*
X177682230Y-118818422D01*
G37*
G36*
X164965286Y-120529793D02*
G01*
X165131515Y-120577405D01*
X165295078Y-120654730D01*
X165444886Y-120757558D01*
X165569851Y-120881682D01*
X165658885Y-121022893D01*
X165664860Y-121036567D01*
X165695530Y-121136267D01*
X165712351Y-121263773D01*
X165717742Y-121436059D01*
X165717603Y-121500328D01*
X165713282Y-121625789D01*
X165700061Y-121718321D01*
X165673906Y-121798903D01*
X165630785Y-121888516D01*
X165543144Y-122055900D01*
X165630785Y-122222889D01*
X165633658Y-122228380D01*
X165677844Y-122322420D01*
X165703546Y-122409044D01*
X165715496Y-122511477D01*
X165718427Y-122652945D01*
X165712059Y-122820193D01*
X165684592Y-122979826D01*
X165629824Y-123116669D01*
X165541749Y-123251052D01*
X165435066Y-123361885D01*
X165290242Y-123461462D01*
X165128357Y-123535115D01*
X164962008Y-123579577D01*
X164803792Y-123591580D01*
X164666304Y-123567858D01*
X164562141Y-123505142D01*
X164545778Y-123486344D01*
X164511710Y-123408157D01*
X164501474Y-123288455D01*
X164509839Y-123184386D01*
X164550768Y-123087954D01*
X164633977Y-123027602D01*
X164768459Y-122993386D01*
X164786741Y-122990421D01*
X164915113Y-122949296D01*
X165022259Y-122867523D01*
X165069944Y-122812817D01*
X165122057Y-122701195D01*
X165111960Y-122589574D01*
X165039742Y-122475989D01*
X165029745Y-122465178D01*
X164959593Y-122407327D01*
X164870408Y-122366586D01*
X164751448Y-122340440D01*
X164591968Y-122326376D01*
X164381223Y-122321878D01*
X164058148Y-122321133D01*
X163772747Y-122564327D01*
X163646517Y-122671380D01*
X163527718Y-122769298D01*
X163438753Y-122836599D01*
X163370149Y-122878979D01*
X163312433Y-122902132D01*
X163256130Y-122911751D01*
X163191767Y-122913530D01*
X163128884Y-122912198D01*
X163059179Y-122903385D01*
X163006086Y-122880244D01*
X162967350Y-122835906D01*
X162940715Y-122763503D01*
X162923926Y-122656169D01*
X162914726Y-122507036D01*
X162910861Y-122309235D01*
X162910073Y-122055900D01*
X162910459Y-121859192D01*
X162913329Y-121648457D01*
X162920990Y-121488068D01*
X162935730Y-121371153D01*
X162959835Y-121290845D01*
X162995594Y-121240272D01*
X163045295Y-121212565D01*
X163111224Y-121200854D01*
X163195670Y-121198270D01*
X163204646Y-121198268D01*
X163263139Y-121201302D01*
X163316781Y-121213969D01*
X163376176Y-121242277D01*
X163451930Y-121292234D01*
X163554647Y-121369848D01*
X163694933Y-121481128D01*
X164049017Y-121764465D01*
X164454668Y-121752482D01*
X164478162Y-121751743D01*
X164702286Y-121738294D01*
X164871500Y-121712862D01*
X164992119Y-121672420D01*
X165070458Y-121613940D01*
X165112831Y-121534393D01*
X165125552Y-121430752D01*
X165120769Y-121397985D01*
X165077345Y-121310972D01*
X165003450Y-121225812D01*
X164917245Y-121161088D01*
X164836892Y-121135384D01*
X164795956Y-121133101D01*
X164685107Y-121108192D01*
X164589220Y-121063668D01*
X164532019Y-121009337D01*
X164528250Y-121001841D01*
X164503429Y-120904965D01*
X164502111Y-120789339D01*
X164522335Y-120681167D01*
X164562141Y-120606657D01*
X164669186Y-120540537D01*
X164807481Y-120516100D01*
X164965286Y-120529793D01*
G37*
G36*
X161488928Y-115277300D02*
G01*
X161736263Y-115277683D01*
X161989523Y-115308343D01*
X162218562Y-115373246D01*
X162439622Y-115475677D01*
X162613079Y-115578150D01*
X162876580Y-115771799D01*
X163082832Y-115981471D01*
X163234455Y-116210049D01*
X163334069Y-116460417D01*
X163351735Y-116522640D01*
X163383610Y-116635015D01*
X163407685Y-116720028D01*
X163415383Y-116760617D01*
X163425778Y-116862240D01*
X163433522Y-116996118D01*
X163437346Y-117144090D01*
X163433267Y-117325360D01*
X163387226Y-117674626D01*
X163290145Y-117988785D01*
X163141628Y-118268933D01*
X162941277Y-118516167D01*
X162833083Y-118621934D01*
X162720408Y-118716834D01*
X162603061Y-118794715D01*
X162467061Y-118863560D01*
X162298424Y-118931353D01*
X162083169Y-119006074D01*
X162040291Y-119018356D01*
X161884289Y-119044709D01*
X161694263Y-119058136D01*
X161489289Y-119058936D01*
X161288441Y-119047411D01*
X161110796Y-119023863D01*
X160975430Y-118988591D01*
X160908727Y-118963357D01*
X160777201Y-118914165D01*
X160664763Y-118872739D01*
X160488203Y-118785189D01*
X160293194Y-118635704D01*
X160110195Y-118441621D01*
X159946795Y-118212362D01*
X159810583Y-117957353D01*
X159709148Y-117686017D01*
X159703245Y-117660800D01*
X160450746Y-117660800D01*
X160454330Y-117765975D01*
X160503730Y-117874573D01*
X160573019Y-117970976D01*
X160693489Y-118080199D01*
X160819135Y-118128558D01*
X160946132Y-118115874D01*
X161070652Y-118041967D01*
X161188870Y-117906660D01*
X161194385Y-117898422D01*
X161249981Y-117763419D01*
X161244486Y-117625213D01*
X161178772Y-117487367D01*
X161053708Y-117353445D01*
X160950380Y-117294244D01*
X160822659Y-117279564D01*
X160697700Y-117319538D01*
X160589326Y-117412410D01*
X160495261Y-117546711D01*
X160450746Y-117660800D01*
X159703245Y-117660800D01*
X159686910Y-117591019D01*
X159662866Y-117404892D01*
X159653261Y-117195943D01*
X159658063Y-116985065D01*
X159677239Y-116793149D01*
X159710758Y-116641086D01*
X159742654Y-116549153D01*
X159744679Y-116544700D01*
X161453255Y-116544700D01*
X161470687Y-116589487D01*
X161522498Y-116590511D01*
X161544792Y-116579652D01*
X161565406Y-116540900D01*
X161525142Y-116489022D01*
X161488928Y-116470944D01*
X161462633Y-116503620D01*
X161453255Y-116544700D01*
X159744679Y-116544700D01*
X159884919Y-116236303D01*
X160064817Y-115961722D01*
X160277459Y-115731996D01*
X160517956Y-115553713D01*
X160713327Y-115447998D01*
X160822659Y-115404680D01*
X160943370Y-115356854D01*
X161184031Y-115302267D01*
X161459090Y-115277254D01*
X161488928Y-115277300D01*
G37*
G36*
X161791352Y-125030454D02*
G01*
X161981796Y-125052592D01*
X162131209Y-125088196D01*
X162309924Y-125158640D01*
X162614245Y-125325448D01*
X162876785Y-125534965D01*
X163094094Y-125783607D01*
X163262721Y-126067792D01*
X163379216Y-126383939D01*
X163384440Y-126404080D01*
X163421980Y-126628566D01*
X163435014Y-126885799D01*
X163424325Y-127153745D01*
X163390695Y-127410372D01*
X163334903Y-127633647D01*
X163301236Y-127729869D01*
X163232045Y-127892898D01*
X163150803Y-128029214D01*
X163044212Y-128159250D01*
X162898974Y-128303441D01*
X162796594Y-128393307D01*
X162542327Y-128574524D01*
X162274961Y-128712629D01*
X162009638Y-128799179D01*
X161866891Y-128823778D01*
X161617630Y-128840797D01*
X161359352Y-128832006D01*
X161114492Y-128798574D01*
X160905484Y-128741668D01*
X160877379Y-128731025D01*
X160559365Y-128578954D01*
X160288141Y-128386350D01*
X160064431Y-128153826D01*
X159888961Y-127881997D01*
X159865303Y-127835706D01*
X159764694Y-127612652D01*
X159749021Y-127562907D01*
X161449407Y-127562907D01*
X161470555Y-127602631D01*
X161522498Y-127605498D01*
X161543177Y-127592851D01*
X161568304Y-127544453D01*
X161547851Y-127509547D01*
X161501138Y-127503342D01*
X161459090Y-127532190D01*
X161449407Y-127562907D01*
X159749021Y-127562907D01*
X159699930Y-127407096D01*
X159665089Y-127195648D01*
X159654248Y-126954917D01*
X159661122Y-126734921D01*
X159699362Y-126460688D01*
X159718121Y-126400146D01*
X160444963Y-126400146D01*
X160445134Y-126409677D01*
X160477902Y-126538142D01*
X160557775Y-126656532D01*
X160670840Y-126749285D01*
X160803183Y-126800839D01*
X160895685Y-126802621D01*
X161028237Y-126754719D01*
X161155597Y-126650839D01*
X161170183Y-126634601D01*
X161246047Y-126508230D01*
X161259827Y-126377600D01*
X161211615Y-126243609D01*
X161101500Y-126107161D01*
X161099899Y-126105605D01*
X160982525Y-126016252D01*
X160866983Y-125983543D01*
X160739970Y-126003669D01*
X160698249Y-126023812D01*
X160610426Y-126097343D01*
X160528720Y-126198309D01*
X160468456Y-126306109D01*
X160444963Y-126400146D01*
X159718121Y-126400146D01*
X159776206Y-126212681D01*
X159897409Y-125973848D01*
X160068729Y-125727139D01*
X160253234Y-125516958D01*
X160473986Y-125333074D01*
X160726341Y-125189896D01*
X160866983Y-125137142D01*
X161023568Y-125078408D01*
X161173274Y-125046598D01*
X161367146Y-125027281D01*
X161501138Y-125023928D01*
X161579820Y-125021959D01*
X161791352Y-125030454D01*
G37*
%TD*%
%LPC*%
D11*
%TO.C,J1*%
X199500000Y-126500000D03*
D12*
X196960000Y-126500000D03*
X199500000Y-123960000D03*
X196960000Y-123960000D03*
X199500000Y-121420000D03*
X196960000Y-121420000D03*
X199500000Y-118880000D03*
X196960000Y-118880000D03*
%TD*%
D13*
%TO.C,U1*%
X136000000Y-125225000D03*
D14*
X139030000Y-124925000D03*
X139030000Y-120075000D03*
D13*
X136000000Y-119775000D03*
D15*
X135870000Y-131390000D03*
X138410000Y-131390000D03*
D16*
X140950000Y-131390000D03*
D15*
X143490000Y-131390000D03*
X146030000Y-131390000D03*
X148570000Y-131390000D03*
X151110000Y-131390000D03*
D16*
X153650000Y-131390000D03*
D15*
X156190000Y-131390000D03*
X158730000Y-131390000D03*
X161270000Y-131390000D03*
X163810000Y-131390000D03*
D16*
X166350000Y-131390000D03*
D15*
X168890000Y-131390000D03*
X171430000Y-131390000D03*
X173970000Y-131390000D03*
X176510000Y-131390000D03*
D16*
X179050000Y-131390000D03*
D15*
X181590000Y-131390000D03*
X184130000Y-131390000D03*
X184130000Y-113610000D03*
X181590000Y-113610000D03*
D16*
X179050000Y-113610000D03*
D15*
X176510000Y-113610000D03*
X173970000Y-113610000D03*
X171430000Y-113610000D03*
X168890000Y-113610000D03*
D16*
X166350000Y-113610000D03*
D15*
X163810000Y-113610000D03*
X161270000Y-113610000D03*
X158730000Y-113610000D03*
X156190000Y-113610000D03*
D16*
X153650000Y-113610000D03*
D15*
X151110000Y-113610000D03*
X148570000Y-113610000D03*
X146030000Y-113610000D03*
X143490000Y-113610000D03*
D16*
X140950000Y-113610000D03*
D15*
X138410000Y-113610000D03*
X135870000Y-113610000D03*
X183900000Y-125040000D03*
D16*
X183900000Y-122500000D03*
D15*
X183900000Y-119960000D03*
%TD*%
D16*
%TO.C,J2*%
X208500000Y-126540000D03*
D15*
X208500000Y-124000000D03*
X208500000Y-121460000D03*
X208500000Y-118920000D03*
%TD*%
D16*
%TO.C,J4*%
X184125000Y-136400000D03*
D15*
X181585000Y-136400000D03*
X179045000Y-136400000D03*
X176505000Y-136400000D03*
X173965000Y-136400000D03*
X171425000Y-136400000D03*
X168885000Y-136400000D03*
X166345000Y-136400000D03*
X163805000Y-136400000D03*
X161265000Y-136400000D03*
X158725000Y-136400000D03*
X156185000Y-136400000D03*
X153645000Y-136400000D03*
X151105000Y-136400000D03*
X148565000Y-136400000D03*
X146025000Y-136400000D03*
X143485000Y-136400000D03*
X140945000Y-136400000D03*
X138405000Y-136400000D03*
X135865000Y-136400000D03*
%TD*%
D16*
%TO.C,J3*%
X135870000Y-108600000D03*
D15*
X138410000Y-108600000D03*
X140950000Y-108600000D03*
X143490000Y-108600000D03*
X146030000Y-108600000D03*
X148570000Y-108600000D03*
X151110000Y-108600000D03*
X153650000Y-108600000D03*
X156190000Y-108600000D03*
X158730000Y-108600000D03*
X161270000Y-108600000D03*
X163810000Y-108600000D03*
X166350000Y-108600000D03*
X168890000Y-108600000D03*
X171430000Y-108600000D03*
X173970000Y-108600000D03*
X176510000Y-108600000D03*
X179050000Y-108600000D03*
X181590000Y-108600000D03*
X184130000Y-108600000D03*
%TD*%
%LPD*%
M02*
