%TF.GenerationSoftware,KiCad,Pcbnew,8.0.4*%
%TF.CreationDate,2024-08-16T15:48:25+02:00*%
%TF.ProjectId,picoSPI,7069636f-5350-4492-9e6b-696361645f70,rev?*%
%TF.SameCoordinates,Original*%
%TF.FileFunction,Soldermask,Top*%
%TF.FilePolarity,Negative*%
%FSLAX46Y46*%
G04 Gerber Fmt 4.6, Leading zero omitted, Abs format (unit mm)*
G04 Created by KiCad (PCBNEW 8.0.4) date 2024-08-16 15:48:25*
%MOMM*%
%LPD*%
G01*
G04 APERTURE LIST*
G04 Aperture macros list*
%AMRoundRect*
0 Rectangle with rounded corners*
0 $1 Rounding radius*
0 $2 $3 $4 $5 $6 $7 $8 $9 X,Y pos of 4 corners*
0 Add a 4 corners polygon primitive as box body*
4,1,4,$2,$3,$4,$5,$6,$7,$8,$9,$2,$3,0*
0 Add four circle primitives for the rounded corners*
1,1,$1+$1,$2,$3*
1,1,$1+$1,$4,$5*
1,1,$1+$1,$6,$7*
1,1,$1+$1,$8,$9*
0 Add four rect primitives between the rounded corners*
20,1,$1+$1,$2,$3,$4,$5,0*
20,1,$1+$1,$4,$5,$6,$7,0*
20,1,$1+$1,$6,$7,$8,$9,0*
20,1,$1+$1,$8,$9,$2,$3,0*%
G04 Aperture macros list end*
%ADD10RoundRect,0.250000X0.600000X0.600000X-0.600000X0.600000X-0.600000X-0.600000X0.600000X-0.600000X0*%
%ADD11C,1.700000*%
%ADD12O,1.800000X1.800000*%
%ADD13O,1.500000X1.500000*%
%ADD14O,1.700000X1.700000*%
%ADD15R,1.700000X3.500000*%
%ADD16R,1.700000X1.700000*%
%ADD17R,3.500000X1.700000*%
%ADD18RoundRect,0.150000X-0.587500X-0.150000X0.587500X-0.150000X0.587500X0.150000X-0.587500X0.150000X0*%
G04 APERTURE END LIST*
D10*
%TO.C,J1*%
X199500000Y-126500000D03*
D11*
X196960000Y-126500000D03*
X199500000Y-123960000D03*
X196960000Y-123960000D03*
X199500000Y-121420000D03*
X196960000Y-121420000D03*
X199500000Y-118880000D03*
X196960000Y-118880000D03*
%TD*%
D12*
%TO.C,U1*%
X136000000Y-125225000D03*
D13*
X139030000Y-124925000D03*
X139030000Y-120075000D03*
D12*
X136000000Y-119775000D03*
D14*
X135870000Y-131390000D03*
D15*
X135870000Y-132290000D03*
D14*
X138410000Y-131390000D03*
D15*
X138410000Y-132290000D03*
D16*
X140950000Y-131390000D03*
D15*
X140950000Y-132290000D03*
D14*
X143490000Y-131390000D03*
D15*
X143490000Y-132290000D03*
D14*
X146030000Y-131390000D03*
D15*
X146030000Y-132290000D03*
D14*
X148570000Y-131390000D03*
D15*
X148570000Y-132290000D03*
D14*
X151110000Y-131390000D03*
D15*
X151110000Y-132290000D03*
D16*
X153650000Y-131390000D03*
D15*
X153650000Y-132290000D03*
D14*
X156190000Y-131390000D03*
D15*
X156190000Y-132290000D03*
D14*
X158730000Y-131390000D03*
D15*
X158730000Y-132290000D03*
D14*
X161270000Y-131390000D03*
D15*
X161270000Y-132290000D03*
D14*
X163810000Y-131390000D03*
D15*
X163810000Y-132290000D03*
D16*
X166350000Y-131390000D03*
D15*
X166350000Y-132290000D03*
D14*
X168890000Y-131390000D03*
D15*
X168890000Y-132290000D03*
D14*
X171430000Y-131390000D03*
D15*
X171430000Y-132290000D03*
D14*
X173970000Y-131390000D03*
D15*
X173970000Y-132290000D03*
D14*
X176510000Y-131390000D03*
D15*
X176510000Y-132290000D03*
D16*
X179050000Y-131390000D03*
D15*
X179050000Y-132290000D03*
D14*
X181590000Y-131390000D03*
D15*
X181590000Y-132290000D03*
D14*
X184130000Y-131390000D03*
D15*
X184130000Y-132290000D03*
D14*
X184130000Y-113610000D03*
D15*
X184130000Y-112710000D03*
D14*
X181590000Y-113610000D03*
D15*
X181590000Y-112710000D03*
D16*
X179050000Y-113610000D03*
D15*
X179050000Y-112710000D03*
D14*
X176510000Y-113610000D03*
D15*
X176510000Y-112710000D03*
D14*
X173970000Y-113610000D03*
D15*
X173970000Y-112710000D03*
D14*
X171430000Y-113610000D03*
D15*
X171430000Y-112710000D03*
D14*
X168890000Y-113610000D03*
D15*
X168890000Y-112710000D03*
D16*
X166350000Y-113610000D03*
D15*
X166350000Y-112710000D03*
D14*
X163810000Y-113610000D03*
D15*
X163810000Y-112710000D03*
D14*
X161270000Y-113610000D03*
D15*
X161270000Y-112710000D03*
D14*
X158730000Y-113610000D03*
D15*
X158730000Y-112710000D03*
D14*
X156190000Y-113610000D03*
D15*
X156190000Y-112710000D03*
D16*
X153650000Y-113610000D03*
D15*
X153650000Y-112710000D03*
D14*
X151110000Y-113610000D03*
D15*
X151110000Y-112710000D03*
D14*
X148570000Y-113610000D03*
D15*
X148570000Y-112710000D03*
D14*
X146030000Y-113610000D03*
D15*
X146030000Y-112710000D03*
D14*
X143490000Y-113610000D03*
D15*
X143490000Y-112710000D03*
D16*
X140950000Y-113610000D03*
D15*
X140950000Y-112710000D03*
D14*
X138410000Y-113610000D03*
D15*
X138410000Y-112710000D03*
D14*
X135870000Y-113610000D03*
D15*
X135870000Y-112710000D03*
D14*
X183900000Y-125040000D03*
D17*
X184800000Y-125040000D03*
D16*
X183900000Y-122500000D03*
D17*
X184800000Y-122500000D03*
D14*
X183900000Y-119960000D03*
D17*
X184800000Y-119960000D03*
%TD*%
D16*
%TO.C,J2*%
X208500000Y-126540000D03*
D14*
X208500000Y-124000000D03*
X208500000Y-121460000D03*
X208500000Y-118920000D03*
%TD*%
D16*
%TO.C,J4*%
X184125000Y-136400000D03*
D14*
X181585000Y-136400000D03*
X179045000Y-136400000D03*
X176505000Y-136400000D03*
X173965000Y-136400000D03*
X171425000Y-136400000D03*
X168885000Y-136400000D03*
X166345000Y-136400000D03*
X163805000Y-136400000D03*
X161265000Y-136400000D03*
X158725000Y-136400000D03*
X156185000Y-136400000D03*
X153645000Y-136400000D03*
X151105000Y-136400000D03*
X148565000Y-136400000D03*
X146025000Y-136400000D03*
X143485000Y-136400000D03*
X140945000Y-136400000D03*
X138405000Y-136400000D03*
X135865000Y-136400000D03*
%TD*%
D18*
%TO.C,D1*%
X189062500Y-115050000D03*
X189062500Y-116950000D03*
X190937500Y-116000000D03*
%TD*%
D16*
%TO.C,J3*%
X135870000Y-108600000D03*
D14*
X138410000Y-108600000D03*
X140950000Y-108600000D03*
X143490000Y-108600000D03*
X146030000Y-108600000D03*
X148570000Y-108600000D03*
X151110000Y-108600000D03*
X153650000Y-108600000D03*
X156190000Y-108600000D03*
X158730000Y-108600000D03*
X161270000Y-108600000D03*
X163810000Y-108600000D03*
X166350000Y-108600000D03*
X168890000Y-108600000D03*
X171430000Y-108600000D03*
X173970000Y-108600000D03*
X176510000Y-108600000D03*
X179050000Y-108600000D03*
X181590000Y-108600000D03*
X184130000Y-108600000D03*
%TD*%
M02*
