M48
; DRILL file {KiCad 8.0.4} date 2024-08-16T15:14:09+0200
; FORMAT={-:-/ absolute / inch / decimal}
; #@! TF.CreationDate,2024-08-16T15:14:09+02:00
; #@! TF.GenerationSoftware,Kicad,Pcbnew,8.0.4
; #@! TF.FileFunction,Plated,1,2,PTH
FMAT,2
INCH
; #@! TA.AperFunction,Plated,PTH,ViaDrill
T1C0.0118
; #@! TA.AperFunction,Plated,PTH,ComponentDrill
T2C0.0394
; #@! TA.AperFunction,Plated,PTH,ComponentDrill
T3C0.0402
%
G90
G05
T1
X7.5591Y-4.8228
T2
X5.349Y-5.3701
X5.3492Y-4.2756
X5.449Y-5.3701
X5.4492Y-4.2756
X5.549Y-5.3701
X5.5492Y-4.2756
X5.649Y-5.3701
X5.6492Y-4.2756
X5.749Y-5.3701
X5.7492Y-4.2756
X5.849Y-5.3701
X5.8492Y-4.2756
X5.949Y-5.3701
X5.9492Y-4.2756
X6.049Y-5.3701
X6.0492Y-4.2756
X6.149Y-5.3701
X6.1492Y-4.2756
X6.249Y-5.3701
X6.2492Y-4.2756
X6.349Y-5.3701
X6.3492Y-4.2756
X6.449Y-5.3701
X6.4492Y-4.2756
X6.549Y-5.3701
X6.5492Y-4.2756
X6.649Y-5.3701
X6.6492Y-4.2756
X6.749Y-5.3701
X6.7492Y-4.2756
X6.849Y-5.3701
X6.8492Y-4.2756
X6.949Y-5.3701
X6.9492Y-4.2756
X7.049Y-5.3701
X7.0492Y-4.2756
X7.149Y-5.3701
X7.1492Y-4.2756
X7.249Y-5.3701
X7.2492Y-4.2756
X7.7543Y-4.6803
X7.7543Y-4.7803
X7.7543Y-4.8803
X7.7543Y-4.9803
X7.8543Y-4.6803
X7.8543Y-4.7803
X7.8543Y-4.8803
X7.8543Y-4.9803
X8.2087Y-4.6819
X8.2087Y-4.7819
X8.2087Y-4.8819
X8.2087Y-4.9819
T3
X5.3492Y-4.4728
X5.3492Y-5.1728
X5.4492Y-4.4728
X5.4492Y-5.1728
X5.5492Y-4.4728
X5.5492Y-5.1728
X5.6492Y-4.4728
X5.6492Y-5.1728
X5.7492Y-4.4728
X5.7492Y-5.1728
X5.8492Y-4.4728
X5.8492Y-5.1728
X5.9492Y-4.4728
X5.9492Y-5.1728
X6.0492Y-4.4728
X6.0492Y-5.1728
X6.1492Y-4.4728
X6.1492Y-5.1728
X6.2492Y-4.4728
X6.2492Y-5.1728
X6.3492Y-4.4728
X6.3492Y-5.1728
X6.4492Y-4.4728
X6.4492Y-5.1728
X6.5492Y-4.4728
X6.5492Y-5.1728
X6.6492Y-4.4728
X6.6492Y-5.1728
X6.7492Y-4.4728
X6.7492Y-5.1728
X6.8492Y-4.4728
X6.8492Y-5.1728
X6.9492Y-4.4728
X6.9492Y-5.1728
X7.0492Y-4.4728
X7.0492Y-5.1728
X7.1492Y-4.4728
X7.1492Y-5.1728
X7.2402Y-4.7228
X7.2402Y-4.8228
X7.2402Y-4.9228
X7.2492Y-4.4728
X7.2492Y-5.1728
M30
